<?xml version="1.0" encoding="UTF-8"?>
<!DOCTYPE svg PUBLIC "-//W3C//DTD SVG 1.1//EN" "http://www.w3.org/Graphics/SVG/1.1/DTD/svg11.dtd">
<!-- Creator: CorelDRAW X7 -->
<svg xmlns="http://www.w3.org/2000/svg" xml:space="preserve" width="2.47398in" height="2.31332in" version="1.1" style="shape-rendering:geometricPrecision; text-rendering:geometricPrecision; image-rendering:optimizeQuality; fill-rule:evenodd; clip-rule:evenodd"
viewBox="0 0 2474 2313"
 xmlns:xlink="http://www.w3.org/1999/xlink">
 <defs>
  <style type="text/css">
   <![CDATA[
    .fil0 {fill:#369DCF}
   ]]>
  </style>
 </defs>
 <g id="Layer_x0020_1">
  <metadata id="CorelCorpID_0Corel-Layer"/>
  <g id="_2952764952800">
   <g id="Layer_1_107_">
    <g>
     <path class="fil0" d="M2443 301c-25,-28 -60,-44 -98,-44l-1776 0 -25 -150c-10,-62 -63,-107 -126,-107l-289 0c-72,0 -129,57 -129,129 0,71 57,128 129,128l180 0 239 1435c1,6 4,10 6,16 2,7 3,13 7,19 4,9 9,16 15,23 4,5 8,10 12,15 8,7 16,11 25,16 5,3 9,7 14,9 15,6 31,9 48,9 0,0 1413,0 1413,0 72,0 129,-57 129,-128 0,-71 -57,-129 -129,-129l-1304 0 -22 -128 1455 0c64,0 118,-47 127,-111l129 -899c5,-37 -6,-75 -30,-103zm-246 213l-36 257 -458 0 0 -257 494 0zm-623 0l0 257 -385 0 0 -257 385 0zm0 386l0 257 -385 0 0 -257 385 0zm-514 -386l0 257 -385 0c-7,0 -13,2 -19,4l-44 -261 448 0zm-383 386l383 0 0 257 -341 0 -42 -257zm1026 257l0 -257 439 0 -36 257 -403 0z"/>
     <circle class="fil0" cx="868" cy="2121" r="193"/>
     <circle class="fil0" cx="2024" cy="2121" r="193"/>
    </g>
   </g>
  </g>
 </g>
</svg>
