<svg xmlns="http://www.w3.org/2000/svg" viewBox="0 0 300 300"><defs><style>.a{fill:#809298;}.b{fill:#64787f;}.c{fill:#120e0b;}.d{fill:#ed9e95;}.e{fill:#dc918b;}.f{fill:#ef8f86;}.g{fill:#402312;}.h{fill:#e8e8e8;}.i{fill:#ea2127;}.j{fill:#c22126;}.k{fill:#007f49;}.l{fill:#046c3a;}.m{fill:#c8c8c6;}.n{fill:#f9a764;}.o{fill:#1ba2dc;}.p{fill:#66b1e2;}.q{fill:#1a130f;}.r{fill:#603917;}.s{fill:#fff;}</style></defs><title>graphic_2_familie</title><rect class="a" x="198.34" y="177.43" width="15.06" height="77.54"/><rect class="b" x="174.48" y="177.43" width="15.05" height="77.54"/><path class="c" d="M164.48,265.81a10.14,10.14,0,0,1,10-10.14V254h15.06v11.81H174.48v0h-10Z"/><path class="c" d="M213.51,254v1.65a10.26,10.26,0,0,1,3.3.67,10.13,10.13,0,0,1,6.6,9.46h-9.9v0H198.33V254Z"/><path class="a" d="M181.51,159.12H170.57V171A12.93,12.93,0,0,0,183.5,184h19.82A12.93,12.93,0,0,0,216.25,171v-11.9Z"/><path class="b" d="M181.51,159.12V171A12.93,12.93,0,0,0,194.44,184H183.5A12.93,12.93,0,0,1,170.57,171v-11.9Z"/><path class="d" d="M105.85,160.68h22.23c0,5.11-8.21,66.09-8.21,66.09l-4,32.46h-6.16"/><path class="e" d="M110.69,259.23h-9.48L95.85,218s-8.35-47.85-9-51.09a10.89,10.89,0,0,1,.31-5.58l14.63-.67h4"/><path class="d" d="M209.68,68.08l-2.09-12.15a22.54,22.54,0,0,0-44.43,7.64l2.09,12.15a22.54,22.54,0,0,0,44.43-7.64Z"/><path class="f" d="M167.82,45.63a22.42,22.42,0,0,0-1.52,12.72l2.09,12.15a22.52,22.52,0,0,0,39.76,10.31,22.53,22.53,0,0,1-42.91-5.1l-2.09-12.15A22.45,22.45,0,0,1,167.82,45.63Z"/><path class="c" d="M202.37,43.21c-4.8-5.22-12.06-9.23-19.65-8.33S169,41.37,165.56,47.55a22.72,22.72,0,0,0-2.74,13.8l1.37,8.47c-.83-7.06-1-12.77,3.54-17.54a21.76,21.76,0,0,0,14.72,3.46c5.5-.65,12.93-4.13,16.47-7.85,5.54,3.57,9.34,10.74,10.17,17.8L208.25,56A22.71,22.71,0,0,0,202.37,43.21Z"/><path class="c" d="M200.29,44.36a9.74,9.74,0,0,1-5.56,2.53,9.74,9.74,0,0,1-13.56-1.05,9.76,9.76,0,0,1,11.63-3.5,9.75,9.75,0,0,1,10.58-5.94A9.74,9.74,0,0,1,200.29,44.36Z"/><path class="c" d="M198.34,42.69A9.67,9.67,0,0,1,194,47a9.71,9.71,0,0,1-13.07,3.71,9.74,9.74,0,0,1,5.54-6.49,9.59,9.59,0,0,1,4.16-.8,9.72,9.72,0,0,1,7.86-9.24A9.72,9.72,0,0,1,198.34,42.69Z"/><path class="g" d="M134.84,61.43a23.78,23.78,0,0,0-47.1-6.59l-4.1,29.32s4.63,7.3,22.75,9.83,24.48-4.21,24.48-4.21Z"/><path class="g" d="M136.27,96.3a17.8,17.8,0,0,1-20.1,15.16l-24.24-3.39A17.8,17.8,0,0,1,76.77,88h0A17.8,17.8,0,0,1,96.86,72.8l24.24,3.39A17.81,17.81,0,0,1,136.27,96.3Z"/><path class="d" d="M157.39,151.65a31.32,31.32,0,0,1-31.28-31.28h10.53a20.77,20.77,0,0,0,20.75,20.75"/><path class="h" d="M194.06,93.75a34.82,34.82,0,0,1,7.39.81V162a34.85,34.85,0,0,1-7.39.81,34.4,34.4,0,0,1-10.39-1.6V95.35A34.41,34.41,0,0,1,194.06,93.75Z"/><path class="i" d="M219.42,151.4v29.34H197.53v-87a48.22,48.22,0,0,1,6.64,1.69c9.3,3.09,15.25,10.7,15.25,19Z"/><path class="i" d="M183.68,95.35v85.39H166.22V137.39l-6.67.29v-9.42A34.52,34.52,0,0,1,183.68,95.35Z"/><path class="j" d="M164.16,136.65V127a35.32,35.32,0,0,1,19.52-31.6v-.07a34.52,34.52,0,0,0-24.13,32.91v9.42l6.67-.29v43.34H171l-3.58-43.09Z"/><polyline class="f" points="197.53 89.54 197.53 96.78 190.16 108.16 183.68 96.93 183.68 89.24"/><path class="k" d="M113.26,91.25a30.12,30.12,0,0,0-36,29.53H87a21.63,21.63,0,0,0,17.55,20.08,22.29,22.29,0,0,0,4,.38,21.62,21.62,0,0,0,21.57-20.45h7.37A30.11,30.11,0,0,0,113.26,91.25Z"/><path class="l" d="M110.16,90.81c-.92-.08-1.84-.14-2.78-.14a30.1,30.1,0,0,0-30.11,30.11h5.49A30.09,30.09,0,0,1,110.16,90.81Z"/><path class="l" d="M110,140.86a21.63,21.63,0,0,1-17.55-20.08H87a21.63,21.63,0,0,0,17.55,20.08,22.29,22.29,0,0,0,4,.38,21.67,21.67,0,0,0,2.76-.2C110.87,141,110.44,140.94,110,140.86Z"/><path class="a" d="M133.79,170c-1.92-13.09-4.66-36.66-8.23-36.66l-18,0-15.82,0c-3.57,0-8.69,23.86-10,37s0,15.91,0,15.91-.91,9.46,28.53,9.46h.08c25.74,0,24.73-5.49,24.82-10.45A99.17,99.17,0,0,0,133.79,170Z"/><path class="b" d="M86.45,186.23s-1.32-2.75,0-15.91,6.39-36.9,10-37H91.71c-3.57,0-8.69,23.86-10,37s0,15.91,0,15.91-.91,9.46,28.53,9.46h.08l2.58,0C85.59,195.23,86.45,186.23,86.45,186.23Z"/><path class="b" d="M112.25,133.31h13.3l-15.51,0Z"/><path class="i" d="M145.05,139.4l1.68,14.76s10.4-3,15.43-7,10.06-11.41,10.06-11.41L164.53,119s-3,12.32-8.07,16.69A16.39,16.39,0,0,1,145.05,139.4Z"/><path class="h" d="M143.66,102h2.79a18.42,18.42,0,0,1,18.42,18.42v27.86A16.83,16.83,0,0,1,148,165.11h-6a16.83,16.83,0,0,1-16.83-16.83V120.41A18.42,18.42,0,0,1,143.66,102Z" transform="translate(28.48 -25.47) rotate(11.12)"/><path class="m" d="M153.3,147.31l-1.74-.45c0-.09,2.24-9-1.55-15.16-4.26-7-8.28-8-8.32-8.06l.42-1.74c.19,0,4.74,1.19,9.43,8.87C155.73,137.61,153.4,146.91,153.3,147.31Z"/><circle class="d" cx="149.57" cy="114.82" r="13.12" transform="translate(8.06 239.43) rotate(-78.88)"/><path class="d" d="M162.37,153.22l-8.49-1.05A6.14,6.14,0,1,1,155.39,140L164,141"/><path class="n" d="M132.87,126.74a2.18,2.18,0,0,1,.89-.92,4.39,4.39,0,0,0,2.37-1.63c.59-1.06.65-3.39,2.79-2.37s.22,2.26-.17,3.6a4.76,4.76,0,0,0,.23,2.92,1.69,1.69,0,0,1-.24,1.21Z"/><path class="o" d="M137.93,133.8l.39-.82a.91.91,0,0,0-.43-1.21l-6.15-2.95a.91.91,0,0,0-1.22.43l-.39.82h0a2,2,0,0,0-2.69.94l-7.2,15a2.27,2.27,0,0,0,1.07,3l7.34,3.52a2.27,2.27,0,0,0,3-1.06l7.2-15a2,2,0,0,0-1-2.69Z"/><rect class="p" x="130.02" y="127.82" width="10.14" height="3.67" rx="1.02" ry="1.02" transform="translate(69.27 -45.64) rotate(25.6)"/><path class="q" d="M191.95,68.44a1.26,1.26,0,0,1,.39,0,1.29,1.29,0,0,1,1.14,1l.19.94a1.31,1.31,0,0,1-1,1.53,1.3,1.3,0,0,1-1.53-1l-.19-.94A1.3,1.3,0,0,1,191.95,68.44Z"/><path class="q" d="M174,71.45a1.26,1.26,0,0,1,.39,0,1.29,1.29,0,0,1,1.14,1l.19.94a1.31,1.31,0,0,1-1,1.53,1.3,1.3,0,0,1-1.53-1l-.19-.94A1.3,1.3,0,0,1,174,71.45Z"/><path class="q" d="M143.26,113.77a1,1,0,0,1,.28.12A1,1,0,0,1,144,115l-.18.72a1,1,0,0,1-1.22.73,1,1,0,0,1-.73-1.22l.18-.72A1,1,0,0,1,143.26,113.77Z"/><path class="q" d="M152.92,116a1,1,0,0,1,.28.12,1,1,0,0,1,.45,1.1l-.18.72a1,1,0,0,1-1.22.73,1,1,0,0,1-.73-1.22l.18-.72A1,1,0,0,1,152.92,116Z"/><path class="r" d="M152.79,106.91a6.13,6.13,0,0,1-4.37-1.95,5.24,5.24,0,0,1-.75-5.1l1.66.68-.83-.34.83.34a3.43,3.43,0,0,0,.48,3.28,4.37,4.37,0,0,0,3,1.3Z"/><circle class="d" cx="207.92" cy="68.41" r="4.51"/><path class="d" d="M121.48,45.07a19.52,19.52,0,0,0-5.51-2A19.31,19.31,0,0,0,93.28,58.25l-1.81,9.13a19.3,19.3,0,0,0,37.87,7.51l1.81-9.13A19.32,19.32,0,0,0,121.48,45.07Z"/><path class="f" d="M116,43.08a19.52,19.52,0,0,1,5.51,2c-.41-.11-.81-.22-1.23-.31a17.87,17.87,0,0,0-21,14l-2,9.95c-1.92,9.68,4.91,16.4,14.58,18.32a17.83,17.83,0,0,0,11.3-1.48A19.28,19.28,0,0,1,91.47,67.38l1.81-9.13A19.31,19.31,0,0,1,116,43.08Z"/><path class="g" d="M113.7,46.1a20.42,20.42,0,0,1,17.54,20.84,19.41,19.41,0,0,0,.44-2.19A20.39,20.39,0,0,0,91.28,59.1a19.83,19.83,0,0,0-.19,2.19A20.41,20.41,0,0,1,113.7,46.1Z"/><path class="g" d="M101.78,43.87A20.23,20.23,0,0,0,119,66.72s12.67,2.76,13.92-6.17-5.74-15.33-12.23-18.21S101.78,43.87,101.78,43.87Z"/><path class="f" d="M102.7,88.12V91.5c0,2.54,2.51,4.6,5.58,4.6s5.59-2.06,5.59-4.6V88.12"/><path class="q" d="M105,68.64a1.15,1.15,0,0,0-.36,0,1.18,1.18,0,0,0-1,.94l-.17.86a1.2,1.2,0,0,0,.93,1.39,1.19,1.19,0,0,0,1.4-.93l.17-.86A1.19,1.19,0,0,0,105,68.64Z"/><path class="q" d="M121.44,71.39a1.15,1.15,0,0,0-.36,0,1.18,1.18,0,0,0-1,.94l-.17.86a1.2,1.2,0,0,0,.93,1.39,1.19,1.19,0,0,0,1.4-.93l.17-.86A1.19,1.19,0,0,0,121.44,71.39Z"/><circle class="f" cx="91.98" cy="67.78" r="4.51"/><path class="c" d="M121.1,265.49a7.8,7.8,0,1,0-15.61,0"/><path class="c" d="M111.71,265.49a7.8,7.8,0,1,0-15.6,0"/><path class="d" d="M133.95,138.8a5.39,5.39,0,0,0-6.15-4.47l-33.11,5.24-6.16-18.81h-11a5.51,5.51,0,0,0,.25,1.85l8.08,24.66a5.38,5.38,0,0,0,6,3.64l37.64-6A5.38,5.38,0,0,0,133.95,138.8Z"/><path class="i" d="M177.12,155a67.53,67.53,0,0,1-15.82-1.87L164.51,141c.17,0,18.55,4.7,29.65-2.77C202.72,132.47,204.93,114,205,108l12.55.21c-.05,3-.94,30-16.4,40.45C193.73,153.66,184.71,155,177.12,155Z"/><path class="s" d="M106.8,79.46a19.83,19.83,0,0,0,4.34,1.63,17.58,17.58,0,0,0,5,.14A5.79,5.79,0,0,1,111,82.54,5.49,5.49,0,0,1,106.8,79.46Z"/><path class="s" d="M190.75,81.74a16.35,16.35,0,0,1-9.24,2.17,5.63,5.63,0,0,0,10.29-2.84C191.46,81.29,191.11,81.53,190.75,81.74Z"/></svg>