<svg width="158" height="158" viewBox="0 0 158 158" fill="none" xmlns="http://www.w3.org/2000/svg">
<mask id="mask0_5_3262" style="mask-type:alpha" maskUnits="userSpaceOnUse" x="0" y="0" width="158" height="158">
<path d="M79 158C122.631 158 158 122.631 158 79C158 35.3695 122.631 0 79 0C35.3695 0 0 35.3695 0 79C0 122.631 35.3695 158 79 158Z" fill="white"/>
</mask>
<g mask="url(#mask0_5_3262)">
<path d="M0 0L2.46875 6.78906L0 13.8867V20.9844L9.875 37.6484L0 54.3125V64.1875L9.875 79L0 93.8125V103.688L9.875 120.352L0 137.016V158L6.78906 155.531L13.8867 158H20.9844L37.6484 148.125L54.3125 158H64.1875L79 148.125L93.8125 158H103.688L120.352 148.125L137.016 158H158L155.531 151.211L158 144.113V137.016L148.125 120.352L158 103.688V93.8125L148.125 79L158 64.1875V54.3125L148.125 37.6484L158 20.9844V0L151.211 2.46875L144.113 0H137.016L120.352 9.875L103.688 0H93.8125L79 9.875L64.1875 0H54.3125L37.6484 9.875L20.9844 0H0Z" fill="#EEEEEE"/>
<path d="M103.688 0V33.3281L137.016 0H103.688ZM158 20.9844L124.672 54.3125H158V20.9844ZM0 54.3125H33.3281L0 20.9844V54.3125ZM20.9844 0L54.3125 33.3281V0H20.9844ZM54.3125 158V124.672L20.9844 158H54.3125ZM0 137.016L33.3281 103.688H0V137.016ZM158 103.688H124.672L158 137.016V103.688ZM137.016 158L103.688 124.672V158H137.016Z" fill="#0052B4"/>
<path d="M0 0V13.8867L40.4258 54.3125H54.3125L0 0ZM64.1875 0V64.1875H0V93.8125H64.1875V158H93.8125V93.8125H158V64.1875H93.8125V0H64.1875ZM144.113 0L103.688 40.4258V54.3125L158 0H144.113ZM54.3125 103.688L0 158H13.8867L54.3125 117.574V103.688ZM103.688 103.688L158 158V144.113L117.574 103.688H103.688Z" fill="#D80027"/>
</g>
</svg>
