<svg width="17" height="17" viewBox="0 0 17 17" fill="none" xmlns="http://www.w3.org/2000/svg">
<path d="M10.125 0.168701H6.74995C3.45933 0.843701 0.843701 3.4312 0.168701 6.74995V10.125C0.843701 13.4437 3.45933 16.0312 6.74995 16.7062H10.125C13.4437 16.0312 16.0312 13.4156 16.7062 10.125V6.74995C16.0312 3.4312 13.4156 0.843701 10.125 0.168701Z" fill="#F9F9F9"/>
<path d="M10.125 6.75V0.16875C9.59062 0.05625 9.02812 0 8.4375 0C7.84688 0 7.28438 0.05625 6.75 0.16875V6.75H0.16875C0.05625 7.28438 0 7.84688 0 8.4375C0 9.02812 0.05625 9.59062 0.16875 10.125H6.75V16.7063C7.28438 16.8188 7.84688 16.875 8.4375 16.875C9.02812 16.875 9.59062 16.8188 10.125 16.7063V10.125H16.7063C16.8188 9.59062 16.875 9.02812 16.875 8.4375C16.875 7.84688 16.8188 7.28438 16.7063 6.75H10.125Z" fill="#ED4C5C"/>
<path d="M4.5 5.0625H3.375L3.65625 3.375L3.375 1.6875H4.5L4.21875 3.375L4.5 5.0625Z" fill="#ED4C5C"/>
<path d="M2.25 3.9375V2.8125L3.9375 3.09375L5.625 2.8125V3.9375L3.9375 3.65625L2.25 3.9375ZM13.5 5.0625H12.375L12.6562 3.375L12.375 1.6875H13.5L13.2188 3.375L13.5 5.0625Z" fill="#ED4C5C"/>
<path d="M11.25 3.9375V2.8125L12.9375 3.09375L14.625 2.8125V3.9375L12.9375 3.65625L11.25 3.9375ZM4.5 15.1875H3.375C3.375 15.1875 3.65625 13.9219 3.65625 13.5C3.65625 13.0781 3.375 11.8125 3.375 11.8125H4.5C4.5 11.8125 4.21875 13.0781 4.21875 13.5C4.21875 13.9219 4.5 15.1875 4.5 15.1875Z" fill="#ED4C5C"/>
<path d="M2.25 14.0625V12.9375L3.9375 13.2188L5.625 12.9375V14.0625L3.9375 13.7812L2.25 14.0625ZM13.5 15.1875H12.375L12.6562 13.5L12.375 11.8125H13.5L13.2188 13.5L13.5 15.1875Z" fill="#ED4C5C"/>
<path d="M11.25 14.0625V12.9375L12.9375 13.2188L14.625 12.9375V14.0625L12.9375 13.7812L11.25 14.0625Z" fill="#ED4C5C"/>
</svg>
