<svg width="18" height="18" viewBox="0 0 18 18" fill="none" xmlns="http://www.w3.org/2000/svg">
<path d="M10.8 7.2V0.18C10.23 0.06 9.63 0 9 0C8.37 0 7.77 0.06 7.2 0.18V7.2H0.18C0.06 7.77 0 8.37 0 9C0 9.63 0.06 10.23 0.18 10.8H7.2V17.82C7.77 17.94 8.37 18 9 18C9.63 18 10.23 17.94 10.8 17.82V10.8H17.82C17.94 10.23 18 9.63 18 9C18 8.37 17.94 7.77 17.82 7.2H10.8Z" fill="#ED4C5C"/>
<path d="M4.79961 5.40005H3.59961L3.89961 3.60005L3.59961 1.80005H4.79961L4.49961 3.60005L4.79961 5.40005Z" fill="#ED4C5C"/>
<path d="M2.40039 4.20005V3.00005L4.20039 3.30005L6.00039 3.00005V4.20005L4.20039 3.90005L2.40039 4.20005ZM14.4004 5.40005H13.2004L13.5004 3.60005L13.2004 1.80005H14.4004L14.1004 3.60005L14.4004 5.40005Z" fill="#ED4C5C"/>
<path d="M11.9996 4.2V3L13.7996 3.3L15.5996 3V4.2L13.7996 3.9L11.9996 4.2ZM4.79961 16.2H3.59961C3.59961 16.2 3.89961 14.85 3.89961 14.4C3.89961 13.95 3.59961 12.6 3.59961 12.6H4.79961C4.79961 12.6 4.49961 13.95 4.49961 14.4C4.49961 14.85 4.79961 16.2 4.79961 16.2Z" fill="#ED4C5C"/>
<path d="M2.40039 15.0001V13.8001L4.20039 14.1001L6.00039 13.8001V15.0001L4.20039 14.7001L2.40039 15.0001ZM14.4004 16.2001H13.2004L13.5004 14.4001L13.2004 12.6001H14.4004L14.1004 14.4001L14.4004 16.2001Z" fill="#ED4C5C"/>
<path d="M12 15V13.8L13.8 14.1L15.6 13.8V15L13.8 14.7L12 15Z" fill="#ED4C5C"/>
</svg>
