<svg width="90" height="58" viewBox="0 0 90 58" fill="none" xmlns="http://www.w3.org/2000/svg">
<path d="M8.26431 44.3051C8.26431 45.0609 8.41764 45.4849 8.72376 45.578C9.68458 45.7801 10.1653 46.3796 10.1653 47.3758V49.628C10.1653 51.029 8.93704 51.7285 6.48061 51.7285H3.70479C1.24836 51.7285 0.0201416 51.029 0.0201416 49.628V42.4418H2.15612V49.628C2.15612 50.3147 2.67181 50.6567 3.70426 50.6567H6.48061C7.51252 50.6567 8.02875 50.3141 8.02875 49.628V47.3753C8.04997 46.8216 7.71201 46.4476 7.01434 46.2471C6.48061 46.146 6.1851 45.4982 6.1278 44.3045H8.26431V44.3051Z" fill="#EC1B2E"/>
<path d="M13.0262 46.6443V49.6278C13.0262 50.3145 13.5429 50.6571 14.5748 50.6571H17.3512C18.3831 50.6571 18.8998 50.314 18.8998 49.6278L18.9529 45.9985C18.9529 45.3086 18.4372 44.9639 17.4048 44.9639H16.3904C14.4682 44.9639 13.5068 44.1421 13.5068 42.4958H15.6423C15.6423 43.4299 15.8842 43.8969 16.3686 43.8969H17.4042C19.8601 43.8969 21.0884 44.5975 21.0884 45.9985L21.0353 49.6278C21.0353 51.0289 19.8071 51.7283 17.3506 51.7283H14.5743C12.1179 51.7283 10.8896 51.0289 10.8896 49.6278V46.6443H13.0262Z" fill="#EC1B2E"/>
<path d="M22.2951 45.1817C22.2951 43.7806 23.4804 43.0822 25.8519 43.0822H26.834C27.8096 43.0822 28.7885 43.3194 29.7711 43.7992V42.4476H31.906V49.6338C31.906 51.0349 30.6778 51.7354 28.2219 51.7354H25.4455C22.9891 51.7354 21.7609 51.0349 21.7609 49.6338L21.8675 47.7647H24.0035L23.8968 49.6338C23.8968 50.3205 24.4131 50.6636 25.4455 50.6636H28.2219C29.2538 50.6636 29.7705 50.3205 29.7705 49.6338V45.7062C29.7207 44.9115 28.7413 44.3913 26.8334 44.1471H25.8721C24.9118 44.1471 24.4311 44.4929 24.4311 45.1822L24.5377 46.2232H22.4018L22.2951 45.1817Z" fill="#EC1B2E"/>
<path d="M40.8189 44.3051C40.8189 45.0609 40.9722 45.4849 41.2783 45.578C42.2386 45.7801 42.7198 46.3796 42.7198 47.3758V49.628C42.7198 51.029 41.4916 51.7285 39.0352 51.7285H36.2594C33.8035 51.7285 32.5747 51.029 32.5747 49.628V42.4418H34.7102V49.628C34.7102 50.3147 35.2264 50.6567 36.2588 50.6567H39.0346C40.0666 50.6567 40.5833 50.3141 40.5833 49.628V47.3753C40.6045 46.8216 40.2666 46.4476 39.5689 46.2471C39.0346 46.146 38.7397 45.4982 38.6824 44.3045H40.8189V44.3051Z" fill="#929497"/>
<path d="M48.6341 43.8736H47.2351C46.2032 43.8736 45.6869 44.2178 45.6869 44.9087V49.6284C45.6869 50.3146 46.2032 50.6571 47.2351 50.6571H52.0731C53.104 50.6571 53.6207 50.3141 53.6207 49.6284V44.9087C53.6207 44.2178 53.104 43.8736 52.0731 43.8736H50.5563V46.9582H48.6341V43.8736ZM43.5509 44.9997C43.5509 43.5991 44.7723 42.8991 47.2144 42.8991H48.6341V41.9353H50.5563V42.8991H52.0731C54.5285 42.8991 55.7572 43.5991 55.7572 44.9997V49.6284C55.7572 51.0295 54.5285 51.7284 52.0731 51.7284H47.2351C44.7792 51.7284 43.5504 51.0295 43.5504 49.6284V44.9997H43.5509Z" fill="#929497"/>
<path d="M58.455 46.6443V49.6278C58.455 50.3145 58.9702 50.6571 60.0032 50.6571H62.7795C63.8114 50.6571 64.3282 50.314 64.3282 49.6278L64.3812 45.9985C64.3812 45.3086 63.865 44.9639 62.8336 44.9639H61.8182C59.8965 44.9639 58.9346 44.1421 58.9346 42.4958H61.0706C61.0706 43.4299 61.312 43.8969 61.797 43.8969H62.8331C65.2885 43.8969 66.5172 44.5975 66.5172 45.9985L66.4631 49.6278C66.4631 51.0289 65.2349 51.7283 62.779 51.7283H60.0026C57.5462 51.7283 56.318 51.0289 56.318 49.6278V46.6443H58.455Z" fill="#929497"/>
<path d="M72.3799 43.8736H70.9792C69.9484 43.8736 69.4316 44.2178 69.4316 44.9087V49.6284C69.4316 50.3146 69.9479 50.6571 70.9792 50.6571H75.8173C76.8497 50.6571 77.366 50.3141 77.366 49.6284V44.9087C77.366 44.2178 76.8497 43.8736 75.8173 43.8736H74.3015V46.9582H72.3799V43.8736ZM67.2962 44.9997C67.2962 43.5991 68.5164 42.8991 70.9591 42.8991H72.3799V41.9353H74.3015V42.8991H75.8173C78.2737 42.8991 79.5019 43.5991 79.5019 44.9997V49.6284C79.5019 51.0295 78.2732 51.7284 75.8173 51.7284H70.9792C68.5239 51.7284 67.2957 51.0295 67.2957 49.6284V44.9997H67.2962Z" fill="#929497"/>
<path d="M80.2772 51.5828L80.1705 44.4876C80.1705 43.1269 81.3563 42.4471 83.7273 42.4471H86.4182C88.8041 42.4471 89.9957 43.1269 89.9957 44.4876L89.8891 51.5828H87.7536L87.8603 44.4876C87.8603 43.8381 87.3791 43.5131 86.4188 43.5131H83.7491C82.7867 43.5131 82.3076 43.8381 82.3076 44.4876L82.4137 51.5828H80.2772Z" fill="#929497"/>
<path d="M56.8761 53.9852L57.1997 55.2134C57.2639 55.4836 57.3286 55.7352 57.3737 55.9842H57.3886C57.4443 55.7395 57.5233 55.4799 57.6024 55.2198L57.9955 53.9858H58.3648L58.7377 55.1953C58.829 55.4842 58.8996 55.7395 58.9531 55.9847H58.9675C59.0067 55.74 59.073 55.4842 59.1521 55.2001L59.4959 53.9858H59.9288L59.1521 56.4028H58.7537L58.3849 55.2496C58.3006 54.9794 58.2316 54.74 58.1695 54.4554H58.161C58.1011 54.7437 58.0242 54.9932 57.9414 55.256L57.5514 56.4033H57.1541L56.4277 53.9863H56.8761V53.9852Z" fill="#EC1B2E"/>
<path d="M60.5934 53.9852L60.9186 55.2134C60.9812 55.4836 61.047 55.7352 61.0921 55.9842H61.1048C61.1605 55.7395 61.2417 55.4799 61.3202 55.2198L61.7134 53.9858H62.0826L62.4561 55.1953C62.5453 55.4842 62.6148 55.7395 62.6715 55.9847H62.6837C62.7251 55.74 62.7898 55.4842 62.8705 55.2001L63.2148 53.9858H63.6456L62.8705 56.4028H62.4704L62.1033 55.2496C62.0163 54.9794 61.9484 54.74 61.8879 54.4554H61.8773C61.8173 54.7437 61.7425 54.9932 61.6598 55.256L61.2698 56.4033H60.8719L60.1445 53.9863H60.5934V53.9852Z" fill="#EC1B2E"/>
<path d="M64.3097 53.9852L64.6333 55.2134C64.6996 55.4836 64.7638 55.7352 64.8068 55.9842H64.8232C64.8774 55.7395 64.9559 55.4799 65.0371 55.2198L65.4307 53.9858H65.8L66.1724 55.1953C66.2616 55.4842 66.3321 55.7395 66.3862 55.9847H66.4027C66.4393 55.74 66.5061 55.4842 66.5852 55.2001L66.9295 53.9858H67.364L66.5847 56.4028H66.1868L65.8175 55.2496C65.7347 54.9794 65.6647 54.74 65.6042 54.4554H65.5936C65.5352 54.7437 65.4588 54.9932 65.374 55.256L64.9861 56.4033H64.5856L63.8608 53.9863H64.3097V53.9852Z" fill="#EC1B2E"/>
<path d="M67.4934 56.1423C67.4934 55.9641 67.6202 55.829 67.7942 55.829C67.9667 55.829 68.086 55.9593 68.086 56.1423C68.086 56.3231 67.9661 56.4561 67.7841 56.4561C67.6138 56.4561 67.4934 56.3231 67.4934 56.1423Z" fill="#EC1B2E"/>
<path d="M70.2523 54.939C70.2523 54.8635 70.2465 54.8002 70.2274 54.7432C70.1462 54.4842 69.9398 54.2757 69.6162 54.2757C69.1971 54.2757 68.8968 54.6294 68.8968 55.1879C68.8968 55.6635 69.1408 56.0592 69.6098 56.0592C69.8831 56.0592 70.1282 55.8885 70.2168 55.6081C70.2417 55.5331 70.2523 55.448 70.2523 55.373V54.939ZM70.69 56.047C70.69 56.6081 70.5781 56.9427 70.3478 57.1566C70.1096 57.373 69.7701 57.4475 69.4671 57.4475C69.1764 57.4475 68.8575 57.3773 68.6623 57.248L68.7726 56.9076C68.9323 57.014 69.1806 57.1034 69.4798 57.1034C69.9271 57.1034 70.2592 56.8683 70.2592 56.2555V55.989H70.2475C70.1186 56.2135 69.8528 56.3917 69.4804 56.3917C68.883 56.3917 68.4564 55.8853 68.4564 55.2135C68.4564 54.397 68.987 53.9358 69.5462 53.9358C69.9653 53.9358 70.1887 54.1517 70.2974 54.3512H70.3091L70.3245 53.9858H70.7118C70.6975 54.1555 70.6911 54.3549 70.6911 54.6443V56.047H70.69Z" fill="#EC1B2E"/>
<path d="M72.9365 54.9599C72.9407 54.6828 72.8203 54.2509 72.3274 54.2509C71.8796 54.2509 71.6897 54.654 71.6562 54.9599H72.9365ZM71.6499 55.2737C71.6605 55.87 72.0329 56.1136 72.477 56.1136C72.7916 56.1136 72.9863 56.0588 73.1439 55.9886L73.2245 56.3019C73.0696 56.3727 72.8001 56.4556 72.4165 56.4556C71.6748 56.4556 71.2334 55.9642 71.2334 55.2338C71.2334 54.5046 71.6605 53.9354 72.3629 53.9354C73.1545 53.9354 73.3604 54.6227 73.3604 55.0689C73.3604 55.1594 73.354 55.2232 73.3439 55.2732H71.6499V55.2737Z" fill="#EC1B2E"/>
<path d="M74.1705 55.1991C74.1705 55.7289 74.4686 56.1294 74.8979 56.1294C75.317 56.1294 75.63 55.7347 75.63 55.1879C75.63 54.7778 75.4247 54.2635 74.9064 54.2635C74.3938 54.2635 74.1705 54.7432 74.1705 55.1991ZM76.0773 55.1736C76.0773 56.0677 75.4555 56.456 74.8766 56.456C74.2299 56.456 73.7206 55.9778 73.7206 55.2135C73.7206 54.4092 74.2548 53.9358 74.918 53.9358C75.6109 53.9353 76.0773 54.4379 76.0773 55.1736Z" fill="#EC1B2E"/>
<path d="M76.5647 55.9594C76.6995 56.0381 76.9292 56.1301 77.1462 56.1301C77.4603 56.1301 77.6088 55.9743 77.6088 55.7679C77.6088 55.5583 77.4842 55.4482 77.1653 55.3296C76.7281 55.17 76.5223 54.9354 76.5223 54.6439C76.5223 54.2551 76.8422 53.9354 77.3563 53.9354C77.6009 53.9354 77.8163 54.0019 77.9452 54.0865L77.8418 54.4051C77.7463 54.3466 77.5717 54.2588 77.3462 54.2588C77.0868 54.2588 76.9478 54.4088 76.9478 54.5892C76.9478 54.7892 77.0868 54.8785 77.4014 55.003C77.8163 55.1594 78.0317 55.3689 78.0317 55.728C78.0317 56.1588 77.7001 56.4551 77.1367 56.4551C76.8735 56.4551 76.6284 56.387 76.4586 56.2865L76.5647 55.9594Z" fill="#EC1B2E"/>
<path d="M79.1176 53.4049V53.9847H79.7479V54.3214H79.1176V55.6241C79.1176 55.9235 79.2047 56.0921 79.4498 56.0921C79.5697 56.0921 79.6381 56.0831 79.7018 56.0624L79.723 56.3969C79.6386 56.4267 79.5039 56.4554 79.3341 56.4554C79.1304 56.4554 78.9649 56.3868 78.8609 56.2709C78.7404 56.1379 78.6916 55.9235 78.6916 55.639V54.3214H78.3181V53.9847H78.6916V53.5352L79.1176 53.4049Z" fill="#EC1B2E"/>
<path d="M81.5061 55.1694C81.0296 55.1593 80.4858 55.2444 80.4858 55.7135C80.4858 56.005 80.6747 56.1338 80.8944 56.1338C81.2137 56.1338 81.4185 55.9343 81.4875 55.7284C81.5013 55.6784 81.5061 55.629 81.5061 55.5891V55.1694ZM81.9316 55.8237C81.9316 56.0343 81.9422 56.2375 81.9671 56.4018H81.5729L81.5379 56.096H81.5231C81.3878 56.287 81.1289 56.455 80.7851 56.455C80.2959 56.455 80.0476 56.113 80.0476 55.7635C80.0476 55.1774 80.5659 54.8572 81.4981 54.8635V54.8135C81.4981 54.6183 81.4445 54.255 80.9506 54.2588C80.7193 54.2588 80.4864 54.3252 80.3166 54.438L80.2179 54.1449C80.4158 54.0205 80.7103 53.9348 81.0132 53.9348C81.7507 53.9348 81.9316 54.438 81.9316 54.9173V55.8237Z" fill="#EC1B2E"/>
<path d="M83.1393 53.4049V53.9847H83.7696V54.3214H83.1393V55.6241C83.1393 55.9235 83.2268 56.0921 83.4688 56.0921C83.5892 56.0921 83.6571 56.0831 83.724 56.0624L83.7447 56.3969C83.6571 56.4267 83.5245 56.4554 83.3552 56.4554C83.152 56.4554 82.9854 56.3868 82.8815 56.2709C82.7615 56.1379 82.7117 55.9235 82.7117 55.639V54.3214H82.3392V53.9847H82.7117V53.5352L83.1393 53.4049Z" fill="#EC1B2E"/>
<path d="M84.1384 56.1423C84.1384 55.9641 84.2631 55.829 84.4366 55.829C84.6111 55.829 84.731 55.9593 84.731 56.1423C84.731 56.3231 84.6111 56.4561 84.4249 56.4561C84.2583 56.4561 84.1384 56.3231 84.1384 56.1423Z" fill="#EC1B2E"/>
<path d="M86.8955 54.939C86.8955 54.8635 86.8908 54.8002 86.8701 54.7432C86.7921 54.4842 86.5804 54.2757 86.2562 54.2757C85.8381 54.2757 85.5389 54.6294 85.5389 55.1879C85.5389 55.6635 85.7835 56.0592 86.252 56.0592C86.5257 56.0592 86.7703 55.8885 86.8616 55.6081C86.886 55.5331 86.8945 55.448 86.8945 55.373V54.939H86.8955ZM87.3343 56.047C87.3343 56.6081 87.2186 56.9427 86.9905 57.1566C86.7507 57.373 86.4106 57.4475 86.1077 57.4475C85.8196 57.4475 85.5002 57.3773 85.3049 57.248L85.4148 56.9076C85.575 57.014 85.8238 57.1034 86.1225 57.1034C86.5719 57.1034 86.8992 56.8683 86.8992 56.2555V55.989H86.8908C86.7608 56.2135 86.4976 56.3917 86.1225 56.3917C85.5251 56.3917 85.0964 55.8853 85.0964 55.2135C85.0964 54.397 85.6312 53.9358 86.1867 53.9358C86.6058 53.9358 86.8313 54.1517 86.9412 54.3512H86.9496L86.9661 53.9858H87.3534C87.3396 54.1555 87.3348 54.3549 87.3348 54.6443V56.047H87.3343Z" fill="#EC1B2E"/>
<path d="M89.5783 54.9599C89.5841 54.6828 89.4642 54.2509 88.9714 54.2509C88.5209 54.2509 88.3336 54.654 88.297 54.9599H89.5783ZM88.2928 55.2737C88.3034 55.87 88.6785 56.1136 89.1194 56.1136C89.4329 56.1136 89.6277 56.0588 89.7868 55.9886L89.868 56.3019C89.7141 56.3727 89.4451 56.4556 89.06 56.4556C88.3177 56.4556 87.8737 55.9642 87.8737 55.2338C87.8737 54.5046 88.3029 53.9354 89.0053 53.9354C89.7974 53.9354 90.0001 54.6227 90.0001 55.0689C90.0001 55.1594 89.9964 55.2232 89.9863 55.2732H88.2928V55.2737Z" fill="#EC1B2E"/>
<path d="M8.11472 30.0134H0V38.1395H8.11472V30.0134Z" fill="#929497"/>
<path d="M17.211 16.015H9.09631V38.1396H17.211V16.015Z" fill="#929497"/>
<path d="M26.3067 23.0735H18.1914V38.139H26.3067V23.0735Z" fill="#929497"/>
<path d="M35.4025 0H27.2872V38.139H35.4025V0Z" fill="#929497"/>
<path d="M44.4974 3.67725H36.3827V38.1391H44.4974V3.67725Z" fill="#929497"/>
<path d="M53.5937 5.97925H45.479V38.1395H53.5937V5.97925Z" fill="#EC1B2E"/>
<path d="M62.6888 10.3063H54.5746V38.1388H62.6888V10.3063Z" fill="#EC1B2E"/>
<path d="M71.7846 19.8809H63.6704V38.1389H71.7846V19.8809Z" fill="#EC1B2E"/>
<path d="M80.8802 5.24304H72.7655V38.1395H80.8802V5.24304Z" fill="#EC1B2E"/>
<path d="M89.9765 10.859H81.8618V38.1394H89.9765V10.859Z" fill="#EC1B2E"/>
<path d="M89.982 38.5402L0.00170898 38.5487V37.3013L89.982 37.2917V38.5402Z" fill="#808184"/>
</svg>
