<svg width="34" height="22" viewBox="0 0 34 22" fill="none" xmlns="http://www.w3.org/2000/svg">
<path d="M3.11007 16.6719C3.11007 16.9563 3.16776 17.1158 3.28296 17.1508C3.64451 17.2269 3.82539 17.4525 3.82539 17.8274V18.6748C3.82539 19.2021 3.36321 19.4653 2.43887 19.4653H1.39433C0.469986 19.4653 0.0078125 19.2021 0.0078125 18.6748V15.9707H0.811575V18.6748C0.811575 18.9333 1.00563 19.062 1.39413 19.062H2.43887C2.82717 19.062 3.02142 18.9331 3.02142 18.6748V17.8272C3.02941 17.6188 2.90224 17.4781 2.63971 17.4026C2.43887 17.3646 2.32766 17.1208 2.3061 16.6717H3.11007V16.6719Z" fill="#EC1B2E"/>
<path d="M4.90211 17.5521V18.6748C4.90211 18.9332 5.09656 19.0621 5.48487 19.0621H6.5296C6.9179 19.0621 7.11236 18.933 7.11236 18.6748L7.13232 17.3091C7.13232 17.0495 6.93827 16.9198 6.54976 16.9198H6.16804C5.44474 16.9198 5.08298 16.6105 5.08298 15.9911H5.88655C5.88655 16.3425 5.97758 16.5183 6.15986 16.5183H6.54956C7.47371 16.5183 7.93588 16.7819 7.93588 17.3091L7.91592 18.6748C7.91592 19.202 7.45375 19.4652 6.5294 19.4652H5.48467C4.56032 19.4652 4.09814 19.202 4.09814 18.6748V17.5521H4.90211Z" fill="#EC1B2E"/>
<path d="M8.38952 17.0017C8.38952 16.4745 8.83552 16.2117 9.72792 16.2117H10.0975C10.4646 16.2117 10.8329 16.3009 11.2027 16.4815V15.9729H12.0061V18.677C12.0061 19.2042 11.5439 19.4678 10.6197 19.4678H9.575C8.65065 19.4678 8.18848 19.2042 8.18848 18.677L8.22861 17.9737H9.03237L8.99224 18.677C8.99224 18.9354 9.18649 19.0645 9.575 19.0645H10.6197C11.008 19.0645 11.2025 18.9354 11.2025 18.677V17.199C11.1837 16.9 10.8152 16.7043 10.0973 16.6124H9.73551C9.37416 16.6124 9.19328 16.7425 9.19328 17.0019L9.23341 17.3936H8.42965L8.38952 17.0017Z" fill="#EC1B2E"/>
<path d="M15.3596 16.6719C15.3596 16.9563 15.4173 17.1158 15.5325 17.1508C15.8938 17.2269 16.0749 17.4525 16.0749 17.8274V18.6748C16.0749 19.2021 15.6127 19.4653 14.6884 19.4653H13.6438C12.7197 19.4653 12.2573 19.2021 12.2573 18.6748V15.9707H13.0609V18.6748C13.0609 18.9333 13.2551 19.062 13.6436 19.062H14.6882C15.0765 19.062 15.2709 18.9331 15.2709 18.6748V17.8272C15.2789 17.6188 15.1517 17.4781 14.8892 17.4026C14.6882 17.3646 14.5772 17.1208 14.5556 16.6717H15.3596V16.6719Z" fill="#929497"/>
<path d="M18.3007 16.5095H17.7742C17.3859 16.5095 17.1917 16.639 17.1917 16.899V18.675C17.1917 18.9332 17.3859 19.0621 17.7742 19.0621H19.5948C19.9827 19.0621 20.1771 18.933 20.1771 18.675V16.899C20.1771 16.639 19.9827 16.5095 19.5948 16.5095H19.024V17.6702H18.3007V16.5095ZM16.3879 16.9332C16.3879 16.4062 16.8475 16.1428 17.7664 16.1428H18.3007V15.7801H19.024V16.1428H19.5948C20.5187 16.1428 20.9811 16.4062 20.9811 16.9332V18.675C20.9811 19.2022 20.5187 19.4652 19.5948 19.4652H17.7742C16.8501 19.4652 16.3877 19.2022 16.3877 18.675V16.9332H16.3879Z" fill="#929497"/>
<path d="M21.9965 17.5521V18.6748C21.9965 18.9332 22.1904 19.0621 22.5791 19.0621H23.6238C24.0121 19.0621 24.2066 18.933 24.2066 18.6748L24.2266 17.3091C24.2266 17.0495 24.0323 16.9198 23.6442 16.9198H23.2621C22.539 16.9198 22.177 16.6105 22.177 15.9911H22.9808C22.9808 16.3425 23.0716 16.5183 23.2541 16.5183H23.644C24.568 16.5183 25.0303 16.7819 25.0303 17.3091L25.01 18.6748C25.01 19.202 24.5478 19.4652 23.6236 19.4652H22.5789C21.6546 19.4652 21.1924 19.202 21.1924 18.6748V17.5521H21.9965Z" fill="#929497"/>
<path d="M27.2364 16.5095H26.7094C26.3215 16.5095 26.127 16.639 26.127 16.899V18.675C26.127 18.9332 26.3213 19.0621 26.7094 19.0621H28.5299C28.9184 19.0621 29.1127 18.933 29.1127 18.675V16.899C29.1127 16.639 28.9184 16.5095 28.5299 16.5095H27.9595V17.6702H27.2364V16.5095ZM25.3234 16.9332C25.3234 16.4062 25.7826 16.1428 26.7018 16.1428H27.2364V15.7801H27.9595V16.1428H28.5299C29.4543 16.1428 29.9164 16.4062 29.9164 16.9332V18.675C29.9164 19.2022 29.4541 19.4652 28.5299 19.4652H26.7094C25.7854 19.4652 25.3232 19.2022 25.3232 18.675V16.9332H25.3234Z" fill="#929497"/>
<path d="M30.2081 19.4104L30.168 16.7405C30.168 16.2285 30.6142 15.9727 31.5064 15.9727H32.519C33.4168 15.9727 33.8652 16.2285 33.8652 16.7405L33.825 19.4104H33.0215L33.0616 16.7405C33.0616 16.4961 32.8805 16.3738 32.5192 16.3738H31.5146C31.1524 16.3738 30.9721 16.4961 30.9721 16.7405L31.0121 19.4104H30.2081Z" fill="#929497"/>
<path d="M21.4026 20.3145L21.5244 20.7767C21.5485 20.8783 21.5729 20.973 21.5899 21.0667H21.5954C21.6164 20.9746 21.6461 20.8769 21.6759 20.7791L21.8238 20.3147H21.9628L22.1031 20.7698C22.1375 20.8785 22.164 20.9746 22.1842 21.0669H22.1896C22.2044 20.9748 22.2293 20.8785 22.2591 20.7716L22.3884 20.3147H22.5513L22.2591 21.2242H22.1091L21.9704 20.7903C21.9386 20.6886 21.9127 20.5985 21.8893 20.4914H21.8861C21.8636 20.5999 21.8346 20.6938 21.8035 20.7927L21.6567 21.2244H21.5072L21.2339 20.3149H21.4026V20.3145Z" fill="#EC1B2E"/>
<path d="M22.8012 20.3145L22.9236 20.7767C22.9472 20.8783 22.9719 20.973 22.9889 21.0667H22.9937C23.0146 20.9746 23.0452 20.8769 23.0747 20.7791L23.2227 20.3147H23.3616L23.5022 20.7698C23.5357 20.8785 23.5619 20.9746 23.5832 21.0669H23.5878C23.6034 20.9748 23.6277 20.8785 23.6581 20.7716L23.7877 20.3147H23.9498L23.6581 21.2242H23.5076L23.3694 20.7903C23.3367 20.6886 23.3111 20.5985 23.2884 20.4914H23.2844C23.2618 20.5999 23.2336 20.6938 23.2025 20.7927L23.0558 21.2244H22.906L22.6323 20.3149H22.8012V20.3145Z" fill="#EC1B2E"/>
<path d="M24.1997 20.3145L24.3214 20.7767C24.3464 20.8783 24.3706 20.973 24.3867 21.0667H24.3929C24.4133 20.9746 24.4428 20.8769 24.4734 20.7791L24.6215 20.3147H24.7605L24.9006 20.7698C24.9341 20.8785 24.9607 20.9746 24.9811 21.0669H24.9872C25.001 20.9748 25.0262 20.8785 25.0559 20.7716L25.1855 20.3147H25.349L25.0557 21.2242H24.906L24.767 20.7903C24.7359 20.6886 24.7095 20.5985 24.6868 20.4914H24.6828C24.6608 20.5999 24.6321 20.6938 24.6001 20.7927L24.4542 21.2244H24.3035L24.0308 20.3149H24.1997V20.3145Z" fill="#EC1B2E"/>
<path d="M25.3979 21.1262C25.3979 21.0591 25.4457 21.0083 25.5111 21.0083C25.576 21.0083 25.621 21.0573 25.621 21.1262C25.621 21.1942 25.5758 21.2443 25.5074 21.2443C25.4433 21.2443 25.3979 21.1942 25.3979 21.1262Z" fill="#EC1B2E"/>
<path d="M26.4356 20.6734C26.4356 20.645 26.4334 20.6212 26.4262 20.5997C26.3956 20.5023 26.318 20.4238 26.1962 20.4238C26.0385 20.4238 25.9255 20.5569 25.9255 20.7671C25.9255 20.946 26.0173 21.0949 26.1938 21.0949C26.2966 21.0949 26.3888 21.0307 26.4222 20.9252C26.4316 20.897 26.4356 20.865 26.4356 20.8367V20.6734ZM26.6003 21.0903C26.6003 21.3015 26.5581 21.4274 26.4715 21.5079C26.3819 21.5893 26.2541 21.6173 26.1401 21.6173C26.0307 21.6173 25.9107 21.5909 25.8372 21.5423L25.8788 21.4142C25.9388 21.4542 26.0323 21.4878 26.1449 21.4878C26.3132 21.4878 26.4382 21.3994 26.4382 21.1688V21.0685H26.4338C26.3852 21.153 26.2852 21.22 26.1451 21.22C25.9203 21.22 25.7598 21.0295 25.7598 20.7767C25.7598 20.4694 25.9594 20.2959 26.1698 20.2959C26.3275 20.2959 26.4116 20.3772 26.4525 20.4522H26.4569L26.4627 20.3147H26.6084C26.6031 20.3786 26.6007 20.4536 26.6007 20.5625V21.0903H26.6003Z" fill="#EC1B2E"/>
<path d="M27.4455 20.6812C27.4471 20.5769 27.4018 20.4144 27.2164 20.4144C27.0479 20.4144 26.9764 20.5661 26.9638 20.6812H27.4455ZM26.9614 20.7993C26.9654 21.0237 27.1055 21.1154 27.2727 21.1154C27.391 21.1154 27.4643 21.0947 27.5236 21.0683L27.554 21.1862C27.4957 21.2128 27.3942 21.2441 27.2499 21.2441C26.9708 21.2441 26.8047 21.0591 26.8047 20.7843C26.8047 20.5099 26.9654 20.2957 27.2297 20.2957C27.5276 20.2957 27.6051 20.5543 27.6051 20.7223C27.6051 20.7563 27.6027 20.7803 27.5989 20.7991H26.9614V20.7993Z" fill="#EC1B2E"/>
<path d="M27.9105 20.7713C27.9105 20.9706 28.0227 21.1214 28.1842 21.1214C28.3419 21.1214 28.4597 20.9728 28.4597 20.7671C28.4597 20.6128 28.3825 20.4192 28.1874 20.4192C27.9946 20.4192 27.9105 20.5997 27.9105 20.7713ZM28.628 20.7617C28.628 21.0981 28.394 21.2443 28.1762 21.2443C27.9329 21.2443 27.7412 21.0643 27.7412 20.7767C27.7412 20.474 27.9423 20.2959 28.1918 20.2959C28.4525 20.2957 28.628 20.4848 28.628 20.7617Z" fill="#EC1B2E"/>
<path d="M28.8109 21.0573C28.8616 21.0869 28.9481 21.1216 29.0297 21.1216C29.1479 21.1216 29.2038 21.0629 29.2038 20.9853C29.2038 20.9064 29.1569 20.865 29.0369 20.8203C28.8724 20.7603 28.795 20.672 28.795 20.5623C28.795 20.416 28.9153 20.2957 29.1088 20.2957C29.2008 20.2957 29.2819 20.3207 29.3304 20.3526L29.2915 20.4725C29.2555 20.4504 29.1898 20.4174 29.105 20.4174C29.0074 20.4174 28.9551 20.4739 28.9551 20.5417C28.9551 20.617 29.0074 20.6506 29.1258 20.6974C29.2819 20.7563 29.3629 20.8351 29.3629 20.9703C29.3629 21.1324 29.2382 21.2439 29.0261 21.2439C28.9271 21.2439 28.8349 21.2182 28.771 21.1804L28.8109 21.0573Z" fill="#EC1B2E"/>
<path d="M29.7721 20.0961V20.3143H30.0092V20.441H29.7721V20.9312C29.7721 21.0438 29.8048 21.1073 29.897 21.1073C29.9421 21.1073 29.9679 21.1039 29.9919 21.0961L29.9998 21.222C29.9681 21.2332 29.9174 21.244 29.8535 21.244C29.7768 21.244 29.7146 21.2182 29.6754 21.1746C29.6301 21.1245 29.6117 21.0438 29.6117 20.9368V20.441H29.4712V20.3143H29.6117V20.1451L29.7721 20.0961Z" fill="#EC1B2E"/>
<path d="M30.6704 20.76C30.4911 20.7562 30.2865 20.7883 30.2865 20.9648C30.2865 21.0745 30.3576 21.1229 30.4402 21.1229C30.5604 21.1229 30.6375 21.0479 30.6634 20.9704C30.6686 20.9516 30.6704 20.933 30.6704 20.918V20.76ZM30.8305 21.0062C30.8305 21.0855 30.8345 21.162 30.8439 21.2238H30.6956L30.6824 21.1087H30.6768C30.6259 21.1806 30.5285 21.2438 30.3991 21.2438C30.215 21.2438 30.1216 21.1151 30.1216 20.9836C30.1216 20.763 30.3166 20.6425 30.6674 20.6449V20.6261C30.6674 20.5527 30.6472 20.416 30.4614 20.4174C30.3743 20.4174 30.2867 20.4424 30.2228 20.4848L30.1857 20.3745C30.2601 20.3277 30.3709 20.2955 30.4849 20.2955C30.7624 20.2955 30.8305 20.4848 30.8305 20.6652V21.0062Z" fill="#EC1B2E"/>
<path d="M31.285 20.0961V20.3143H31.5221V20.441H31.285V20.9312C31.285 21.0438 31.3179 21.1073 31.4089 21.1073C31.4542 21.1073 31.4798 21.1039 31.505 21.0961L31.5127 21.222C31.4798 21.2332 31.4299 21.244 31.3662 21.244C31.2897 21.244 31.2271 21.2182 31.1879 21.1746C31.1428 21.1245 31.124 21.0438 31.124 20.9368V20.441H30.9839V20.3143H31.124V20.1451L31.285 20.0961Z" fill="#EC1B2E"/>
<path d="M31.6611 21.1262C31.6611 21.0591 31.708 21.0083 31.7733 21.0083C31.839 21.0083 31.8841 21.0573 31.8841 21.1262C31.8841 21.1942 31.839 21.2443 31.7689 21.2443C31.7063 21.2443 31.6611 21.1942 31.6611 21.1262Z" fill="#EC1B2E"/>
<path d="M32.699 20.6734C32.699 20.645 32.6972 20.6212 32.6894 20.5997C32.66 20.5023 32.5804 20.4238 32.4584 20.4238C32.3011 20.4238 32.1885 20.5569 32.1885 20.7671C32.1885 20.946 32.2805 21.0949 32.4568 21.0949C32.5598 21.0949 32.6518 21.0307 32.6862 20.9252C32.6954 20.897 32.6986 20.865 32.6986 20.8367V20.6734H32.699ZM32.8641 21.0903C32.8641 21.3015 32.8205 21.4274 32.7347 21.5079C32.6445 21.5893 32.5165 21.6173 32.4025 21.6173C32.2941 21.6173 32.1739 21.5909 32.1004 21.5423L32.1418 21.4142C32.2021 21.4542 32.2957 21.4878 32.4081 21.4878C32.5772 21.4878 32.7004 21.3994 32.7004 21.1688V21.0685H32.6972C32.6483 21.153 32.5492 21.22 32.4081 21.22C32.1833 21.22 32.022 21.0295 32.022 20.7767C32.022 20.4694 32.2232 20.2959 32.4322 20.2959C32.59 20.2959 32.6748 20.3772 32.7161 20.4522H32.7193L32.7255 20.3147H32.8713C32.8661 20.3786 32.8643 20.4536 32.8643 20.5625V21.0903H32.8641Z" fill="#EC1B2E"/>
<path d="M33.7084 20.6812C33.7105 20.5769 33.6654 20.4144 33.48 20.4144C33.3105 20.4144 33.24 20.5661 33.2262 20.6812H33.7084ZM33.2246 20.7993C33.2286 21.0237 33.3698 21.1154 33.5357 21.1154C33.6536 21.1154 33.7269 21.0947 33.7868 21.0683L33.8174 21.1862C33.7595 21.2128 33.6582 21.2441 33.5133 21.2441C33.234 21.2441 33.0669 21.0591 33.0669 20.7843C33.0669 20.5099 33.2284 20.2957 33.4927 20.2957C33.7908 20.2957 33.8671 20.5543 33.8671 20.7223C33.8671 20.7563 33.8657 20.7803 33.8619 20.7991H33.2246V20.7993Z" fill="#EC1B2E"/>
<path d="M3.05354 11.2939H0V14.3518H3.05354V11.2939Z" fill="#929497"/>
<path d="M6.47639 6.0264H3.42285V14.3518H6.47639V6.0264Z" fill="#929497"/>
<path d="M9.89896 8.68246H6.84521V14.3516H9.89896V8.68246Z" fill="#929497"/>
<path d="M13.3218 0H10.2681V14.3516H13.3218V0Z" fill="#929497"/>
<path d="M16.7445 1.38373H13.6909V14.3516H16.7445V1.38373Z" fill="#929497"/>
<path d="M20.1668 2.25H17.1133V14.3518H20.1668V2.25Z" fill="#EC1B2E"/>
<path d="M23.5895 3.87823H20.5361V14.3515H23.5895V3.87823Z" fill="#EC1B2E"/>
<path d="M27.0123 7.48111H23.959V14.3516H27.0123V7.48111Z" fill="#EC1B2E"/>
<path d="M30.4349 1.97296H27.3813V14.3518H30.4349V1.97296Z" fill="#EC1B2E"/>
<path d="M33.8577 4.08621H30.8042V14.3517H33.8577V4.08621Z" fill="#EC1B2E"/>
<path d="M33.8603 14.5025L0.000976562 14.5057V14.0363L33.8603 14.0327V14.5025Z" fill="#808184"/>
</svg>
