<svg xmlns="http://www.w3.org/2000/svg" viewBox="0 0 300 300"><defs><style>.a{fill:#e8e8e8;}.b{fill:#ef8f86;}.c{fill:#007f49;}.d{fill:#ed9e95;}.e{fill:#64787f;}.f{fill:#596b73;}.g{fill:#0b1827;}.h{fill:#402312;}.i{fill:#fff;}.j{fill:#66b1e2;}.k{fill:#1a130f;}.l{fill:#120e0b;}.m{opacity:0.4;}.n{fill:#ea2127;}.o{fill:#c22126;}.p{fill:#404041;}.q{fill:#809298;}.r{fill:#008c49;}.s{fill:#cdcecc;}.t{fill:#603917;}</style></defs><title>graphic_7_helbred</title><path class="a" d="M97.32,156.26a6.82,6.82,0,0,1-3.6-12.61l16-9.91,11.5-26.07a6.82,6.82,0,0,1,12.47,5.5l-12.35,28a6.82,6.82,0,0,1-2.64,3l-17.74,11A6.79,6.79,0,0,1,97.32,156.26Z"/><path class="b" d="M99.14,140.29l-5.42,3.37a6.82,6.82,0,1,0,7.19,11.58l6.68-4.15A48.15,48.15,0,0,0,99.14,140.29Z"/><path class="c" d="M80.11,172.59a5.77,5.77,0,0,0,1.9-.75,6.7,6.7,0,0,0,2.1-8.94L72,141.14l-7-30.26a6.15,6.15,0,1,0-12,2.82l7.22,31.22a7,7,0,0,0,.7,1.82l12.59,22.62A6.19,6.19,0,0,0,80.11,172.59Z"/><path class="d" d="M82.13,172a5.58,5.58,0,0,1-2,.82,6.2,6.2,0,0,1-6.52-3.28l-11.25-20,10.86-6L84,162.67A7,7,0,0,1,82.13,172Z"/><polygon class="e" points="72.31 170.43 71.58 259.71 55.11 259.71 54.87 170.34 72.31 170.43"/><path class="e" d="M33.42,173.75a16.52,16.52,0,0,1-2.65-9v-3.84H73.84v3.84a16.52,16.52,0,0,1-2.65,9Z"/><polygon class="f" points="32.92 170.34 34.79 253.5 51.82 253.5 53.71 170.17 32.92 170.34"/><path class="e" d="M45.18,159.3H59.43a14.41,14.41,0,0,1,14.41,14.41v7.67a0,0,0,0,1,0,0H30.78a0,0,0,0,1,0,0v-7.67A14.41,14.41,0,0,1,45.18,159.3Z" transform="translate(104.62 340.68) rotate(-180)"/><path class="f" d="M43,167V159.3H30.78V167a14.41,14.41,0,0,0,14.41,14.41H57.44A14.41,14.41,0,0,1,43,167Z"/><rect class="a" x="141.82" y="174.86" width="12.27" height="15.42"/><rect class="g" x="153.4" y="171.38" width="15.82" height="83.06"/><rect class="g" x="128.33" y="171.38" width="15.82" height="82.21"/><path class="h" d="M117.82,266a10.66,10.66,0,0,1,10.5-10.66v-1.73h15.82V266H128.33v0h-10.5Z"/><path class="h" d="M83.12,265.89c0-5.84-5-10.57-11.18-10.66V253.5H55.11v12.41H71.94v0H83.12Z"/><path class="h" d="M169.33,253.59v1.74a10.78,10.78,0,0,1,3.46.71,10.64,10.64,0,0,1,6.93,9.94h-10.4v0H153.39V253.59Z"/><path class="g" d="M135.71,152.14v12.51a13.58,13.58,0,0,0,13.58,13.58H137.81a13.58,13.58,0,0,1-13.58-13.58V152.14Z"/><path class="g" d="M135.71,164.65V152.14h36.5v12.51a13.58,13.58,0,0,1-13.58,13.58H149.3A13.58,13.58,0,0,1,135.71,164.65Z"/><polygon class="i" points="139.26 158.24 156.62 158.4 156.62 92.73 139.26 92.73 139.26 158.24"/><polygon class="j" points="151.42 142.1 145.16 142.1 145.16 100.86 148.29 97.36 151.42 100.86 151.42 142.1"/><path class="d" d="M154.64,39.95a21.69,21.69,0,0,0-28.18,20.68V71.08a21.68,21.68,0,0,0,43.36,0V60.63A21.69,21.69,0,0,0,154.64,39.95Z"/><path class="b" d="M148.13,39a21.68,21.68,0,0,1,6.51,1c-.48,0-.95-.07-1.43-.07a20.06,20.06,0,0,0-20.06,20.06v11.4c0,11.08,9,17,20.06,17a20,20,0,0,0,12.13-4.11,21.66,21.66,0,0,1-38.88-13.15V60.63A21.67,21.67,0,0,1,148.13,39Z"/><path class="k" d="M151.42,66.15a1.46,1.46,0,0,1,.43.07,1.44,1.44,0,0,1,1,1.37v1.06a1.41,1.41,0,0,1-.3.87,1.43,1.43,0,0,1-1.14.57A1.44,1.44,0,0,1,150,68.66V67.59A1.45,1.45,0,0,1,151.42,66.15Z"/><path class="k" d="M133.72,66.31a1.42,1.42,0,0,1,.43.07,1.44,1.44,0,0,1,1,1.37v1.06a1.46,1.46,0,0,1-1.45,1.44,1.44,1.44,0,0,1-1.44-1.44V67.76A1.44,1.44,0,0,1,133.72,66.31Z"/><path class="l" d="M125.7,56.41s13.63,3.47,25.78-3,4.09-16,4.09-16a18.77,18.77,0,0,0-19.86-1C124.68,42.27,125.7,56.41,125.7,56.41Z"/><path class="l" d="M169.94,61.83a21.84,21.84,0,0,0-2.36-18c-5.68-9.27-12.91-5.68-12.91-5.68s-6.33,5.63-1.17,14S169.94,61.83,169.94,61.83Z"/><rect class="l" x="167.04" y="56.75" width="3.28" height="13.4"/><path class="d" d="M166.72,69a3.09,3.09,0,1,1,6.18,0v2.27a3.09,3.09,0,0,1-6.18,0Z"/><polygon class="a" points="139.55 181.66 139.76 95.98 123.37 104.82 123.37 193.83 139.55 181.66"/><polygon class="a" points="156.32 180.62 156.1 95.61 173.28 103.77 173.28 192.79 156.32 180.62"/><polygon class="b" points="143.03 94.25 148.29 97.36 153.4 94.25 153.4 90.52 142.76 90.52 143.03 94.25"/><path class="a" d="M198.94,157a6.79,6.79,0,0,1-3.46-.95l-16.85-10a6.81,6.81,0,0,1-2.85-3.32l-12.36-30.58a6.82,6.82,0,1,1,12.64-5.11l11.49,28.44,14.86,8.78A6.82,6.82,0,0,1,198.94,157Z"/><circle class="h" cx="252.46" cy="75.74" r="13.64" transform="translate(80.74 275.7) rotate(-66.04)"/><path class="d" d="M238.53,53.5c5,0,5.52,5.18,7.24,8.16a20.63,20.63,0,0,0,10.1,10.48v1a20.8,20.8,0,0,1-41.59,0V56.79a19.92,19.92,0,0,1,.29-3.29Z"/><path class="h" d="M235.07,36.48a21.12,21.12,0,0,1,9.11,2.07,20.25,20.25,0,0,1,11.68,18.23V72.14a20.63,20.63,0,0,1-10.1-10.48c-1.72-3-2.29-8.16-7.24-8.16h-24A20.65,20.65,0,0,1,235.07,36.48Z"/><path class="d" d="M221.11,72.77a4.09,4.09,0,0,1-1.71,8c-2.21-.47-7.61-3.5-7.14-5.71S218.91,72.3,221.11,72.77Z"/><path class="k" d="M215.49,67.45a1.31,1.31,0,0,0-1.3,1.31v1a1.28,1.28,0,0,0,.27.79,1.29,1.29,0,0,0,1,.52,1.31,1.31,0,0,0,1.31-1.31v-1A1.31,1.31,0,0,0,215.49,67.45Z"/><path class="k" d="M225.51,67.45a1.31,1.31,0,0,0-1.3,1.31v1a1.31,1.31,0,1,0,2.61,0v-1A1.31,1.31,0,0,0,225.51,67.45Z"/><path class="h" d="M210.2,56.13s2.09,5.67,10.94,5.14c13.28-.79,16-9.26,16-9.26L215.49,50.8Z"/><path class="h" d="M248.07,65V77a14.13,14.13,0,0,0,3.75,9.5,20.74,20.74,0,0,0,5-13.47V71.94A23.16,23.16,0,0,1,248.07,65Z"/><circle class="d" cx="248.07" cy="71.03" r="5.19"/><g class="m"><circle class="n" cx="239.02" cy="72.61" r="1" transform="translate(18.66 190.28) rotate(-45)"/></g><g class="m"><circle class="n" cx="226.08" cy="84.56" r="1" transform="translate(6.42 184.63) rotate(-45)"/></g><g class="m"><circle class="n" cx="242.88" cy="80.85" r="1" transform="translate(13.97 195.42) rotate(-45)"/></g><g class="m"><circle class="n" cx="239.97" cy="59.24" r="1" transform="translate(28.4 187.04) rotate(-45)"/></g><g class="m"><circle class="n" cx="233.99" cy="65.22" r="1" transform="translate(22.41 184.56) rotate(-45)"/></g><g class="m"><circle class="n" cx="232.54" cy="80.85" r="1" transform="translate(10.94 188.11) rotate(-45)"/></g><path class="g" d="M250.37,66.27H212.5a.43.43,0,0,1,0-.85h37.87a.43.43,0,0,1,0,.85Z"/><path class="g" d="M216.91,72.57h-2.52a2.32,2.32,0,0,1-2.32-2.32V65.84a.43.43,0,0,1,.43-.43h6.3a.43.43,0,0,1,.43.43v4.41A2.32,2.32,0,0,1,216.91,72.57Zm-4-6.3v4a1.47,1.47,0,0,0,1.47,1.47h2.52a1.47,1.47,0,0,0,1.47-1.47v-4Z"/><path class="g" d="M229,72.82h-4.24A2.85,2.85,0,0,1,221.93,70V66.09a.43.43,0,0,1,.43-.43h9.08a.43.43,0,0,1,.43.43V70A2.85,2.85,0,0,1,229,72.82Zm-6.23-6.3V70a2,2,0,0,0,2,2H229a2,2,0,0,0,2-2V66.52Z"/><rect class="d" x="233.99" y="87.87" width="8.06" height="12.48" rx="2.37" ry="2.37"/><g class="m"><circle class="n" cx="239.02" cy="88.87" r="1" transform="translate(7.16 195.04) rotate(-45)"/></g><path class="o" d="M215.47,172.78a7,7,0,0,1-2.23-.36,6.52,6.52,0,0,1-4.21-8.37l8.52-23.69,1.13-31a6.77,6.77,0,0,1,7-6.34,6.68,6.68,0,0,1,6.57,6.8l-1.16,32a6.35,6.35,0,0,1-.37,1.93l-8.85,24.63A6.81,6.81,0,0,1,215.47,172.78Z"/><path class="d" d="M213.13,172.55a6.81,6.81,0,0,0,8.74-4.06l8-21.79-13.12-3.82-7.65,20.92A6.81,6.81,0,0,0,213.13,172.55Z"/><polygon class="f" points="217.93 169.31 231.06 260.66 239.98 260.66 236.94 171.12 217.93 169.31"/><path class="e" d="M258,174.7a16.52,16.52,0,0,0,2.65-9v-3.84H217.53v3.84a16.52,16.52,0,0,0,2.65,9Z"/><polygon class="e" points="260.46 167.77 251.35 260.66 239.98 260.66 235.94 171.12 260.46 167.77"/><path class="e" d="M217.53,160.26H260.6a0,0,0,0,1,0,0v5.67a16.41,16.41,0,0,1-16.41,16.41H233.94a16.41,16.41,0,0,1-16.41-16.41v-5.67A0,0,0,0,1,217.53,160.26Z"/><path class="n" d="M268.86,140.56a7.7,7.7,0,0,0-.08-4.92l-10.2-28.44c-1.25-3.49-4.75-5.16-7.81-3.73s-4.53,5.4-3.28,8.89l9.32,26-2.68,8.36,11.53,3.82Z"/><g class="m"><circle class="n" cx="214.91" cy="153.01" r="1" transform="translate(-45.25 196.78) rotate(-45)"/></g><g class="m"><circle class="n" cx="213.83" cy="159.27" r="1" transform="translate(-49.99 197.85) rotate(-45)"/></g><path class="n" d="M242.72,95.81h-9.62a15.57,15.57,0,0,0-14.29,9.4l-.07-.17s-3.7,10-3.93,15a9.82,9.82,0,0,0-.06,1.06,9.69,9.69,0,0,0,2.78,6.8v32.38H260.6V113.69A17.88,17.88,0,0,0,242.72,95.81Z"/><path class="o" d="M218.26,120.26a9.82,9.82,0,0,1,.06-1.06c.23-5,3.58-15.08,3.58-15.08l.07.17c2.39-5.53,9.83-8.49,16.23-8.49h-5.09a15.57,15.57,0,0,0-14.29,9.4l-.07-.17s-3.7,10-3.93,15a9.82,9.82,0,0,0-.06,1.06,9.69,9.69,0,0,0,2.78,6.8v32.38h5.09V127.88C220.91,126.12,218.26,122.91,218.26,120.26Z"/><polygon class="o" points="255.01 143.98 254.13 146.71 265.66 150.53 266.53 147.8 255.01 143.98"/><rect class="o" x="232.3" y="94.19" width="11.29" height="2.41"/><rect class="o" x="217.53" y="157.92" width="32.51" height="3.55"/><path class="d" d="M251,176.37a5.32,5.32,0,0,0,2.06.42,6.08,6.08,0,0,0,5.63-4.48l7-21.79-11.53-3.82-6.72,20.92C246.28,171.17,247.88,175.08,251,176.37Z"/><g class="m"><circle class="n" cx="260.47" cy="155.23" r="1" transform="translate(-33.47 229.64) rotate(-45)"/></g><g class="m"><circle class="n" cx="256.11" cy="160.26" r="1" transform="translate(-38.31 228.03) rotate(-45)"/></g><g class="m"><circle class="n" cx="253.94" cy="168.29" r="1" transform="translate(-44.62 228.86) rotate(-45)"/></g><g class="m"><circle class="n" cx="256.11" cy="152.11" r="1" transform="translate(-32.55 225.65) rotate(-45)"/></g><path class="g" d="M217.34,263.14a9.13,9.13,0,1,1,18.26,0"/><rect class="g" x="226.35" y="254.01" width="15.16" height="9.1"/><rect class="p" x="217.39" y="262.97" width="24.12" height="2.91"/><path class="b" d="M240.5,254c0,2.41-2.6,4.37-5.8,4.37s-5.8-2-5.8-4.37"/><path class="g" d="M227.71,263.17a9.13,9.13,0,0,1,18.26,0"/><rect class="g" x="236.72" y="254.04" width="15.16" height="9.1"/><rect class="p" x="227.76" y="263" width="24.12" height="2.91"/><path class="d" d="M250.87,254c0,2.41-2.6,4.37-5.8,4.37s-5.8-2-5.8-4.37"/><rect class="e" x="229.45" y="250.68" width="13.32" height="3.33"/><rect class="q" x="239.37" y="250.68" width="13.32" height="3.33"/><path class="r" d="M30.78,94.85H73.84a0,0,0,0,1,0,0v52.07a19,19,0,0,1-19,19H47.52a16.74,16.74,0,0,1-16.74-16.74V94.85A0,0,0,0,1,30.78,94.85Z" transform="translate(104.62 260.82) rotate(-180)"/><path class="c" d="M59.51,95a16.78,16.78,0,0,0-2.41-.19H49.82a19,19,0,0,0-19,19V166H43V113.9A19,19,0,0,1,59.51,95Z"/><rect class="b" x="49.13" y="85.54" width="9.87" height="14.41" rx="2.85" ry="2.85" transform="translate(9.21 -4.79) rotate(5.54)"/><polygon class="b" points="51.08 99.13 58.03 102.97 58.66 96.48 51.08 99.13"/><path class="s" d="M57.85,102.95c.46.29,6,5.23,6,5.23l-1.16-7.94c-.16-1-.48-3.9-1.83-4.85l-1.93-1.46Z"/><path class="s" d="M49.22,91.56a26.94,26.94,0,0,1-2.9,3.62l-.11.86a10,10,0,0,0,1.6,5.9c2.1,3.25,8.4,8.13,8.4,8.13l2.22-7.1-5.52-3.24a7.51,7.51,0,0,1-3.71-5.22Z"/><path class="e" d="M50.39,35.53H57A13.47,13.47,0,0,1,70.47,49V71A13.47,13.47,0,0,1,57,84.48H45.61A13.47,13.47,0,0,1,32.13,71V53.79A18.26,18.26,0,0,1,50.39,35.53Z"/><path class="d" d="M52.85,52.54c-5,0-5.52,5.18-7.24,8.16a20.63,20.63,0,0,1-10.1,10.48v1a20.8,20.8,0,0,0,41.59,0V55.83a19.92,19.92,0,0,0-.29-3.29Z"/><path class="e" d="M56.31,35.53A21.12,21.12,0,0,0,47.2,37.6,20.25,20.25,0,0,0,35.51,55.83V71.19a20.63,20.63,0,0,0,10.1-10.48c1.72-3,2.29-8.16,7.24-8.16h24A20.65,20.65,0,0,0,56.31,35.53Z"/><path class="d" d="M78.61,77.43A4.09,4.09,0,0,0,72,72.58c-1.34,1.82-3.38,7.66-1.57,9S77.27,79.25,78.61,77.43Z"/><path class="k" d="M75.89,66.5a1.31,1.31,0,0,1,1.3,1.31v1a1.28,1.28,0,0,1-.27.79,1.29,1.29,0,0,1-1,.52,1.31,1.31,0,0,1-1.31-1.31v-1A1.31,1.31,0,0,1,75.89,66.5Z"/><path class="k" d="M65.87,66.5a1.31,1.31,0,0,1,1.3,1.31v1a1.31,1.31,0,1,1-2.61,0v-1A1.31,1.31,0,0,1,65.87,66.5Z"/><path class="e" d="M43.31,64.7a21.66,21.66,0,0,1-8.22,6.48v1a19,19,0,0,0,2,8.51,9.21,9.21,0,0,0,6.18-8.55Z"/><rect class="e" x="59.08" y="41.55" width="21.34" height="10.99" rx="5.38" ry="5.38"/><rect class="e" x="53.9" y="39.2" width="21.34" height="10.99" rx="5.38" ry="5.38"/><path class="d" d="M58.66,155.07A6.82,6.82,0,0,1,57,141.63l32.61-8a6.82,6.82,0,1,1,3.25,13.24l-32.61,8A6.88,6.88,0,0,1,58.66,155.07Z"/><path class="d" d="M58.66,155.07A6.82,6.82,0,0,1,57,141.63l32.61-8a6.82,6.82,0,1,1,3.25,13.24l-32.61,8A6.88,6.88,0,0,1,58.66,155.07Z"/><path class="r" d="M57.17,141.61l-.13,0a.27.27,0,0,1-.32-.18L47,110.33a6.82,6.82,0,0,0-13,4.07l9.74,31.11A13.74,13.74,0,0,0,59.56,155Z"/><path class="s" d="M62,154.44l30.61-7.52-2.59-13.36c-.14,0-.27,0-.41.06L59.44,141Z"/><polygon class="a" points="64.56 139.76 68 152.95 70.89 152.24 67.62 139.01 64.56 139.76"/><polygon class="a" points="81.14 135.74 84.58 148.93 87.47 148.22 84.19 134.99 81.14 135.74"/><polygon class="a" points="72.57 137.82 76.07 151.01 78.76 150.35 75.98 136.99 72.57 137.82"/><rect class="t" x="30.78" y="161.56" width="43.07" height="4.41"/><path class="t" d="M62.8,265.89c0-5.84-5-10.57-11.18-10.66V253.5H34.79v12.41H51.62v0H62.8Z"/><path class="g" d="M160.64,124.24l-1.41-.68c0-.06.83-1.92,1.72-9.95,1.34-12.06-4-17.54-4.85-18V93.9c1.25.29,7.87,6.59,6.4,19.88C161.58,122.1,160.73,124,160.64,124.24Z"/><circle class="e" cx="160.02" cy="123.78" r="2.9" transform="translate(2.88 251.21) rotate(-76.76)"/><path class="g" d="M137.27,109.24c-2.33-7-2.06-10.4-.27-12.49a7.7,7.7,0,0,1,2.76-2.25V96a21.68,21.68,0,0,0-1.63,1.64c-.82.88-2,3.9.63,11.13Z"/><path class="g" d="M138.81,125.59c-.48-1.21-4.62-11.95-2.56-16.09a3,3,0,0,1,1.9-1.63,3.36,3.36,0,0,1,2.72.41c4.11,2.45,6.58,13.27,6.69,13.72l-1.52.34c-.66-2.95-3-11-6-12.73a1.85,1.85,0,0,0-1.5-.25,1.43,1.43,0,0,0-.92.82c-1.48,3,1.39,11.72,2.62,14.83Z"/><circle class="e" cx="139.39" cy="125.08" r="1.26"/><circle class="e" cx="146.82" cy="122.31" r="1.26"/><path class="d" d="M204.81,153.67a6.82,6.82,0,0,0-2.4-9.34l-5.46-3.23a33.57,33.57,0,0,0-3.55,6.55A29.24,29.24,0,0,0,192,154l3.48,2.06a6.81,6.81,0,0,0,9.34-2.4Z"/><path class="i" d="M136.57,79.51H149a5.88,5.88,0,0,1-6.19,4.71C138.35,84.23,136.57,79.51,136.57,79.51Z"/><path class="f" d="M224.27,167.45v-5.79h-6.74v5.19c0,8.72,7.77,15.78,17.36,15.78h2.05C229.64,180.77,224.27,174.68,224.27,167.45Z"/><path class="b" d="M46.6,84.22c-3.63-4-4.77-11-4.94-17.53a20.84,20.84,0,0,1-6.16,4.49v1A20.55,20.55,0,0,0,56.31,92.5a21.17,21.17,0,0,0,7-1.21A21.9,21.9,0,0,1,46.6,84.22Z"/><path class="d" d="M37.48,70.92c0,3.61,2.33,6.54,5.19,6.54s5.19-2.93,5.19-6.54-2.32-6.54-5.19-6.54S37.48,67.31,37.48,70.92Z"/></svg>