<?xml version="1.0" encoding="utf-8"?>
<!-- Generator: Adobe Illustrator 24.3.0, SVG Export Plug-In . SVG Version: 6.00 Build 0)  -->
<svg version="1.1" id="Flat" xmlns="http://www.w3.org/2000/svg" xmlns:xlink="http://www.w3.org/1999/xlink" x="0px" y="0px"
	 viewBox="0 0 476.7 512" style="enable-background:new 0 0 476.7 512;" xml:space="preserve">
<style type="text/css">
	.st0{fill:#31CAD0;}
	.st1{fill:#D6F4F6;}
	.st2{fill:#F7FDFD;}
	.st3{fill:#FDBF44;}
	.st4{fill:#FFFCF8;}
	.st5{fill:#E64B30;}
	.st6{fill:#FFFCFC;}
	.st7{fill:#CC432B;}
	.st8{fill:#CC9A37;}
</style>
<g>
	<path class="st0" d="M117,0h348.7c6.1,0,11,4.9,11,11V501c0,6.1-4.9,11-11,11H117c-6.1,0-11-4.9-11-11V11C105.9,4.9,110.9,0,117,0z
		"/>
	<path class="st1" d="M141.2,44.1h300.1v423.7H141.2V44.1z"/>
	<g>
		<circle class="st0" cx="291.3" cy="158.9" r="53"/>
		<path class="st2" d="M317.8,150.1h-17.7v-17.7h-17.7v17.7h-17.7v17.7h17.7v17.7h17.7v-17.7h17.7V150.1z"/>
	</g>
	<g>
		<path class="st0" d="M220.7,256h132.4v17.7H220.7V256z"/>
		<path class="st0" d="M370.8,256h44.1v17.7h-44.1V256z"/>
		<path class="st0" d="M238.3,344.3h114.8v17.7H238.3V344.3z"/>
		<path class="st0" d="M370.8,344.3h44.1v17.7h-44.1V344.3z"/>
		<path class="st0" d="M220.7,300.1h53v17.7h-53V300.1z"/>
		<path class="st0" d="M291.3,300.1h123.6v17.7H291.3V300.1z"/>
	</g>
	<path class="st3" d="M194.2,0h194.2l0,0v59.6c0,6.1-4.9,11-11,11H205.2c-6.1,0-11-4.9-11-11V0L194.2,0z"/>
	<path class="st4" d="M220.7,26.5h17.7v17.7h-17.7V26.5z"/>
	<path class="st4" d="M344.3,26.5h17.7v17.7h-17.7V26.5z"/>
	<path class="st4" d="M256,26.5h70.6v17.7H256V26.5z"/>
	<path class="st0" d="M291.3,388.4h123.6v17.7H291.3V388.4z"/>
</g>
<g>
	<path class="st5" d="M183.2,512H11c-6.1,0-11-4.9-11-11V317.8l17.7-17.7V256h158.9v44.1l17.7,17.7V501
		C194.2,507.1,189.3,512,183.2,512z"/>
	<path class="st6" d="M150.1,388.4h-35.3v-35.3H79.4v35.3H44.1v35.3h35.3V459h35.3v-35.3h35.3V388.4z"/>
	<path class="st7" d="M17.7,282.5h123.6v17.7H17.7V282.5z"/>
	<path class="st3" d="M11,194.2h172.1c6.1,0,11,4.9,11,11v48.6c0,6.1-4.9,11-11,11H11c-6.1,0-11-4.9-11-11v-48.6
		C0,199.1,4.9,194.2,11,194.2z"/>
</g>
<g>
	<circle class="st3" cx="229.5" cy="459" r="53"/>
	<path class="st8" d="M193.2,420.5l57.9,86.9c5.4-2.4,10.4-5.7,14.7-9.8l-57.9-86.9C202.5,413.1,197.5,416.4,193.2,420.5
		L193.2,420.5z"/>
</g>
</svg>
