<svg xmlns="http://www.w3.org/2000/svg" viewBox="0 0 100 100"><defs><style>.a{fill:none;stroke:#c17f7d;stroke-miterlimit:10;}.b,.d{fill:#c17f7d;}.c{fill:#ed9e95;}.d{opacity:0.21;}.e{fill:#402312;}.f{fill:#f5923d;}.g{fill:#f27921;}</style></defs><title>icon_6_indkomst</title><path class="a" d="M10.52,40.46S3.72,33.09,1,36.79s7.51,5.78,6.41-6.32"/><path class="b" d="M27,73.16l4.71,13.75a.86.86,0,0,0,.81.58h4.93a.86.86,0,0,0,.86-.86V72.88a.86.86,0,0,0-.86-.86H27.82A.86.86,0,0,0,27,73.16Z"/><path class="c" d="M17,73.16l4.71,13.75a.86.86,0,0,0,.81.58h4.93a.86.86,0,0,0,.86-.86V72.88a.86.86,0,0,0-.86-.86H17.82A.86.86,0,0,0,17,73.16Z"/><path class="b" d="M64.19,73.38,68.9,87.13a.86.86,0,0,0,.81.58h4.93a.86.86,0,0,0,.86-.86V73.1a.86.86,0,0,0-.86-.86H65A.86.86,0,0,0,64.19,73.38Z"/><path class="c" d="M54.18,73.38,58.9,87.13a.86.86,0,0,0,.81.58h4.93a.86.86,0,0,0,.86-.86V73.1a.86.86,0,0,0-.86-.86H55A.86.86,0,0,0,54.18,73.38Z"/><path class="d" d="M17,73.16l4.71,13.75a.86.86,0,0,0,.81.58h4.93a.86.86,0,0,0,.86-.86V72.88a.86.86,0,0,0-.86-.86H17.82A.86.86,0,0,0,17,73.16Z"/><path class="d" d="M54.18,73.38,58.9,87.13a.86.86,0,0,0,.81.58h4.93a.86.86,0,0,0,.86-.86V73.1a.86.86,0,0,0-.86-.86H55A.86.86,0,0,0,54.18,73.38Z"/><path class="b" d="M65.72,40.89S66.94,36,72.2,31.06C76.63,26.86,87,24.31,87,24.31s2.85,10.95-2.33,19c-5.31,8.27-6.5,5.87-6.5,5.87Z"/><path class="c" d="M98.55,57.4c-2.72-.39-8-1.54-10.3-4.67a47,47,0,0,1-4.36-7.84,24.84,24.84,0,0,0-2.09-5l0-.07h0A25,25,0,0,0,59.94,27.07H30.56a25,25,0,0,0-25,25h0a25,25,0,0,0,25,25H59.94c.59,0,1.16,0,1.74-.09a101.89,101.89,0,0,0,17.39-1.64A105.52,105.52,0,0,0,96.72,69.9a1.5,1.5,0,0,0,.9-1l2.26-9.7A1.49,1.49,0,0,0,98.55,57.4Z"/><path class="d" d="M99.52,57.93l-1.9,8.15a1.5,1.5,0,0,1-.9,1,105.52,105.52,0,0,1-17.64,5.44,101.89,101.89,0,0,1-17.39,1.64c-.58,0-1.15.09-1.74.09H30.56A25,25,0,0,1,5.62,50.67c0,.46-.07.92-.07,1.4h0a25,25,0,0,0,25,25H59.94c.59,0,1.16,0,1.74-.09a101.89,101.89,0,0,0,17.39-1.64A105.52,105.52,0,0,0,96.72,69.9a1.5,1.5,0,0,0,.9-1l2.26-9.7A1.36,1.36,0,0,0,99.52,57.93Z"/><path class="c" d="M60.27,40.66s1.23-4.85,6.49-9.83c4.43-4.19,14.79-6.75,14.79-6.75s2.85,10.95-2.33,19c-5.31,8.27-6.5,5.87-6.5,5.87Z"/><rect class="e" x="28.65" y="30.47" width="30.02" height="1.74"/><path class="f" d="M32,32.2a13.38,13.38,0,1,1,23.35,0"/><path class="g" d="M43.66,16.16c5.69,0,10.34,3.93,10.72,8.89,0-.17,0-.33,0-.5,0-5.26-4.81-9.53-10.75-9.53s-10.75,4.27-10.75,9.53c0,.17,0,.33,0,.5C33.32,20.08,38,16.16,43.66,16.16Z"/><path class="g" d="M56.32,29.92H31a13.33,13.33,0,0,0,1,2.28H55.34A13.34,13.34,0,0,0,56.32,29.92Z"/></svg>