<svg xmlns="http://www.w3.org/2000/svg" viewBox="0 0 100 100"><defs><style>.a{fill:#1ba2dc;}.b{fill:#64787f;}.c{fill:#0b1827;opacity:0.32;}.d{fill:#cdcecc;}.e,.f,.g{fill:#809298;}.e{opacity:0.19;}.g{opacity:0.2;}</style></defs><title>icon_1_demokrati</title><circle class="a" cx="40.28" cy="63.91" r="5.44"/><path class="b" d="M26.59,61l5.54,27a2.38,2.38,0,0,0,2.23,2H38a2.48,2.48,0,0,0,2.29-2.64V61Z"/><polygon class="c" points="27.55 65.65 40.28 66.83 40.28 60.95 26.59 60.95 27.55 65.65"/><circle class="a" cx="17.56" cy="43.87" r="5.44"/><path class="d" d="M82,12.34A83.75,83.75,0,0,1,44.39,23.47L22.13,24.7c-2.66.15-4.74,2-4.74,4.3V58.42c0,2.27,2.07,4.15,4.74,4.3l22.26,1.23A83.75,83.75,0,0,1,82,75.07l.68.4V11.94Z"/><path class="e" d="M44.39,58.67,22.13,57.44c-2.66-.15-4.74-2-4.74-4.3v5.28c0,2.27,2.07,4.15,4.74,4.3l22.26,1.23A83.75,83.75,0,0,1,82,75.07l.68.4V70.2l-.68-.4A83.75,83.75,0,0,0,44.39,58.67Z"/><rect class="f" x="80.69" y="10.01" width="7.2" height="66.36" rx="3.6" ry="3.6"/><path class="g" d="M35.33,24l-13.2.73c-2.66.15-4.74,2-4.74,4.3V58.42c0,2.27,2.07,4.15,4.74,4.3l13.2.73Z"/><path class="b" d="M84.29,76.36a3.6,3.6,0,0,0,3.6-3.6V69h-7.2v3.74A3.6,3.6,0,0,0,84.29,76.36Z"/></svg>