<svg xmlns="http://www.w3.org/2000/svg" viewBox="0 0 100 100"><defs><style>.a{fill:#64787f;}.b{fill:#809298;}.c{fill:#f5923d;}.d{fill:#f06a24;}.e{fill:#fff;}</style></defs><title>icon_4_arbejde</title><path class="a" d="M29.34,32.39l.32.32c-3.13,3.17-12.4-.9-9.23,2.23L68.8,82.75a8.07,8.07,0,0,0,11.42-.08c3.13-3.18,2.49-4.26,3.21-7L31.77,23.45C28.59,20.32,32.47,29.22,29.34,32.39ZM77,79.5a3.12,3.12,0,1,1,0-4.42A3.12,3.12,0,0,1,77,79.5Z"/><path class="a" d="M19.73,13.08l8.4,8-.72,17.48L10.66,21.23,9.8,23.44A14.05,14.05,0,0,0,33.5,36.5C39,31,28.19,12.58,20.59,10.94,20.59,10.94,20.68,11.23,19.73,13.08Z"/><path class="b" d="M30.2,30.18l.32.32c-3.13,3.18-12.41-.89-9.23,2.24L69.66,80.54A8.08,8.08,0,0,0,81,69L32.63,21.24C29.45,18.1,33.32,27,30.2,30.18ZM77.87,77.29a3.13,3.13,0,1,1,0-4.42A3.12,3.12,0,0,1,77.87,77.29Z"/><path class="b" d="M20.59,10.87l7.78,7.68-2.09,8-8,2.2-7.63-7.52a14.06,14.06,0,1,0,9.93-10.36Z"/><polygon class="c" points="17.13 85.47 77.75 25.38 80.62 27.2 20.55 86.75 17.13 85.47"/><rect class="d" x="3.28" y="51.83" width="85.35" height="4.21" transform="translate(-24.65 47.99) rotate(-44.75)"/><polygon class="c" points="12.9 79.04 72.97 19.49 74.79 22.4 14.17 82.48 12.9 79.04"/><path class="e" d="M80.7,27.13l4.56-9.91a4.34,4.34,0,0,1-1.58-1,4.26,4.26,0,0,1-.76-1L73,19.41l1.78,3.37,2.64,2.67Z"/><path class="b" d="M85.25,17.22l1.85-4-4.2,1.91a4.26,4.26,0,0,0,.76,1A4.34,4.34,0,0,0,85.25,17.22Z"/></svg>