<?xml version="1.0" encoding="UTF-8"?>
<!DOCTYPE svg PUBLIC "-//W3C//DTD SVG 1.1//EN" "http://www.w3.org/Graphics/SVG/1.1/DTD/svg11.dtd">
<!-- Creator: CorelDRAW X7 -->
<svg xmlns="http://www.w3.org/2000/svg" xml:space="preserve" width="8.50299in" height="7.22259in" version="1.1" style="shape-rendering:geometricPrecision; text-rendering:geometricPrecision; image-rendering:optimizeQuality; fill-rule:evenodd; clip-rule:evenodd"
viewBox="0 0 8503 7223"
 xmlns:xlink="http://www.w3.org/1999/xlink">
 <defs>
  <style type="text/css">
   <![CDATA[
    .str0 {stroke:#0C8CBE;stroke-width:3}
    .fil0 {fill:#0C8CBE}
   ]]>
  </style>
 </defs>
 <g id="Layer_x0020_1">
  <metadata id="CorelCorpID_0Corel-Layer"/>
  <g id="_2936448491072">
   <g id="Layer_5_10_">
    <g>
     <g>
      <path class="fil0 str0" d="M4481 3723c0,55 -44,99 -98,99l-2175 0c-54,0 -99,-44 -99,-99l0 -202c0,-54 44,-98 99,-98l2175 0c54,0 98,44 98,98l0 202z"/>
      <path class="fil0 str0" d="M7553 3723c0,55 -44,99 -98,99l-2176 0c-54,0 -98,-44 -98,-99l0 -202c0,-54 44,-98 98,-98l2176 0c54,0 98,44 98,98l0 202z"/>
      <path class="fil0 str0" d="M4481 4808c0,54 -44,98 -98,98l-2175 0c-54,0 -99,-44 -99,-98l0 -202c0,-54 44,-99 99,-99l2175 0c54,0 98,45 98,99l0 202z"/>
      <path class="fil0 str0" d="M7553 4808c0,54 -44,98 -98,98l-2176 0c-54,0 -98,-44 -98,-98l0 -202c0,-54 44,-99 98,-99l2176 0c54,0 98,45 98,99l0 202z"/>
      <path class="fil0 str0" d="M4481 5892c0,54 -44,98 -98,98l-2175 0c-54,0 -99,-44 -99,-98l0 -202c0,-54 44,-98 99,-98l2175 0c54,0 98,44 98,98l0 202z"/>
      <path class="fil0 str0" d="M7553 5892c0,54 -44,98 -98,98l-2176 0c-54,0 -98,-44 -98,-98l0 -202c0,-54 44,-98 98,-98l2176 0c54,0 98,44 98,98l0 202z"/>
     </g>
     <path class="fil0 str0" d="M12 1801l1137 4994c24,110 64,185 121,226 87,121 230,200 390,200l6360 0c265,0 481,-216 481,-482l0 -6255c0,-266 -216,-482 -481,-482l-6360 0c-266,0 -482,216 -482,482 0,0 -71,3187 0,4259 10,156 -29,227 -31,218 -203,-761 -786,-3234 -786,-3234 -6,-25 -2,-47 9,-60 11,-14 31,-21 57,-21l278 0c0,0 104,1 104,-83 0,-48 0,-144 0,-191 0,-85 -104,-83 -104,-83l-278 0c-134,0 -256,56 -335,153 -79,98 -108,229 -80,359zm1523 -1317c0,-68 57,-126 125,-126l6360 0c67,0 125,58 125,126l0 6255c0,69 -57,125 -125,125l-6360 0c-69,0 -125,-56 -125,-125l0 -6255z"/>
     <path class="fil0 str0" d="M7519 926l-5375 0c-49,0 -88,40 -88,88l0 1689c0,48 39,88 88,88l5375 0c48,0 88,-40 88,-88l0 -1689c0,-48 -40,-88 -88,-88zm-3739 1423c0,45 -37,81 -81,81l-35 0c-39,0 -84,-25 -105,-58l-288 -461c-16,-25 -41,-66 -57,-92 -3,-6 -59,-95 -115,-199 -4,-12 -10,-7 -10,1 3,79 6,205 6,317l0 411c0,45 -36,81 -80,81l-25 0c-45,0 -81,-36 -81,-81l0 -980c0,-44 36,-80 81,-80l46 0c39,0 84,24 105,58l291 459c16,25 41,67 57,92 3,6 55,95 105,186 3,6 10,11 9,-1 -4,-79 -10,-200 -10,-312l0 -402c0,-44 37,-80 81,-80l25 0c44,0 80,36 80,80l0 980 1 0zm856 0c0,45 -36,81 -80,81l-504 0c-45,0 -81,-36 -81,-81l0 -980c0,-44 36,-80 81,-80l480 0c44,0 80,36 80,80l0 10c0,45 -36,81 -80,81l-340 0c-15,0 -27,12 -27,27l0 236c0,15 12,27 27,27l315 0c45,0 81,36 81,81l0 8c0,45 -36,81 -81,81l-315 0c-15,0 -27,12 -27,27l0 285c0,14 12,26 27,26l364 0c44,0 80,37 80,81l0 10 0 0zm1411 -974l-279 984c-11,40 -52,71 -94,71l-39 0c-42,0 -83,-32 -93,-73l-112 -462c-7,-29 -18,-76 -24,-105 -2,-5 -20,-87 -37,-173 -14,60 -35,147 -57,227l-141 514c-11,41 -52,72 -94,72l-39 0c-42,0 -83,-32 -93,-72l-250 -984c-5,-22 -1,-43 11,-60 13,-16 33,-25 56,-25l41 0c42,0 82,32 92,73l104 445c7,29 18,76 25,105 0,2 15,68 37,168 8,29 14,11 18,-5 15,-64 35,-147 53,-218l132 -496c10,-41 51,-72 93,-72l40 0c42,0 82,32 92,72l107 448c7,29 18,76 25,105 1,5 19,83 37,169 2,9 4,25 10,7 15,-68 34,-150 55,-232l130 -497c10,-41 52,-72 93,-72l36 0c23,0 43,9 55,25 13,17 17,39 10,61zm347 1071c-108,0 -232,-49 -237,-51 -40,-16 -63,-63 -50,-104 0,0 17,-65 25,-86 5,-10 15,-8 15,-8l20 12c68,42 157,67 237,67 124,0 201,-61 201,-159 0,-75 -31,-130 -188,-191 -207,-73 -304,-179 -304,-333 0,-190 155,-322 378,-322 134,0 217,35 254,57l7 3c0,0 12,9 8,21 -7,18 -24,71 -24,71 -11,31 -38,51 -70,51 -11,0 -23,-2 -33,-7 -1,-1 -56,-26 -147,-26 -131,0 -178,73 -178,136 0,81 49,126 199,185 207,79 295,182 295,344 0,157 -107,340 -408,340z"/>
    </g>
   </g>
  </g>
  <g id="_2936448492160">
  </g>
  <g id="_2936448494944">
  </g>
  <g id="_2936448494240">
  </g>
  <g id="_2936448495424">
  </g>
  <g id="_2936448495520">
  </g>
  <g id="_2936448495776">
  </g>
  <g id="_2936448494496">
  </g>
  <g id="_2936448494912">
  </g>
  <g id="_2936448497952">
  </g>
  <g id="_2936448496896">
  </g>
  <g id="_2936448496992">
  </g>
  <g id="_2936448496928">
  </g>
  <g id="_2936448497600">
  </g>
  <g id="_2936448497760">
  </g>
  <g id="_2936448496064">
  </g>
 </g>
</svg>
