<svg xmlns="http://www.w3.org/2000/svg" viewBox="0 0 300 300"><defs><style>.a{fill:#f27921;}.b{fill:#cdcecc;}.c{fill:#e8e8e8;}.d{fill:#f5923d;}.e{fill:#0b1827;}.f{fill:#ea2127;}.g{fill:#c22126;}.h{fill:#ed9e95;}.i{fill:#ef8f86;}.j{fill:#402312;}.k{fill:#603917;}.l{fill:#1a130f;}.m{fill:#120e0b;}.n{fill:#008c49;}.o{fill:#007f49;}.p{fill:#fff;}.q{fill:#e06d26;}.r{fill:#809298;}</style></defs><title>graphic_9_kultur</title><polygon class="a" points="119.01 137.66 153.68 277.98 160.04 277.98 124.85 137.6 119.01 137.66"/><rect class="b" x="90.28" y="50.57" width="67.38" height="113.91"/><rect class="c" x="90.28" y="50.57" width="64.53" height="113.91"/><rect class="c" x="90.28" y="50.57" width="64.53" height="113.91"/><rect class="d" x="118.43" y="21.48" width="11.79" height="29.03"/><rect class="a" x="130.22" y="21.48" width="1.87" height="29.03"/><rect class="d" x="111.88" y="47.14" width="21.92" height="7.88"/><rect class="a" x="133.81" y="47.14" width="2.11" height="7.88"/><rect class="a" x="135.92" y="47.14" width="1.89" height="3.37"/><circle class="e" cx="263.5" cy="103.49" r="25.27"/><path class="f" d="M285.51,123c-4.08-5.72-14-15.24-34.24-14.76-18.57.45-26.72,7.39-33.27,13-3,2.53-5.24,4.44-8,5.48h0c1,3.51,2.2,7.72,2.88,10.18,4.94-1.64,8.52-4.66,12-7.62.79-.67,1.58-1.35,2.4-2l6.32,45.86,37.72-.55L275.9,128c.34.4.7.78,1,1.21,3.46,4.86,4.59,11,2.87,15.61a5.28,5.28,0,1,0,9.9,3.68C292.63,140.52,291,130.78,285.51,123Z"/><path class="g" d="M233.56,122.88a113.3,113.3,0,0,1,.53-11.7c-7.37,2.63-12,6.61-16.1,10.06-3,2.53-5.24,4.44-8,5.48h0c1,3.51,2.2,7.72,2.88,10.18,4.94-1.64,8.52-4.66,12-7.62.79-.67,1.58-1.35,2.4-2l6.32,45.86,6.74-.1C238.19,162.87,233.74,139.58,233.56,122.88Z"/><rect class="a" x="105.8" y="212.72" width="38.93" height="5.6"/><polygon class="a" points="98.12 277.94 120.63 171.27 113.66 170.4 90.97 277.94 98.12 277.94"/><polygon class="a" points="157.33 277.94 134.82 171.27 141.79 170.4 164.48 277.94 157.33 277.94"/><path class="h" d="M210,126.72a13.52,13.52,0,0,1-3.94.84c-10.79.7-17.88-11.16-18-11.33a5.28,5.28,0,0,0-9.14,5.28c.42.72,10.38,17.69,27.78,16.59a24.15,24.15,0,0,0,6.16-1.19C212.17,134.44,211,130.23,210,126.72Z"/><path class="f" d="M212.85,136.9c-.33.11-.68.21-1,.31C212.18,137.11,212.52,137,212.85,136.9Z"/><path class="f" d="M209.9,137.68l-.57.09Z"/><path class="f" d="M208.23,127.24l-.17,0Z"/><path class="h" d="M249.46,172.58h21.82c0,5-8.05,64.85-8.05,64.85l-3.95,31.85-7.81.58"/><path class="i" d="M251.7,269.07l-2.47.21h-4.31l-5.27-40.44s-8.2-47-8.8-50.13a10.68,10.68,0,0,1,.31-5.48l14.35-.66h4"/><path class="j" d="M238.47,277.78a7.57,7.57,0,1,1,15.12,0"/><polyline class="j" points="244.04 267.06 244.04 269 242.09 273.56 254.84 273.56 254.84 267.06"/><path class="k" d="M260.87,271.68a10.21,10.21,0,0,0-5.71-1.89c-4.83,0-8.75,3.58-8.75,8h14.46"/><polyline class="k" points="251.7 267.06 251.7 269.07 250.33 273.79 260.87 273.79 260.87 267.06"/><path class="e" d="M224.81,219.48H278.1s6.09-60.81-25.4-60.81S224.81,219.48,224.81,219.48Z"/><rect class="e" x="47.13" y="191.77" width="14.77" height="76.09"/><rect class="l" x="23.71" y="191.77" width="14.77" height="76.09"/><path class="m" d="M48.29,278.5a10,10,0,0,0-9.81-10v-1.61H23.71v11.59H38.48v0h9.81Z"/><path class="m" d="M62,266.93v1.62a10.07,10.07,0,0,1,3.24.66,9.94,9.94,0,0,1,6.47,9.28H62v0H47.12V266.93Z"/><path class="l" d="M30.61,173.81v11.68A12.69,12.69,0,0,0,43.3,198.17H32.57a12.69,12.69,0,0,1-12.69-12.69V173.81Z"/><path class="e" d="M30.61,185.49V173.81H64.7v11.68A12.69,12.69,0,0,1,52,198.17H43.3A12.69,12.69,0,0,1,30.61,185.49Z"/><path class="h" d="M62.46,73.33a22.12,22.12,0,0,0-44.22,1.16l.32,12.1a22.12,22.12,0,0,0,44.22-1.16Z"/><path class="i" d="M25.29,57.73A22,22,0,0,0,22,69.87L22.34,82A22.09,22.09,0,0,0,59.5,97.57a22.11,22.11,0,0,1-41-11l-.32-12.09A22,22,0,0,1,25.29,57.73Z"/><path class="b" d="M42.93,109.66a34.16,34.16,0,0,1,7.25.79V176.6a34.2,34.2,0,0,1-7.25.79,33.75,33.75,0,0,1-10.19-1.57V111.23A33.77,33.77,0,0,1,42.93,109.66Z"/><path class="n" d="M67.82,166.49V195H50.18V110.45a33.86,33.86,0,0,1,17.63,10.11"/><path class="o" d="M32.74,111.23V195H15.6V152.48l-6.54.28v-9.24A33.87,33.87,0,0,1,32.74,111.23Z"/><polyline class="i" points="48.97 103.54 48.97 110.64 41.37 121.81 34.7 110.79 34.7 103.25"/><path class="l" d="M53.15,80.06a1.24,1.24,0,0,1,.38,0,1.27,1.27,0,0,1,1,1.16l.05.94a1.28,1.28,0,0,1-1.2,1.34A1.28,1.28,0,0,1,52,82.34l-.05-.94A1.28,1.28,0,0,1,53.15,80.06Z"/><path class="l" d="M35.27,80.45a1.24,1.24,0,0,1,.38,0,1.27,1.27,0,0,1,1,1.16l.05.94a1.28,1.28,0,0,1-1.2,1.34,1.28,1.28,0,0,1-1.34-1.2l-.05-.94A1.28,1.28,0,0,1,35.27,80.45Z"/><path class="m" d="M19.52,84.63,22,88.09h2.25L23,70.78,61.9,66.67S54.81,46.1,34.7,50.1C7.56,55.49,16.4,85.41,16.4,85.41"/><circle class="i" cx="19.3" cy="89.27" r="5.23" transform="translate(-39.07 19.03) rotate(-27.53)"/><rect class="m" x="42.18" y="60.29" width="22.81" height="9.55" rx="4.67" ry="4.67" transform="translate(-5.89 5.33) rotate(-5.4)"/><rect class="m" x="39.14" y="56.41" width="22.81" height="6.3" rx="3.08" ry="3.08" transform="translate(-5.38 5.02) rotate(-5.4)"/><path class="p" d="M36.49,94a9,9,0,0,0,15.56,0Z"/><path class="n" d="M80.72,142.48a6.15,6.15,0,0,1-3.49-1.08L58.41,128.48a6.16,6.16,0,0,1,7-10.15l15,10.33,23.25-18.73a6.16,6.16,0,0,1,7.73,9.59L84.59,141.12A6.15,6.15,0,0,1,80.72,142.48Z"/><rect class="d" x="86.4" y="163.95" width="72.85" height="5.54"/><polygon class="d" points="155.26 277.94 132.75 171.27 139.72 170.4 162.41 277.94 155.26 277.94"/><polygon class="d" points="96 277.94 118.51 171.27 111.54 170.4 88.85 277.94 96 277.94"/><rect class="a" x="83.29" y="169.49" width="79.06" height="5.54"/><rect class="a" x="264.1" y="163.08" width="0.43" height="0.43"/><rect class="j" x="169.44" y="104.94" width="2.03" height="1.13" transform="translate(-24.73 151.22) rotate(-44.94)"/><rect class="j" x="172.55" y="108.06" width="2.03" height="1.13" transform="translate(-26.02 154.33) rotate(-44.94)"/><rect class="j" x="175.99" y="111.51" width="2.03" height="1.13" transform="translate(-27.45 157.77) rotate(-44.94)"/><rect class="j" x="178.01" y="96.05" width="2.03" height="1.13" transform="translate(-15.94 154.68) rotate(-44.94)"/><rect class="j" x="181.12" y="99.17" width="2.03" height="1.13" transform="translate(-17.24 157.79) rotate(-44.94)"/><rect class="j" x="184.57" y="102.62" width="2.03" height="1.13" transform="translate(-18.67 161.23) rotate(-44.94)"/><path class="d" d="M210.77,141.91c-4.05,1.79-9.33,5.81-7.86,15.56,1.8,12,16.08,13.12,19.53,17.93s2.68,20.66,14.86,27.66c11.28,6.49,22.46-.42,31.25-9.84,11.18-12,16.49-25.1,5.65-36.66s-19.37-5.41-25.34-9.36c-6.62-4.39-5.13-14.9-12.67-15.29-6.3-.33-6.86,7.21-13.08,8.63C216.08,142.12,214.88,140.09,210.77,141.91Z"/><rect class="a" x="240.33" y="178.19" width="30.89" height="4.69" rx="1.26" ry="1.26" transform="translate(-52.8 233.41) rotate(-44.94)"/><circle class="a" cx="234.13" cy="158.84" r="11.91" transform="translate(-21.04 36.63) rotate(-8.56)"/><circle class="j" cx="234.13" cy="158.84" r="8.91" transform="translate(-21.04 36.63) rotate(-8.56)"/><path class="k" d="M190,109.73h0l-2.15-3.61L177.05,95.25a1.82,1.82,0,0,0-2.58,0l-5.3,5.27a1.82,1.82,0,0,0,0,2.58L180,113.95l3.79,2,41.82,40.72a8.81,8.81,0,0,1,6.18-6.32Z"/><path class="i" d="M256.33,102v4.6a6.26,6.26,0,0,1-12.52,0V102"/><path class="h" d="M257.42,54.3a21.58,21.58,0,0,0-28.05,20.58v10.4a21.58,21.58,0,0,0,43.15,0V74.88A21.58,21.58,0,0,0,257.42,54.3Z"/><path class="i" d="M250.94,53.31a21.46,21.46,0,0,1,6.48,1c-.47,0-.94-.07-1.42-.07a20,20,0,0,0-20,20V85.54c0,11,8.94,16.91,20,16.91a19.87,19.87,0,0,0,12.07-4.09,21.55,21.55,0,0,1-38.7-13.09V74.88A21.58,21.58,0,0,1,250.94,53.31Z"/><path class="l" d="M255.55,81.74a1.24,1.24,0,0,1,.38.06,1.27,1.27,0,0,1,.89,1.21V84a1.28,1.28,0,0,1-1.27,1.27A1.28,1.28,0,0,1,254.28,84V83A1.28,1.28,0,0,1,255.55,81.74Z"/><path class="l" d="M238.18,81.74a1.25,1.25,0,0,1,.38.06,1.27,1.27,0,0,1,.89,1.21V84a1.28,1.28,0,0,1-1.28,1.27A1.27,1.27,0,0,1,236.91,84V83A1.28,1.28,0,0,1,238.18,81.74Z"/><path class="e" d="M251.8,48.84A21.77,21.77,0,0,1,273.5,70.55V87A21.81,21.81,0,0,1,263,75.76c-1.79-3.19-2.39-8.73-7.55-8.73h-25A21.69,21.69,0,0,1,251.8,48.84Z"/><path class="e" d="M228.17,75.11a7.78,7.78,0,1,1,0-15.55h11.46a7.78,7.78,0,1,1,0,15.55Z"/><circle class="h" cx="270.68" cy="84.16" r="4.23"/><path class="p" d="M241.39,92.78a56.76,56.76,0,0,0,5.93.42,31.18,31.18,0,0,0,6.1-.4s-.94,5.82-6,5.5S241.39,92.78,241.39,92.78Z"/><path class="h" d="M279.91,144.52c0,.09-.09.17-.13.26-5.94,16-39.32,11.41-39.65,11.36a5.28,5.28,0,1,0-1.59,10.44,87.13,87.13,0,0,0,12.16.81c12.93,0,32.31-2.76,38.64-18.18C286.55,147.81,282.62,145.85,279.91,144.52Z"/><path class="i" d="M238.67,109.83A7.77,7.77,0,0,0,238,113c0,5.44,5.76,9.85,12.87,9.85s12.87-4.41,12.87-9.85a7.88,7.88,0,0,0-1-3.85,53.21,53.21,0,0,0-11.42-.91A59.5,59.5,0,0,0,238.67,109.83Z"/><path class="h" d="M262.68,109.18c-1-.18-2-.34-3-.47-.94,4.73-6.26,8.36-12.71,8.36a15.09,15.09,0,0,1-8.92-2.76c.83,4.83,6.21,8.56,12.75,8.56,7.11,0,12.87-4.41,12.87-9.85A7.88,7.88,0,0,0,262.68,109.18Z"/><circle class="h" cx="183.25" cy="117.59" r="5.94"/><rect class="a" x="159.25" y="163.95" width="4.13" height="5.54"/><rect class="q" x="162.35" y="169.49" width="4.13" height="5.54"/><path class="o" d="M55.74,112.19a33.5,33.5,0,0,0-5.56-1.75V195h5.56Z"/><path class="n" d="M32.74,111.23a33.65,33.65,0,0,0-4.89,2V195h4.89V111.23Z"/><path class="o" d="M44.36,174.7a6.18,6.18,0,0,1-.81-.05l-29.32-3.86a6.16,6.16,0,0,1-5.36-6.11V146.74a6.16,6.16,0,0,1,12.32,0v12.54l24,3.15a6.16,6.16,0,0,1-.8,12.27Z"/><rect class="k" x="45.99" y="154.74" width="2.78" height="23.82" rx="0.79" ry="0.79" transform="translate(46.76 -6.6) rotate(15.67)"/><path class="e" d="M52.35,156.27l-3.95-1.06.64-2.29a5,5,0,0,1,1.66-2.58l1.39-1.15.75,1.84a4.46,4.46,0,0,1,.18,2.84Z"/><path class="r" d="M48.4,153.59h4.26a0,0,0,0,1,0,0v2.51a.88.88,0,0,1-.88.88h-2.5a.88.88,0,0,1-.88-.88v-2.51A0,0,0,0,1,48.4,153.59Z" transform="translate(41.85 -7.78) rotate(14.98)"/><path class="r" d="M50.6,155.18a1.39,1.39,0,0,0-1.72,1l-.31,1.1,2.69.72.3-1.07A1.39,1.39,0,0,0,50.6,155.18Z"/><rect class="k" x="43.94" y="156.47" width="2.3" height="23.82" rx="0.02" ry="0.02" transform="translate(8.2 -1.98) rotate(2.77)"/><path class="e" d="M46.86,156.43l-2.44-.09.08-1.86a4.8,4.8,0,0,1,.64-2.26l.67-1.12.67,1.26a4.23,4.23,0,0,1,.47,2.13Z"/><path class="r" d="M45.6,158.29h0a1.48,1.48,0,0,1-1.33-1.6l.06-1.84,2.75.11L47,156.81A1.45,1.45,0,0,1,45.6,158.29Z"/><path class="r" d="M45.62,156.43a1.31,1.31,0,0,0-1.3,1.32l0,1.15,2.48.1,0-1.11A1.34,1.34,0,0,0,45.62,156.43Z"/><path class="h" d="M35.55,173.64l8.33,1.09a6.18,6.18,0,0,0,6.84-5.36,6,6,0,0,0-5.12-6.92l-8.48-1.11"/><circle class="h" cx="121.28" cy="81.85" r="7.59"/><path class="g" d="M125.26,94.55a5,5,0,0,1-8.07-1.82,4.15,4.15,0,0,0-5-2.16L101,93.95a4.19,4.19,0,0,0-3,4v.86a4.19,4.19,0,0,0,4.72,4.16l3.88-.49a4.19,4.19,0,0,1,4.68,4.73l-.5,3.65a4.19,4.19,0,0,0,3.64,4.73l10.81,1.34Z"/><path class="f" d="M135,93.25A4.18,4.18,0,0,0,130.79,91l-4.34.49a4.13,4.13,0,0,0-3,2v24.91l1.64.2a4.19,4.19,0,0,0,4.69-3.84l.14-1.87c.34-4.46,6.58-5.38,8.1-1.17.67,1.84.92,3.5.39,4.62a25.44,25.44,0,0,1-4.93,6.54,2.41,2.41,0,0,0,3,3.72c3.14-2.08,9.53-7.26,7.27-13.75A202.46,202.46,0,0,0,135,93.25Z"/><rect class="k" x="108.22" y="100.62" width="2.78" height="23.82" rx="0.79" ry="0.79" transform="translate(19.4 -16.07) rotate(9.2)"/><rect class="e" x="109.91" y="95.41" width="4.09" height="4.65" transform="translate(15.69 -15.49) rotate(8.51)"/><path class="r" d="M109.33,99.19h4.26a0,0,0,0,1,0,0v2.51a.88.88,0,0,1-.88.88h-2.5a.88.88,0,0,1-.88-.88V99.19A0,0,0,0,1,109.33,99.19Z" transform="translate(16.15 -15.38) rotate(8.51)"/><path class="r" d="M111.51,100.77a1.39,1.39,0,0,0-1.6,1.15l-.18,1.13,2.75.41.18-1.1A1.39,1.39,0,0,0,111.51,100.77Z"/><path class="f" d="M110.28,95.14a16.4,16.4,0,0,0,2.41,1.19c1.29.5,1.55,0,1.55,0l.09-.58Z"/><path class="h" d="M106.08,123.92l6.49-5.34a6.21,6.21,0,0,0,.75-8.69,6,6,0,0,0-8.56-1l-6.6,5.44"/></svg>