<svg width="30" height="22" viewBox="0 0 30 22" fill="none" xmlns="http://www.w3.org/2000/svg">
<path d="M23.7723 14.9244C21.21 13.324 18.363 12.7551 15.4092 12.6838C15.2667 12.6838 15.1956 12.6482 14.9465 12.6838C11.7079 12.7193 8.71873 13.2883 6.01398 14.8888C6.01398 14.9244 6.01398 14.9599 6.01398 14.9954C6.04953 14.9954 6.12064 15.031 6.15643 15.031C6.72578 14.9244 7.36647 14.8531 7.90027 14.6396C9.11031 14.1417 10.3201 13.7506 11.6013 13.5372C13.4162 13.2172 15.2667 13.1459 17.0816 13.3238C18.9321 13.5017 20.7471 13.8928 22.4554 14.6041C22.8825 14.782 23.1672 14.9954 23.5941 15.1731C23.6652 15.2086 23.8076 15.2797 23.8432 15.1731C23.9503 14.9599 23.7723 14.9244 23.7723 14.9244Z" fill="#F1832E"/>
<path d="M5.51594 6.56734C4.94659 6.6384 4.4128 6.67393 3.84321 6.74523C3.84321 6.7097 3.80766 6.67417 3.80766 6.63864C4.05678 6.49628 4.34145 6.35415 4.59057 6.24732C6.72574 5.2515 8.82535 4.25568 10.9608 3.25985C12.0995 2.72641 13.2739 2.19297 14.4126 1.65952C14.5193 1.58846 14.5551 1.58846 14.6618 1.58846C14.5906 1.55293 14.982 1.48187 14.9464 1.4461C14.7684 1.33951 14.4482 1.23267 14.2702 1.16161C11.8859 2.37086 9.18114 3.54434 6.69018 4.54016C7.01041 4.00672 7.15287 3.47328 7.15287 3.36645C7.33088 2.58405 7.22398 1.80165 6.86819 1.09031C6.54797 0.521338 6.08552 0.0947266 5.37372 0.0947266C4.62636 0.0947266 4.16368 0.521576 3.84345 1.16161C3.52322 1.80165 3.45187 2.51298 3.55878 3.22432C3.66544 3.82883 3.91456 4.39804 4.44835 4.78912C4.62636 4.93148 4.87548 5.00254 5.1246 5.14467C4.94659 5.21573 4.83993 5.32256 4.69747 5.35809C3.66544 5.78494 2.59785 6.21155 1.56582 6.6384C1.17425 6.78077 0.782912 6.95842 0.391337 7.10078C0.320228 7.13631 0.284673 7.24315 0.213326 7.31421C0.284435 7.34974 0.355782 7.4208 0.462445 7.45657C0.604901 7.4921 0.747119 7.4921 0.85402 7.4921C2.09962 7.52763 3.34521 7.56316 4.59081 7.59869C4.91103 7.59869 5.05349 7.74106 5.01794 8.06108C4.98238 8.91454 4.94683 9.7327 5.01794 10.5862C5.05349 11.0841 4.83993 11.4752 4.59081 11.902C3.66544 13.4313 2.74031 14.9961 1.88605 16.5609C1.28115 17.7343 0.747357 18.9791 0.17801 20.1884C0.106902 20.3307 0.0713473 20.5084 0 20.6863C0.0355544 20.6863 0.0711087 20.7218 0.106663 20.7218C1.8505 18.1967 3.41632 15.565 4.91103 12.8978C4.94659 12.8978 4.98214 12.9334 5.0177 12.9334C5.05325 15.1027 5.12436 17.2722 5.16015 19.4415C5.19571 19.4415 5.26682 19.4415 5.30261 19.4415C5.37372 19.1925 5.44507 18.9436 5.48062 18.6946C5.58728 18.2323 5.69418 17.7699 5.72974 17.3077C5.76529 16.4187 5.97886 9.59034 6.15687 7.10078C6.22774 6.42498 6.19218 6.49604 5.51594 6.56734Z" fill="#7570B2"/>
<path d="M15.3027 1.19774C15.6943 0.98432 16.4059 0.628771 16.7619 0.237453C16.7263 0.201921 16.7263 0.16639 16.6908 0.130859C16.5841 0.16639 16.4772 0.201921 16.3705 0.237453C15.9434 0.450877 15.5165 0.628771 15.0894 0.806426C15.0183 0.841957 14.8047 0.913019 14.6978 0.913019C14.7334 0.913019 14.8045 0.984082 14.8403 0.984082C15.0536 1.09091 15.0536 1.12668 15.3027 1.19774Z" fill="#7570B2"/>
<path d="M29.8578 19.7612C29.4662 18.9432 29.0394 18.1608 28.6478 17.3429C27.7582 15.5647 26.7262 13.8575 25.5872 12.1861C25.089 11.4393 24.5908 10.7279 24.6619 9.76786C24.733 9.05653 24.6263 8.30966 24.5908 7.56279C24.5908 7.4562 24.6974 7.2783 24.7688 7.2783C25.5872 7.17171 26.4057 7.10041 27.2244 7.02935C27.8293 6.99382 28.4344 6.99382 29.0393 6.99382C29.1818 6.99382 29.2885 6.92275 29.4309 6.88722C29.4309 6.85169 29.4309 6.81616 29.4309 6.74486C27.9362 6.17589 26.4415 5.60691 24.947 5.07323C25.2672 4.96664 25.6233 4.93087 25.9079 4.78875C26.6553 4.29083 26.9755 3.54397 26.9755 2.65497C26.9755 2.44155 26.94 0.983346 26.1215 0.378841C25.5166 -0.154602 24.6623 -0.119071 24.093 0.449903C23.381 1.12571 23.2385 1.97917 23.3098 2.86816C23.3454 3.61503 23.6656 4.25506 24.2708 4.78851C21.3171 3.72162 18.3988 2.6192 15.6229 1.26759C15.6229 1.26759 12.8826 -0.0127161 12.7404 0.165178L12.6693 0.271771C12.6693 0.449665 15.018 1.62314 15.0892 1.65867C16.0856 2.08552 17.0821 2.4766 18.0786 2.90345C19.0395 3.3303 20.036 3.72138 20.9967 4.14823C22.3845 4.75274 23.7725 5.39301 25.1603 5.99752C25.3384 6.06858 25.5161 6.17541 25.6941 6.282L25.6586 6.35307C25.5875 6.35307 25.5161 6.35307 25.445 6.35307C24.8757 6.31753 24.3419 6.24647 23.7725 6.2107C23.559 6.17517 23.381 6.2107 23.4168 6.49519C23.6659 9.02028 24.1997 17.8401 24.5912 18.907C24.6268 18.9425 24.6623 19.0136 24.6979 19.0493C24.7335 19.0493 24.7335 19.0493 24.769 19.0493V12.4344C24.9826 12.7899 25.1961 13.0744 25.3739 13.3947C26.0144 14.3905 26.6195 15.3863 27.26 16.3821C28.0073 17.5558 28.7902 18.6938 29.5731 19.8317C29.6798 19.9741 29.7867 20.0807 29.9289 20.2231C29.9645 20.2231 29.9645 20.1875 30 20.1875C29.9647 20.0456 29.9289 19.9035 29.8578 19.7612Z" fill="#04A24B"/>
<path d="M15.6229 14.4976C15.9431 15.6713 16.2633 16.8092 16.5838 18.0185C16.4771 17.9829 16.4414 17.9829 16.4058 17.9829C15.7296 17.4495 15.0891 17.5916 14.4484 18.054C13.5588 18.694 13.0248 19.5833 12.491 20.4723C12.3843 20.6502 12.313 20.8278 12.2419 21.0057C12.2774 21.0412 12.313 21.0412 12.3485 21.0768C12.5621 20.8278 12.7401 20.5789 12.9534 20.3299C13.4517 19.7965 13.9499 19.2275 14.4837 18.7296C15.0531 18.2672 15.7649 18.3027 16.3342 18.7651C16.868 19.192 17.1882 19.7965 17.4018 20.401C17.5443 20.8278 17.8289 21.0768 18.2203 21.29C17.544 18.9783 16.6544 16.7377 15.7291 14.4973C15.7295 14.4618 15.6584 14.4618 15.6229 14.4976Z" fill="#F1832E"/>
<path d="M16.9752 10.1946C16.9752 11.5105 16.0856 12.6129 15.0178 12.6129C13.9499 12.6129 13.0604 11.546 13.0604 10.1946C13.0604 8.87878 13.9499 7.77637 15.0178 7.77637C16.0856 7.77613 16.9752 8.84325 16.9752 10.1946Z" fill="#F1832E"/>
</svg>
