<svg width="94" height="60" viewBox="0 0 94 60" fill="none" xmlns="http://www.w3.org/2000/svg">
<path d="M8.63159 45.6024C8.63159 46.3804 8.79173 46.8168 9.11146 46.9126C10.115 47.1206 10.617 47.7377 10.617 48.7631V51.0812C10.617 52.5233 9.33422 53.2433 6.76861 53.2433H3.86941C1.3038 53.2433 0.0209961 52.5233 0.0209961 51.0812V43.6846H2.25191V51.0812C2.25191 51.788 2.79053 52.1401 3.86886 52.1401H6.76861C7.84639 52.1401 8.38555 51.7875 8.38555 51.0812V48.7626C8.40772 48.1926 8.05474 47.8077 7.32606 47.6013C6.76861 47.4973 6.45996 46.8305 6.40011 45.6019H8.63159V45.6024Z" fill="#EC1B2E"/>
<path d="M13.6045 48.0101V51.081C13.6045 51.7879 14.1442 52.1404 15.222 52.1404H18.1218C19.1995 52.1404 19.7393 51.7873 19.7393 51.081L19.7947 47.3455C19.7947 46.6354 19.2561 46.2806 18.1777 46.2806H17.1182C15.1106 46.2806 14.1066 45.4347 14.1066 43.7402H16.3369C16.3369 44.7016 16.5896 45.1823 17.0955 45.1823H18.1772C20.7422 45.1823 22.025 45.9034 22.025 47.3455L21.9696 51.081C21.9696 52.5231 20.6868 53.2431 18.1212 53.2431H15.2215C12.6559 53.2431 11.373 52.5231 11.373 51.081V48.0101H13.6045Z" fill="#EC1B2E"/>
<path d="M23.2865 46.5045C23.2865 45.0624 24.5244 44.3436 27.0014 44.3436H28.0271C29.0461 44.3436 30.0685 44.5878 31.0947 45.0816V43.6904H33.3245V51.0871C33.3245 52.5292 32.0417 53.2502 29.4767 53.2502H26.5769C24.0113 53.2502 22.7285 52.5292 22.7285 51.0871L22.8399 49.1632H25.0708L24.9594 51.0871C24.9594 51.7939 25.4986 52.147 26.5769 52.147H29.4767C30.5545 52.147 31.0942 51.7939 31.0942 51.0871V47.0444C31.0421 46.2264 30.0192 45.691 28.0265 45.4397H27.0225C26.0195 45.4397 25.5174 45.7955 25.5174 46.5051L25.6288 47.5765H23.3979L23.2865 46.5045Z" fill="#EC1B2E"/>
<path d="M42.6331 45.6024C42.6331 46.3804 42.7932 46.8168 43.1129 46.9126C44.1159 47.1206 44.6185 47.7377 44.6185 48.7631V51.0812C44.6185 52.5233 43.3357 53.2433 40.7701 53.2433H37.8709C35.3058 53.2433 34.0225 52.5233 34.0225 51.0812V43.6846H36.2528V51.0812C36.2528 51.788 36.792 52.1401 37.8703 52.1401H40.7695C41.8473 52.1401 42.387 51.7875 42.387 51.0812V48.7626C42.4092 48.1926 42.0562 47.8077 41.3275 47.6013C40.7695 47.4973 40.4614 46.8305 40.4016 45.6019H42.6331V45.6024Z" fill="#929497"/>
<path d="M50.796 45.1582H49.3347C48.257 45.1582 47.7178 45.5124 47.7178 46.2236V51.0815C47.7178 51.7878 48.257 52.1403 49.3347 52.1403H54.3878C55.4645 52.1403 56.0042 51.7872 56.0042 51.0815V46.2236C56.0042 45.5124 55.4645 45.1582 54.3878 45.1582H52.8036V48.3331H50.796V45.1582ZM45.4869 46.3172C45.4869 44.8756 46.7625 44.1551 49.3131 44.1551H50.796V43.1631H52.8036V44.1551H54.3878C56.9523 44.1551 58.2357 44.8756 58.2357 46.3172V51.0815C58.2357 52.5236 56.9523 53.243 54.3878 53.243H49.3347C46.7697 53.243 45.4863 52.5236 45.4863 51.0815V46.3172H45.4869Z" fill="#929497"/>
<path d="M61.0533 48.0101V51.081C61.0533 51.7879 61.5914 52.1404 62.6703 52.1404H65.57C66.6478 52.1404 67.1875 51.7873 67.1875 51.081L67.2429 47.3455C67.2429 46.6354 66.7038 46.2806 65.6265 46.2806H64.5659C62.5589 46.2806 61.5542 45.4347 61.5542 43.7402H63.7852C63.7852 44.7016 64.0373 45.1823 64.5438 45.1823H65.626C68.1905 45.1823 69.4738 45.9034 69.4738 47.3455L69.4173 51.081C69.4173 52.5231 68.1345 53.2431 65.5695 53.2431H62.6697C60.1041 53.2431 58.8213 52.5231 58.8213 51.081V48.0101H61.0533Z" fill="#929497"/>
<path d="M75.5973 45.1582H74.1344C73.0577 45.1582 72.518 45.5124 72.518 46.2236V51.0815C72.518 51.7878 73.0572 52.1403 74.1344 52.1403H79.1875C80.2658 52.1403 80.805 51.7872 80.805 51.0815V46.2236C80.805 45.5124 80.2658 45.1582 79.1875 45.1582H77.6044V48.3331H75.5973V45.1582ZM70.2877 46.3172C70.2877 44.8756 71.5622 44.1551 74.1134 44.1551H75.5973V43.1631H77.6044V44.1551H79.1875C81.7531 44.1551 83.0359 44.8756 83.0359 46.3172V51.0815C83.0359 52.5236 81.7526 53.243 79.1875 53.243H74.1344C71.5699 53.243 70.2871 52.5236 70.2871 51.0815V46.3172H70.2877Z" fill="#929497"/>
<path d="M83.8448 53.0936L83.7334 45.7906C83.7334 44.3901 84.9719 43.6904 87.4483 43.6904H90.2588C92.7507 43.6904 93.9953 44.3901 93.9953 45.7906L93.8839 53.0936H91.6535L91.7649 45.7906C91.7649 45.1221 91.2623 44.7876 90.2594 44.7876H87.471C86.4658 44.7876 85.9654 45.1221 85.9654 45.7906L86.0763 53.0936H83.8448Z" fill="#929497"/>
<path d="M59.4038 55.5664L59.7418 56.8306C59.8089 57.1087 59.8765 57.3677 59.9236 57.6239H59.9391C59.9973 57.372 60.0798 57.1049 60.1624 56.8371L60.573 55.567H60.9587L61.3482 56.812C61.4435 57.1092 61.5172 57.372 61.5732 57.6244H61.5882C61.6292 57.3726 61.6984 57.1092 61.781 56.8169L62.1401 55.567H62.5922L61.781 58.0548H61.3648L60.9797 56.8678C60.8916 56.5897 60.8196 56.3433 60.7548 56.0504H60.7459C60.6833 56.3471 60.6029 56.6039 60.5165 56.8744L60.1092 58.0553H59.6942L58.9355 55.5675H59.4038V55.5664Z" fill="#EC1B2E"/>
<path d="M63.2862 55.5664L63.6259 56.8306C63.6912 57.1087 63.76 57.3677 63.8071 57.6239H63.8204C63.8785 57.372 63.9633 57.1049 64.0453 56.8371L64.4559 55.567H64.8416L65.2317 56.812C65.3248 57.1092 65.3974 57.372 65.4567 57.6244H65.4694C65.5127 57.3726 65.5803 57.1092 65.6645 56.8169L66.0241 55.567H66.4741L65.6645 58.0548H65.2467L64.8632 56.8678C64.7723 56.5897 64.7014 56.3433 64.6382 56.0504H64.6272C64.5645 56.3471 64.4864 56.6039 64.4 56.8744L63.9927 58.0553H63.5771L62.8174 55.5675H63.2862V55.5664Z" fill="#EC1B2E"/>
<path d="M67.168 55.5664L67.506 56.8306C67.5753 57.1087 67.6423 57.3677 67.6872 57.6239H67.7044C67.7609 57.372 67.8429 57.1049 67.9277 56.8371L68.3389 55.567H68.7246L69.1135 56.812C69.2066 57.1092 69.2803 57.372 69.3369 57.6244H69.354C69.3923 57.3726 69.4621 57.1092 69.5447 56.8169L69.9043 55.567H70.3581L69.5441 58.0548H69.1285L68.7428 56.8678C68.6564 56.5897 68.5833 56.3433 68.5201 56.0504H68.509C68.448 56.3471 68.3682 56.6039 68.2796 56.8744L67.8745 58.0553H67.4562L66.6992 55.5675H67.168V55.5664Z" fill="#EC1B2E"/>
<path d="M70.4932 57.7863C70.4932 57.6029 70.6256 57.4639 70.8074 57.4639C70.9874 57.4639 71.1121 57.598 71.1121 57.7863C71.1121 57.9725 70.9869 58.1094 70.7968 58.1094C70.6189 58.1094 70.4932 57.9725 70.4932 57.7863Z" fill="#EC1B2E"/>
<path d="M73.3747 56.5482C73.3747 56.4705 73.3687 56.4053 73.3487 56.3467C73.2639 56.0801 73.0484 55.8655 72.7103 55.8655C72.2726 55.8655 71.9589 56.2296 71.9589 56.8044C71.9589 57.2939 72.2138 57.7012 72.7037 57.7012C72.9891 57.7012 73.2451 57.5255 73.3376 57.237C73.3637 57.1598 73.3747 57.0722 73.3747 56.995V56.5482ZM73.8319 57.6886C73.8319 58.2662 73.715 58.6106 73.4745 58.8307C73.2257 59.0535 72.871 59.1302 72.5546 59.1302C72.251 59.1302 71.9179 59.0579 71.714 58.9249L71.8293 58.5745C71.9961 58.684 72.2554 58.776 72.5679 58.776C73.0351 58.776 73.3819 58.534 73.3819 57.9032V57.629H73.3698C73.2351 57.86 72.9575 58.0434 72.5685 58.0434C71.9445 58.0434 71.499 57.5222 71.499 56.8307C71.499 55.9903 72.0531 55.5156 72.6372 55.5156C73.075 55.5156 73.3082 55.7379 73.4218 55.9432H73.434L73.4501 55.5671H73.8546C73.8397 55.7417 73.833 55.9471 73.833 56.2449V57.6886H73.8319Z" fill="#EC1B2E"/>
<path d="M76.1782 56.5691C76.1826 56.2839 76.0568 55.8393 75.542 55.8393C75.0743 55.8393 74.876 56.2543 74.8411 56.5691H76.1782ZM74.8344 56.8921C74.8455 57.5059 75.2345 57.7566 75.6983 57.7566C76.0269 57.7566 76.2303 57.7002 76.3948 57.628L76.4791 57.9504C76.3173 58.0233 76.0357 58.1087 75.6351 58.1087C74.8604 58.1087 74.3994 57.6028 74.3994 56.8511C74.3994 56.1005 74.8455 55.5146 75.5792 55.5146C76.4059 55.5146 76.6209 56.222 76.6209 56.6814C76.6209 56.7744 76.6143 56.8401 76.6037 56.8916H74.8344V56.8921Z" fill="#EC1B2E"/>
<path d="M77.467 56.8159C77.467 57.3612 77.7784 57.7735 78.2267 57.7735C78.6644 57.7735 78.9914 57.3673 78.9914 56.8044C78.9914 56.3823 78.7769 55.8529 78.2355 55.8529C77.7003 55.8529 77.467 56.3467 77.467 56.8159ZM79.4585 56.7896C79.4585 57.71 78.8091 58.1097 78.2045 58.1097C77.529 58.1097 76.9971 57.6175 76.9971 56.8307C76.9971 56.0029 77.5551 55.5156 78.2477 55.5156C78.9714 55.5151 79.4585 56.0325 79.4585 56.7896Z" fill="#EC1B2E"/>
<path d="M79.9682 57.5979C80.109 57.6789 80.3489 57.7736 80.5756 57.7736C80.9036 57.7736 81.0588 57.6132 81.0588 57.4008C81.0588 57.1851 80.9285 57.0717 80.5955 56.9496C80.1389 56.7854 79.9239 56.5439 79.9239 56.2439C79.9239 55.8437 80.2581 55.5146 80.795 55.5146C81.0505 55.5146 81.2754 55.5831 81.4101 55.6701L81.302 55.9981C81.2023 55.9379 81.02 55.8475 80.7845 55.8475C80.5135 55.8475 80.3683 56.0019 80.3683 56.1875C80.3683 56.3934 80.5135 56.4854 80.8421 56.6135C81.2754 56.7744 81.5004 56.9901 81.5004 57.3597C81.5004 57.8032 81.1541 58.1081 80.5656 58.1081C80.2908 58.1081 80.0347 58.0381 79.8574 57.9346L79.9682 57.5979Z" fill="#EC1B2E"/>
<path d="M82.6339 54.9688V55.5655H83.2922V55.9121H82.6339V57.2529C82.6339 57.5611 82.7248 57.7347 82.9808 57.7347C83.106 57.7347 83.1775 57.7254 83.244 57.704L83.2662 58.0484C83.1781 58.0791 83.0373 58.1086 82.86 58.1086C82.6472 58.1086 82.4743 58.038 82.3657 57.9186C82.2399 57.7818 82.1889 57.5611 82.1889 57.2682V55.9121H81.7988V55.5655H82.1889V55.1029L82.6339 54.9688Z" fill="#EC1B2E"/>
<path d="M85.1288 56.7854C84.6312 56.775 84.0632 56.8626 84.0632 57.3455C84.0632 57.6455 84.2604 57.778 84.4899 57.778C84.8234 57.778 85.0373 57.5727 85.1094 57.3608C85.1238 57.3093 85.1288 57.2584 85.1288 57.2174V56.7854ZM85.5732 57.4588C85.5732 57.6756 85.5843 57.8848 85.6103 58.0539H85.1986L85.162 57.7391H85.1465C85.0052 57.9357 84.7348 58.1087 84.3757 58.1087C83.8648 58.1087 83.6055 57.7566 83.6055 57.3969C83.6055 56.7936 84.1468 56.464 85.1205 56.4706V56.4191C85.1205 56.2182 85.0645 55.8442 84.5486 55.8481C84.307 55.8481 84.0637 55.9165 83.8864 56.0326L83.7833 55.7309C83.99 55.6028 84.2976 55.5146 84.614 55.5146C85.3842 55.5146 85.5732 56.0326 85.5732 56.5259V57.4588Z" fill="#EC1B2E"/>
<path d="M86.8347 54.9688V55.5655H87.493V55.9121H86.8347V57.2529C86.8347 57.5611 86.9261 57.7347 87.1788 57.7347C87.3046 57.7347 87.3755 57.7254 87.4453 57.704L87.4669 58.0484C87.3755 58.0791 87.2369 58.1086 87.0602 58.1086C86.8479 58.1086 86.6739 58.038 86.5653 57.9186C86.4401 57.7818 86.388 57.5611 86.388 57.2682V55.9121H85.999V55.5655H86.388V55.1029L86.8347 54.9688Z" fill="#EC1B2E"/>
<path d="M87.8779 57.7863C87.8779 57.6029 88.0081 57.4639 88.1893 57.4639C88.3717 57.4639 88.4969 57.598 88.4969 57.7863C88.4969 57.9725 88.3717 58.1094 88.1772 58.1094C88.0032 58.1094 87.8779 57.9725 87.8779 57.7863Z" fill="#EC1B2E"/>
<path d="M90.758 56.5482C90.758 56.4705 90.753 56.4053 90.7314 56.3467C90.6499 56.0801 90.4288 55.8655 90.0902 55.8655C89.6536 55.8655 89.3411 56.2296 89.3411 56.8044C89.3411 57.2939 89.5965 57.7012 90.0858 57.7012C90.3717 57.7012 90.6272 57.5255 90.7225 57.237C90.748 57.1598 90.7568 57.0722 90.7568 56.995V56.5482H90.758ZM91.2162 57.6886C91.2162 58.2662 91.0954 58.6106 90.8571 58.8307C90.6067 59.0535 90.2515 59.1302 89.9351 59.1302C89.6342 59.1302 89.3006 59.0579 89.0967 58.9249L89.2114 58.5745C89.3787 58.684 89.6386 58.776 89.9506 58.776C90.4199 58.776 90.7618 58.534 90.7618 57.9032V57.629H90.753C90.6172 57.86 90.3424 58.0434 89.9506 58.0434C89.3266 58.0434 88.8789 57.5222 88.8789 56.8307C88.8789 55.9903 89.4375 55.5156 90.0176 55.5156C90.4554 55.5156 90.6909 55.7379 90.8056 55.9432H90.8145L90.8317 55.5671H91.2362C91.2218 55.7417 91.2168 55.9471 91.2168 56.2449V57.6886H91.2162Z" fill="#EC1B2E"/>
<path d="M93.5597 56.5691C93.5658 56.2839 93.4406 55.8393 92.9258 55.8393C92.4553 55.8393 92.2597 56.2543 92.2215 56.5691H93.5597ZM92.2171 56.8921C92.2281 57.5059 92.6199 57.7566 93.0804 57.7566C93.4079 57.7566 93.6112 57.7002 93.7775 57.628L93.8623 57.9504C93.7016 58.0233 93.4206 58.1087 93.0183 58.1087C92.2431 58.1087 91.7793 57.6028 91.7793 56.8511C91.7793 56.1005 92.2276 55.5146 92.9612 55.5146C93.7886 55.5146 94.0002 56.222 94.0002 56.6814C94.0002 56.7744 93.9964 56.8401 93.9858 56.8916H92.2171V56.8921Z" fill="#EC1B2E"/>
<path d="M8.47538 30.8926H0V39.2566H8.47538V30.8926Z" fill="#929497"/>
<path d="M17.9754 16.4844H9.5V39.2569H17.9754V16.4844Z" fill="#929497"/>
<path d="M27.4759 23.749H19V39.2557H27.4759V23.749Z" fill="#929497"/>
<path d="M36.9759 0H28.5V39.2559H36.9759V0Z" fill="#929497"/>
<path d="M46.4754 3.78516H38V39.2562H46.4754V3.78516Z" fill="#929497"/>
<path d="M55.9754 6.1543H47.5V39.2563H55.9754V6.1543Z" fill="#EC1B2E"/>
<path d="M65.4748 10.6084H57V39.256H65.4748V10.6084Z" fill="#EC1B2E"/>
<path d="M74.9748 20.4629H66.5V39.2556H74.9748V20.4629Z" fill="#EC1B2E"/>
<path d="M84.4754 5.39648H76V39.2563H84.4754V5.39648Z" fill="#EC1B2E"/>
<path d="M93.9754 11.1768H85.5V39.2561H93.9754V11.1768Z" fill="#EC1B2E"/>
<path d="M93.981 39.6688L0.00146484 39.6775V38.3936L93.981 38.3838V39.6688Z" fill="#808184"/>
</svg>
