<svg xmlns="http://www.w3.org/2000/svg" viewBox="0 0 300 300"><defs><style>.a{fill:#0b1827;}.b{fill:#603917;}.c{fill:#402312;}.d{fill:#cdcecc;}.e{fill:#e8e8e8;}.f{fill:#ed9e95;}.g{fill:#ef8f86;}.h{fill:#1a130f;}.i{fill:#120e0b;}.j{fill:#c0c0bd;}.k,.l{fill:#809298;}.k{opacity:0.55;}.m{fill:#64787f;}.n{fill:#596b73;}.o{fill:#404041;}</style></defs><title>graphic_8_tryghed</title><path class="a" d="M115.74,123.1V108.45c0-18.86,17.11-34.16,38.21-34.16h0c21.1,0,38.21,15.29,38.21,34.16V123.1c0,19.46-18.16,35-39.9,34.12h0C131.83,156.41,115.74,141.37,115.74,123.1Z"/><rect class="b" x="82.17" y="112.51" width="138.24" height="164.86"/><rect class="c" x="76.82" y="120.09" width="148.98" height="9.96"/><rect class="b" x="73.49" y="110.59" width="155.6" height="13.37"/><path class="a" d="M146.58,110.6H118.53a5.86,5.86,0,0,1-5.31-3.25,5.33,5.33,0,0,1,.92-5.94L133.86,80a6.05,6.05,0,0,1,8.23-.52,5.36,5.36,0,0,1,.55,7.82L131.38,99.51h15.19a5.55,5.55,0,1,1,0,11.09Z"/><path class="a" d="M161.69,110.6h28.05a5.86,5.86,0,0,0,5.31-3.25,5.33,5.33,0,0,0-.92-5.94L174.4,80a6.05,6.05,0,0,0-8.23-.52,5.36,5.36,0,0,0-.55,7.82l11.26,12.22H161.69a5.55,5.55,0,1,0,0,11.09Z"/><path class="d" d="M144.16,76.17s3,8.32,10,8.32,9.78-8.5,9.78-8.5Z"/><path class="e" d="M153.95,76.76l-4.54,7.73a8,8,0,0,1-3.59-3.86,16.51,16.51,0,0,1-1.75-4.38l1.55-1.95,8.33,1.44Z"/><path class="e" d="M154,76.76l4.54,7.73a8,8,0,0,0,3.59-3.86,16.51,16.51,0,0,0,1.75-4.38l-1.55-1.95L154,75.74Z"/><path class="d" d="M129.49,72.5c.66-.1,50.3,0,50.3,0s7.59-50.07-26.07-50.07C118.12,22.43,129.49,72.5,129.49,72.5Z"/><path class="f" d="M160,26.88a20.44,20.44,0,0,0-26.57,19.49v9.86a20.44,20.44,0,0,0,40.88,0V46.37A20.44,20.44,0,0,0,160,26.88Z"/><path class="g" d="M153.87,25.94a20.32,20.32,0,0,1,6.13.94c-.45,0-.89-.07-1.35-.07a18.91,18.91,0,0,0-18.91,18.91V56.48c0,10.45,8.46,16,18.91,16a18.82,18.82,0,0,0,11.43-3.87,20.42,20.42,0,0,1-36.66-12.4V46.37A20.44,20.44,0,0,1,153.87,25.94Z"/><circle class="f" cx="172.56" cy="51.17" r="4"/><circle class="g" cx="134.82" cy="51.17" r="4"/><path class="h" d="M162.21,51.42a1.18,1.18,0,0,1,.36.06,1.2,1.2,0,0,1,.85,1.15v.89a1.22,1.22,0,0,1-1.21,1.2,1.21,1.21,0,0,1-1.21-1.2v-.89A1.21,1.21,0,0,1,162.21,51.42Z"/><path class="h" d="M145,51.42a1.18,1.18,0,0,1,.36.06,1.2,1.2,0,0,1,.85,1.15v.89a1.22,1.22,0,0,1-1.21,1.2,1.21,1.21,0,0,1-1.21-1.2v-.89A1.21,1.21,0,0,1,145,51.42Z"/><path class="d" d="M174.3,47.53h-1.74l-4-11.06v6.76a3,3,0,0,1-3,3H142.16c-1.77,0-2.93-1.2-3.21-3.21l-1-6.58-3.43,11.06h-1.36S131.37,23.79,152,24C175.72,24.21,174.3,47.53,174.3,47.53Z"/><path class="g" d="M142.46,110.59a8.26,8.26,0,1,1,16.53,0"/><path class="f" d="M150.22,110.59a8.26,8.26,0,0,1,16.53,0"/><path class="d" d="M85.2,99.08h0a6.51,6.51,0,0,1,6.51,6.51v66.27a0,0,0,0,1,0,0h-13a0,0,0,0,1,0,0V105.58a6.51,6.51,0,0,1,6.51-6.51Z" transform="translate(-5.97 3.94) rotate(-2.56)"/><path class="f" d="M80.65,171.82h13a0,0,0,0,1,0,0v8.71A6.51,6.51,0,0,1,87.16,187h0a6.51,6.51,0,0,1-6.51-6.51v-8.71A0,0,0,0,1,80.65,171.82Z" transform="matrix(1, -0.04, 0.04, 1, -7.93, 4.07)"/><rect class="a" x="68.26" y="189.4" width="15.47" height="77.22"/><rect class="h" x="43.75" y="189.4" width="15.47" height="77.22"/><path class="i" d="M69.49,277.41a10.26,10.26,0,0,0-10.27-10.1v-1.64H43.75v11.76H59.22v0H69.49Z"/><path class="i" d="M83.84,265.67v1.65a10.83,10.83,0,0,1,3.39.67A10.1,10.1,0,0,1,94,277.41H83.84v0H68.26V265.67Z"/><path class="h" d="M51,171.16V183a13.08,13.08,0,0,0,13.28,12.88H53A13.08,13.08,0,0,1,39.74,183V171.16Z"/><path class="a" d="M50.38,183V171.16H86.67V183c0,7.11-6,12.88-13.5,12.88H63.88C56.42,195.89,50.38,190.13,50.38,183Z"/><path class="d" d="M64.56,90h2.57a20.49,20.49,0,0,1,20.49,20.49v60.65a0,0,0,0,1,0,0H39.74a0,0,0,0,1,0,0V114.84A24.81,24.81,0,0,1,64.56,90Z"/><path class="d" d="M44.58,104.51H50.2a3.7,3.7,0,0,1,3.7,3.7V173a0,0,0,0,1,0,0h-13a0,0,0,0,1,0,0V108.21a3.7,3.7,0,0,1,3.7-3.7Z"/><path class="f" d="M40.88,173h13a0,0,0,0,1,0,0v8.71a6.51,6.51,0,0,1-6.51,6.51h0a6.51,6.51,0,0,1-6.51-6.51V173A0,0,0,0,1,40.88,173Z"/><path class="j" d="M70.76,89a18.51,18.51,0,0,0-2.21-.14H66.42c-14.74,0-26.68,12.4-26.68,27.69V172h1.14v1H46.8V116.52C46.8,102.18,57.3,90.39,70.76,89Z"/><polygon class="g" points="70.56 102.59 73.43 108.37 75.57 101.93 70.56 102.59"/><polygon class="k" points="66.92 101.37 69.6 108.37 73.43 108.37 70.56 101.93 66.92 101.37"/><ellipse class="g" cx="73.12" cy="77.02" rx="23.41" ry="23.87"/><path class="f" d="M78.21,53.47a23.56,23.56,0,0,0-15.13,2.6,18.58,18.58,0,0,0-9.61,13.3L51.83,79.92c-1.66,10.66,6.72,20.81,18.73,22.68a22.76,22.76,0,0,0,19.57-5.94,17.88,17.88,0,0,0,5.17-10l1.64-10.55C98.6,65.5,90.22,55.34,78.21,53.47Z"/><path class="g" d="M63.09,56.07a17.88,17.88,0,0,0-5.16,10L56.28,76.58C54.62,87.23,63,97.39,75,99.26a23.53,23.53,0,0,0,15.12-2.6,22.76,22.76,0,0,1-19.57,5.94c-12-1.87-20.39-12-18.73-22.68l1.64-10.55A18.58,18.58,0,0,1,63.09,56.07Z"/><path class="h" d="M87.29,90.11a1.23,1.23,0,0,1,.37.11,1.26,1.26,0,0,1,.73,1.31l-.12.93a1.28,1.28,0,0,1-1.42,1.09,1.27,1.27,0,0,1-1.1-1.42l.12-.93A1.27,1.27,0,0,1,87.29,90.11Z"/><path class="h" d="M69.82,90.68a1.23,1.23,0,0,1,.37.11,1.26,1.26,0,0,1,.73,1.31L70.8,93a1.28,1.28,0,0,1-1.42,1.09,1.27,1.27,0,0,1-1.1-1.42l.12-.93A1.27,1.27,0,0,1,69.82,90.68Z"/><path class="b" d="M78.21,53.5a24.62,24.62,0,0,0-4.27-.29c-.28,0-.55,0-.82,0A23.65,23.65,0,0,0,49.71,77a24.09,24.09,0,0,0,1.68,8.85l4-.85L61.07,80a8.69,8.69,0,0,1,6.33-2.22l29,1.73.51-3.3C98.6,65.53,90.22,55.37,78.21,53.5Z"/><rect class="b" x="77.09" y="60.87" width="19" height="7.38" rx="2.21" ry="2.21"/><rect class="b" x="51.62" y="57.9" width="7.98" height="7.38" rx="2.21" ry="2.21"/><rect class="b" x="55.26" y="55.1" width="7.98" height="7.38" rx="2.21" ry="2.21" transform="translate(80.54 -21.92) rotate(60)"/><rect class="b" x="80.22" y="66.33" width="19" height="7.38" rx="2.21" ry="2.21"/><rect class="b" x="80.73" y="71.69" width="19" height="7.38" rx="2.21" ry="2.21" transform="translate(4.92 -5.53) rotate(3.61)"/><path class="g" d="M52.43,81.57C54.9,81.73,57,84.15,57.1,87s-1.81,5-4.28,4.84-4.56-2.58-4.67-5.41S50,81.41,52.43,81.57Z"/><circle class="l" cx="76.61" cy="106.29" r="0.69"/><path class="j" d="M209.44,102.13h13a0,0,0,0,1,0,0V165.6a9.32,9.32,0,0,1-9.32,9.32h0a3.7,3.7,0,0,1-3.7-3.7V102.13A0,0,0,0,1,209.44,102.13Z" transform="translate(425.49 286.56) rotate(-177.44)"/><path class="f" d="M214,174.87h0a6.51,6.51,0,0,1,6.51,6.51v8.71a0,0,0,0,1,0,0h-13a0,0,0,0,1,0,0v-8.71a6.51,6.51,0,0,1,6.51-6.51Z" transform="translate(419.6 374.34) rotate(-177.44)"/><path class="d" d="M213.53,93.09h46.73a0,0,0,0,1,0,0v55.74a16.46,16.46,0,0,1-16.46,16.46h-6.33a23.94,23.94,0,0,1-23.94-23.94V93.09A0,0,0,0,1,213.53,93.09Z" transform="translate(473.79 258.37) rotate(-180)"/><path class="j" d="M236.87,93.18c-.62,0-1.24-.09-1.88-.09h-3.41a18.05,18.05,0,0,0-18.05,18.05v54.15h7.14V111.14A18.05,18.05,0,0,1,236.87,93.18Z"/><path class="m" d="M256,188.35a16.16,16.16,0,0,0,2.59-8.78v-3.75H216.49v3.75a16.16,16.16,0,0,0,2.59,8.78Z"/><polygon class="n" points="214.89 173.5 227.74 272.43 236.46 272.43 233.49 175.47 214.89 173.5"/><polygon class="m" points="256.5 171.84 247.58 272.43 236.46 272.43 232.49 175.47 256.5 171.84"/><path class="m" d="M214.5,165.29h42.13a0,0,0,0,1,0,0v4.54a17.06,17.06,0,0,1-17.06,17.06h-8a17.06,17.06,0,0,1-17.06-17.06v-4.54A0,0,0,0,1,214.5,165.29Z"/><path class="n" d="M220.81,171.25v-6H214.5v5.35a16.25,16.25,0,0,0,16.25,16.25h1.92A16.25,16.25,0,0,1,220.81,171.25Z"/><path class="a" d="M214.32,274.86a8.93,8.93,0,0,1,17.86,0"/><rect class="a" x="223.13" y="265.93" width="14.83" height="8.9"/><rect class="o" x="214.36" y="274.69" width="23.59" height="2.84"/><path class="a" d="M224.46,274.89a8.93,8.93,0,1,1,17.86,0"/><rect class="a" x="233.27" y="265.96" width="14.83" height="8.9"/><rect class="o" x="224.5" y="274.72" width="23.59" height="2.84"/><rect class="m" x="226.16" y="262.67" width="13.03" height="3.26"/><rect class="l" x="235.87" y="262.67" width="13.03" height="3.26"/><path class="d" d="M246.48,107h13a0,0,0,0,1,0,0v62a6.51,6.51,0,0,1-6.51,6.51h0a6.51,6.51,0,0,1-6.51-6.51V107a0,0,0,0,1,0,0Z" transform="translate(505.98 282.44) rotate(-180)"/><path class="f" d="M253,175.48h0A6.51,6.51,0,0,1,259.5,182v8.71a0,0,0,0,1,0,0h-13a0,0,0,0,1,0,0V182A6.51,6.51,0,0,1,253,175.48Z" transform="translate(505.98 366.18) rotate(-180)"/><path class="h" d="M241.91,90.74c.35.42,9.34-3.48,13,1.84s4.26,14.78,4.26,14.78a22.3,22.3,0,0,1-12.77-5.45A14.22,14.22,0,0,1,241.91,90.74Z"/><ellipse class="g" cx="228.02" cy="80.07" rx="23.41" ry="23.87"/><path class="f" d="M249.31,83l-1.64-10.55a18.58,18.58,0,0,0-9.61-13.3,23.56,23.56,0,0,0-15.13-2.6c-12,1.87-20.39,12-18.73,22.67l1.64,10.55a17.88,17.88,0,0,0,5.17,10,22.76,22.76,0,0,0,19.57,5.94C242.59,103.78,251,93.63,249.31,83Z"/><path class="g" d="M238.05,59.13a17.88,17.88,0,0,1,5.16,10l1.64,10.55c1.66,10.66-6.73,20.81-18.73,22.68A23.53,23.53,0,0,1,211,99.71a22.76,22.76,0,0,0,19.57,5.94c12-1.87,20.39-12,18.73-22.68l-1.64-10.55A18.58,18.58,0,0,0,238.05,59.13Z"/><path class="h" d="M213.85,93.17a1.23,1.23,0,0,0-.37.11,1.26,1.26,0,0,0-.73,1.31l.12.93a1.28,1.28,0,0,0,1.42,1.09,1.27,1.27,0,0,0,1.1-1.42l-.12-.93A1.27,1.27,0,0,0,213.85,93.17Z"/><path class="h" d="M231.32,93.74a1.23,1.23,0,0,0-.37.11,1.26,1.26,0,0,0-.73,1.31l.12.93a1.28,1.28,0,0,0,1.42,1.09,1.27,1.27,0,0,0,1.1-1.42l-.12-.93A1.27,1.27,0,0,0,231.32,93.74Z"/><path class="h" d="M222.93,56.56a24.62,24.62,0,0,1,4.27-.29c.28,0,.55,0,.82,0a23.65,23.65,0,0,1,23.41,23.87A24.09,24.09,0,0,1,249.75,89l-4-.85L240.07,83a8.69,8.69,0,0,0-6.33-2.22l-29,1.73-.51-3.3C202.54,68.59,210.93,58.43,222.93,56.56Z"/><path class="g" d="M248.71,84.63c-2.47.16-4.56,2.58-4.67,5.41s1.81,5,4.28,4.84,4.56-2.58,4.67-5.41S251.18,84.47,248.71,84.63Z"/><path class="h" d="M226.83,69c-.64.25.64,12.21-7.12,14.39s-19.33-.82-19.33-.82a26.74,26.74,0,0,1,11.35-12.71A18.27,18.27,0,0,1,226.83,69Z"/><circle class="c" cx="153.7" cy="189.98" r="38.03"/><path class="b" d="M142.3,206.94h22.16a2.32,2.32,0,0,1,2.32,2.32v1.55a0,0,0,0,1,0,0H140a0,0,0,0,1,0,0v-1.55A2.32,2.32,0,0,1,142.3,206.94Z"/><path class="b" d="M150.58,202h5.6a2.82,2.82,0,0,1,2.82,2.82v3.31a0,0,0,0,1,0,0H147.76a0,0,0,0,1,0,0v-3.31A2.82,2.82,0,0,1,150.58,202Z"/><path class="b" d="M152.77,169.16H154a.91.91,0,0,1,.91.91V205.4a0,0,0,0,1,0,0h-3a0,0,0,0,1,0,0V170.07a.91.91,0,0,1,.91-.91Z"/><path class="b" d="M177.16,187.68a8,8,0,0,1-15.9,0"/><path class="b" d="M146.14,187.68a8,8,0,1,1-15.9,0"/><path class="b" d="M133.48,188.94l-.95-.34,5.18-14.44a.5.5,0,0,1,.47-.33h0a.5.5,0,0,1,.47.34l5,14.44-1,.33-4.54-13.1Z"/><path class="b" d="M164.59,189.32l-.95-.34,5.18-14.44a.5.5,0,0,1,.47-.33h0a.5.5,0,0,1,.47.34l5,14.44-1,.33-4.54-13.1Z"/><rect class="b" x="134.43" y="172.53" width="38.09" height="2.17"/></svg>