<svg xmlns="http://www.w3.org/2000/svg" viewBox="0 0 300 300"><defs><style>.a{fill:#ed9e95;}.b{fill:#f27921;}.c{fill:#66b1e2;}.d{fill:#1ba2dc;}.e{fill:#402312;}.f{fill:#c1c0c0;}.g{fill:#0b1827;}.h{fill:#ef8f86;}.i{fill:#603917;}.j{fill:#f9a764;}.k{fill:#191615;}.l{fill:#e8e8e8;}.m{fill:#120e0b;}.n{fill:#f5923d;}.o{fill:#1a130f;}.p{fill:#008c49;}.q{fill:#007f49;}.r{fill:#cdcecc;}</style></defs><title>graphic_3_uddannelse</title><path class="a" d="M65.23,144.57h.94A3.88,3.88,0,0,1,70,148.45v7.77a0,0,0,0,1,0,0h-8.7a0,0,0,0,1,0,0v-7.77A3.88,3.88,0,0,1,65.23,144.57Z" transform="translate(-78.72 72.43) rotate(-38.04)"/><rect class="b" x="78.8" y="122.9" width="58.99" height="29.57" transform="translate(216.59 275.37) rotate(-180)"/><path class="c" d="M133.51,134.76a27.46,27.46,0,1,0-54.92,0h8.27v16.53h36.92V134.76Z"/><path class="d" d="M108.18,107.4c-.71-.05-1.41-.11-2.14-.11a27.47,27.47,0,0,0-27.46,27.46h4.27A27.45,27.45,0,0,1,108.18,107.4Z"/><path class="a" d="M78.92,134.76l-1.69,17.66a4.8,4.8,0,0,0,4.32,5.23l.46,0a4.8,4.8,0,0,0,4.77-4.34l1.73-18.12c0-.15,0-.3,0-.46Z"/><path class="e" d="M117.62,89.69l2.48,1.37c0-.45,1-2.8,1-5.68,0-1.77-.92-7-.92-7A19.14,19.14,0,0,0,82.4,84.62l32.94-6.91Z"/><path class="f" d="M226.5,117.71s.14-2.37,4.71-4c5.89-2.07,14.82-.84,14.82-.84Z"/><rect class="g" x="92.85" y="165.08" width="12.65" height="70.82"/><rect class="g" x="107.06" y="165.08" width="12.18" height="70.82"/><path class="h" d="M110.62,103.62l1,4.61A6.42,6.42,0,0,1,99,110.88l-1-4.61"/><path class="i" d="M122.17,239.88a8.33,8.33,0,1,0-16.66,0"/><path class="i" d="M106.6,239.88a8.33,8.33,0,1,0-16.66,0"/><rect class="j" x="81.46" y="197.97" width="4.77" height="41.91"/><rect class="j" x="126.53" y="197.97" width="4.77" height="41.91"/><rect class="b" x="165.19" y="122.87" width="58.99" height="32.11"/><path class="k" d="M217.14,82.58a22.47,22.47,0,0,0-44.94,0v28s5.29,6.23,22.58,6.23,22.36-7.15,22.36-7.15Z"/><path class="a" d="M196.66,65.32A18.09,18.09,0,0,0,178.6,83.39V91.3a18.07,18.07,0,0,0,36.14,0V83.39A18.07,18.07,0,0,0,196.66,65.32Z"/><path class="h" d="M187,68.16a18,18,0,0,0-4.11,11.47v7.91A18,18,0,0,0,201,105.47a17.56,17.56,0,0,0,9.63-2.7,18.07,18.07,0,0,1-32-11.47V83.39A18.07,18.07,0,0,1,187,68.16Z"/><path class="k" d="M196.68,63.1c-12.06,0-22.53,13.17-22.53,25.22,0,.51,0,1,.06,1.48,6.4-2.94,19.05-4.28,26.54-4.38a26.1,26.1,0,0,1,1.55-4.65,24.61,24.61,0,0,1,1.57,4.7,26.55,26.55,0,0,1,13.86,4.34c0-.47.05-1,.05-1.48C217.78,76.27,208.72,63.1,196.68,63.1Z"/><rect class="d" x="181.66" y="165.08" width="12.65" height="70.82"/><rect class="c" x="195.87" y="165.08" width="12.18" height="70.82"/><rect class="l" x="179.21" y="135.46" width="36.92" height="18.34"/><path class="l" d="M169.47,137.27a27.46,27.46,0,1,1,54.92,0"/><path class="m" d="M211,239.88a8.33,8.33,0,1,0-16.66,0"/><path class="m" d="M196.86,239.88a8.33,8.33,0,1,0-16.66,0"/><rect class="n" x="56.24" y="152.27" width="187.33" height="45.7"/><rect class="b" x="50.71" y="152.27" width="198.39" height="8.6"/><path class="o" d="M208.61,92.85a1.21,1.21,0,0,1,.37.07,1.23,1.23,0,0,1,.84,1.2l0,.92a1.25,1.25,0,0,1-1.27,1.21A1.24,1.24,0,0,1,207.32,95l0-.92A1.24,1.24,0,0,1,208.61,92.85Z"/><path class="o" d="M192.79,92.85a1.21,1.21,0,0,1,.37.07,1.23,1.23,0,0,1,.84,1.2l0,.92a1.25,1.25,0,0,1-1.27,1.21A1.24,1.24,0,0,1,191.5,95l0-.92A1.24,1.24,0,0,1,192.79,92.85Z"/><polygon class="p" points="239.9 145.1 219.52 150.27 228.9 117.72 249.29 112.55 239.9 145.1"/><polygon class="q" points="219.7 150.27 214.74 150.27 224.12 117.72 229.09 117.72 219.7 150.27"/><ellipse class="a" cx="243.95" cy="130.93" rx="5.27" ry="4.58" transform="translate(68.15 344.83) rotate(-78.81)"/><rect class="b" x="56.39" y="197.97" width="8.08" height="41.91"/><rect class="b" x="235.26" y="197.97" width="8.08" height="41.91"/><rect class="j" x="170.27" y="197.97" width="4.77" height="41.91"/><rect class="j" x="215.34" y="197.97" width="4.77" height="41.91"/><path class="r" d="M226.5,117.71s3-4,9.91-4.48a98.1,98.1,0,0,1,11.31-.29l-18.82,4.77Z"/><path class="f" d="M226.82,117.71s-2.17-2.12-8.58-2.92-17.23.51-17.23.51l23.43,2.41Z"/><path class="r" d="M201.86,115.21a76.79,76.79,0,0,1,13.6,0,52.55,52.55,0,0,1,11,2.51h-2.38Z"/><circle class="h" cx="178.54" cy="92.47" r="4.02"/><path class="a" d="M119.87,88.37l-1.35-7.78A18.17,18.17,0,0,0,97.41,65.94a18.37,18.37,0,0,0-9.18,4.47,18,18,0,0,0-5.75,16.43l1.35,7.78a18.34,18.34,0,0,0,33.89,5.75A17.8,17.8,0,0,0,119.87,88.37Z"/><path class="h" d="M88.23,70.4a17.86,17.86,0,0,0-2.15,12l1.35,7.78a18.5,18.5,0,0,0,30.29,10.18,18.34,18.34,0,0,1-33.89-5.75l-1.35-7.78A18,18,0,0,1,88.23,70.4Z"/><path class="o" d="M90.17,94.18a1.22,1.22,0,0,0-.36.13,1.25,1.25,0,0,0-.63,1.34l.18.91a1.27,1.27,0,0,0,1.48,1,1.26,1.26,0,0,0,1-1.47l-.18-.91A1.26,1.26,0,0,0,90.17,94.18Z"/><path class="o" d="M105.94,92.13a1.22,1.22,0,0,0-.36.13A1.25,1.25,0,0,0,105,93.6l.18.91a1.27,1.27,0,0,0,1.48,1,1.26,1.26,0,0,0,1-1.47l-.18-.91A1.26,1.26,0,0,0,105.94,92.13Z"/><path class="e" d="M116,91.07l4.1-1.83c0-.43-.09-.87-.17-1.3L118.6,80a18.36,18.36,0,0,0-36.2,6.17l31.46-6.6Z"/><rect class="e" x="78.97" y="78.89" width="24.12" height="5.47" rx="2.44" ry="2.44" transform="translate(-14.88 20.54) rotate(-11.91)"/><path class="e" d="M83.11,74h20.36a1.32,1.32,0,0,1,1.32,1.32v2.82a1.32,1.32,0,0,1-1.32,1.32H83.11a2.44,2.44,0,0,1-2.44-2.44v-.59A2.44,2.44,0,0,1,83.11,74Z" transform="translate(-13.85 20.78) rotate(-11.91)"/><circle class="a" cx="118.76" cy="92.1" r="4.06" transform="translate(-30.34 110.95) rotate(-45)"/><rect class="q" x="61.42" y="150.27" width="53.89" height="2"/><path class="r" d="M63.38,150.27s12.21-3.63,17.92-3.8,7.07,3.8,7.07,3.8"/><path class="r" d="M113,150.27s-12.21-3.63-17.92-3.8-7.07,3.8-7.07,3.8"/><path class="a" d="M135.88,144.33l-2.37-9.73v.15h-9.84l1.69,6.92L112.79,144a4.8,4.8,0,0,0,.88,9.52,4.88,4.88,0,0,0,.89-.08l17.54-3.28a4.8,4.8,0,0,0,3.78-5.85Z"/><path class="r" d="M199.46,109.91c-.72-.05-1.43-.11-2.16-.11a27.65,27.65,0,0,0-27.82,27.46h4.33A27.6,27.6,0,0,1,199.46,109.91Z"/><path class="h" d="M189.62,106.72v4.66a6.34,6.34,0,0,0,12.68,0v-4.66"/><polygon class="p" points="214.8 150.27 188.19 147.35 197.57 114.79 224.18 117.72 214.8 150.27"/><path class="a" d="M203,132a4.8,4.8,0,0,0-6.58-1.67l-15.79,9.4-.34-2.46h-9.65c0,.12,0,.23,0,.35l1.45,10.58a4.8,4.8,0,0,0,7.21,3.47l22-13.11A4.8,4.8,0,0,0,203,132Z"/></svg>