<svg xmlns="http://www.w3.org/2000/svg" viewBox="0 0 1510 510"><defs><style>.a{fill:#22100a;opacity:0.05;}.b{fill:#cdcecc;}.c{fill:#c22126;}.d{opacity:0.5;}.e{fill:#809298;}.f{fill:#f1f1f2;}.g{fill:#ea2127;}.h{fill:#008c49;}.i{fill:#007f49;}.j{fill:#75522e;}.k{fill:#704b27;}.l{fill:#0b1827;}.m{fill:#adb4b5;}.n{fill:#f9a764;}.af,.o{fill:#a0aeb2;}.o{opacity:0.54;}.p{fill:#f27921;}.q{fill:#e8e8e8;}.r{fill:#f5923d;}.s{fill:#1a130f;}.t{fill:#120e0b;}.u{fill:#ed9e95;}.v{fill:#ef8f86;}.w{fill:#fff;}.x{fill:#402312;}.y{fill:#603917;}.z{fill:#e06d26;}.aa{fill:#66b1e2;}.ab{fill:#22346a;}.ac{fill:#1ba2dc;}.ad{fill:#596b73;}.ae{fill:#64787f;}.ag{fill:#e6e7e8;}.ah{fill:#9cadb2;}.ai{fill:#304980;}.aj{fill:#f09f97;}.ak{fill:#d7d7d7;}.al{fill:#dc918b;}.am{fill:#046c3a;}.an{fill:#c8c8c6;}.ao,.ar{fill:#1992bc;}.ap{fill:none;stroke:#cdcecc;stroke-linecap:round;stroke-linejoin:round;stroke-width:3px;}.aq{fill:#2a95d1;}.ar{opacity:0.42;}</style></defs><title>presentation</title><ellipse class="a" cx="86.69" cy="430.29" rx="36.61" ry="3.3"/><polyline class="b" points="839.66 373.7 839.66 128.35 709.76 128.35 709.76 373.7 839.66 373.7"/><polygon class="c" points="709.76 128.35 767.5 50.6 897.38 50.6 839.66 128.35 709.76 128.35"/><g class="d"><rect class="e" x="738.62" y="157.22" width="28.87" height="43.31"/></g><g class="d"><rect class="e" x="781.93" y="157.22" width="28.85" height="43.31"/></g><g class="d"><rect class="e" x="738.62" y="243.82" width="28.87" height="43.28"/></g><g class="d"><rect class="e" x="781.93" y="243.82" width="28.85" height="43.28"/></g><polygon class="f" points="955.1 418.66 955.1 128.35 897.38 50.6 839.66 128.35 839.66 418.66 955.1 418.66"/><rect class="b" x="921.96" y="163.83" width="134.04" height="249.72"/><rect class="f" x="1056.03" y="163.83" width="134.08" height="251.74"/><polygon class="b" points="1056 163.83 988.59 164.83 921.96 163.83 995.07 85.38 995.07 85.38 1056 163.83"/><polygon class="g" points="1190.1 163.83 1056.03 163.83 995.07 85.38 1129.16 85.38 1190.1 163.83"/><rect class="e" x="953.94" y="187.45" width="24.67" height="25.9"/><rect class="e" x="996.27" y="187.45" width="24.68" height="25.9"/><rect class="b" x="1096.99" y="187.45" width="24.68" height="25.9"/><rect class="b" x="1139.34" y="187.45" width="24.67" height="25.9"/><rect class="e" x="953.94" y="242.32" width="24.67" height="25.9"/><rect class="e" x="996.27" y="242.32" width="24.68" height="25.9"/><rect class="b" x="1096.99" y="242.32" width="24.68" height="25.9"/><rect class="b" x="1139.34" y="242.32" width="24.67" height="25.9"/><rect class="e" x="953.94" y="295.5" width="24.67" height="25.9"/><rect class="e" x="996.27" y="295.5" width="24.68" height="25.9"/><rect class="b" x="1096.99" y="295.5" width="24.68" height="25.9"/><rect class="b" x="1139.34" y="295.5" width="24.67" height="25.9"/><path class="h" d="M1136.33,406.61s24.6-2.32,85.68,0,108.11,6.94,108.11,6.94l2.66,17.39-200.54-.23Z"/><path class="i" d="M1316.63,408.81c-50-.87-125.83,4.69-166.52,4.86-26.81.11-72.94-4-94-4.42-29.24-.53-80.76,2.64-80.76,2.64l4.11,13,182.44-2.74c-.25,4.92-1.19,8.69.92,8.5,4.63-.43,297.16.46,297.16.46S1430,410.78,1316.63,408.81Z"/><path class="h" d="M171.42,386.08s73.91,14.33,133.7,14.33,161-10.56,208.19-10.56,190,12.38,190,12.38L706,430.85l-546.54.23Z"/><circle class="i" cx="147.6" cy="335.33" r="36.71"/><circle class="i" cx="138.11" cy="369.08" r="36.71"/><circle class="i" cx="159.41" cy="361.67" r="36.71"/><circle class="i" cx="159.41" cy="393.58" r="36.71"/><rect class="i" x="98.51" y="356.87" width="101.32" height="74.28" rx="37.14" ry="37.14"/><rect class="j" x="523.29" y="339.92" width="15.09" height="88.43"/><rect class="k" x="530.58" y="339.92" width="10.58" height="88.43"/><path class="h" d="M617.25,273.3a54.87,54.87,0,0,0-16.75-28,50.87,50.87,0,0,0,.33-5.83,54.83,54.83,0,0,0-22.94-44.63,52.38,52.38,0,0,0,.33-5.93,54.81,54.81,0,1,0-109.35,5.54,54.84,54.84,0,0,0-23.48,45,55.78,55.78,0,0,0,1.17,11.32,54.84,54.84,0,0,0-11.38,22.59,53.92,53.92,0,0,0-1.56,12.78,54.82,54.82,0,0,0,49.58,54.56V341h85.06v-.17a54.83,54.83,0,0,0,49-67.51Z"/><path class="i" d="M477.53,316.07s25.52,4.72,37.8-7.57S535.1,283,556,283s20.79,32.14,52.94,11.35c12.53-8.13-13.25,36.87-58.61,36.87"/><path class="i" d="M528.89,262.38s-15.47,2.89-22.92-4.58-12-15.49-24.65-15.49-12.62,19.51-32.11,6.89c-7.6-4.93,8,22.36,35.55,22.36A143.29,143.29,0,0,0,522.45,268C542.33,263.3,531.09,261.9,528.89,262.38Z"/><path class="i" d="M510.68,205.31s12.67,2.36,18.78-3.76,5.6,3.26,16,3.26,14.58,0,30.53-10.32c6.25-4-6.56,18.35-29.11,18.35A117.36,117.36,0,0,1,516,209.92C499.7,206.06,508.9,204.92,510.68,205.31Z"/><path class="i" d="M527.76,296.76s-13,17.05-41.11,18.39-42.79-8.35-32.11.33,17.73,18.4,41.13,14.38S527.76,296.76,527.76,296.76Z"/><rect class="j" x="1349.6" y="342.61" width="15.09" height="88.43"/><rect class="k" x="1356.89" y="342.61" width="10.58" height="88.43"/><path class="h" d="M1443.56,276a54.87,54.87,0,0,0-16.75-28,50.87,50.87,0,0,0,.33-5.83,54.83,54.83,0,0,0-22.94-44.63,52.38,52.38,0,0,0,.33-5.93,54.81,54.81,0,1,0-109.35,5.54,54.84,54.84,0,0,0-23.48,45,55.78,55.78,0,0,0,1.17,11.32,54.84,54.84,0,0,0-11.38,22.59,53.91,53.91,0,0,0-1.56,12.78,54.82,54.82,0,0,0,49.58,54.56v.25h85.06v-.17a54.83,54.83,0,0,0,49-67.51Z"/><path class="i" d="M1303.84,318.76s25.52,4.72,37.8-7.57,19.77-25.52,40.64-25.52,20.79,32.14,52.94,11.35c12.53-8.13-13.25,36.87-58.61,36.87"/><path class="i" d="M1355.2,265.07s-15.47,2.89-22.92-4.58-12-15.49-24.65-15.49-12.62,19.51-32.11,6.89c-7.6-4.93,8,22.36,35.55,22.36a143.29,143.29,0,0,0,37.68-3.54C1368.64,266,1357.4,264.59,1355.2,265.07Z"/><path class="i" d="M1337,208s12.67,2.36,18.78-3.76,5.6,3.26,16,3.26,14.58,0,30.53-10.32c6.25-4-6.56,18.35-29.11,18.35a117.36,117.36,0,0,1-30.88-2.92C1326,208.75,1335.21,207.61,1337,208Z"/><path class="i" d="M1354.07,299.45s-13,17.05-41.11,18.39-42.79-8.35-32.11.33,17.73,18.4,41.13,14.38S1354.07,299.45,1354.07,299.45Z"/><rect class="l" x="617.25" y="439.04" width="49.59" height="4.28" rx="2.14" ry="2.14"/><path class="l" d="M624.22,441.18h35.64a0,0,0,0,1,0,0V452.9a4.62,4.62,0,0,1-4.62,4.62H628.84a4.62,4.62,0,0,1-4.62-4.62V441.18A0,0,0,0,1,624.22,441.18Z"/><path class="i" d="M90.66,431.08s94.07-19.63,176.2-19.63,138.21,12.85,241.05,12.85c46.89,0,98.14-15.48,147.75-15.48S679,431.08,679,431.08Z"/><path class="m" d="M451.67,85.81a23.77,23.77,0,1,0-47.55,0"/><path class="n" d="M414.39,85.81c0,7.38,6,12.44,13.37,12.44s13.38-5.06,13.38-12.44"/><path class="b" d="M305.8,377.24a7.51,7.51,0,0,1-7.51-7.51v-259a61.62,61.62,0,0,1,61.54-61.54H432.5a7.51,7.51,0,0,1,0,15H359.83a46.57,46.57,0,0,0-46.51,46.52v259A7.52,7.52,0,0,1,305.8,377.24Z"/><polygon class="m" points="291.25 431.15 320.73 431.15 320.54 330.73 291.07 330.73 291.25 431.15"/><circle class="h" cx="105.74" cy="322.5" r="41.63"/><circle class="h" cx="94.97" cy="360.77" r="41.63"/><circle class="h" cx="119.13" cy="352.37" r="41.63"/><circle class="h" cx="119.13" cy="388.55" r="41.63"/><rect class="h" x="50.08" y="346.92" width="114.88" height="84.22" rx="42.11" ry="42.11"/><path class="i" d="M120.49,416.4s-9.75,1.82-14.46-2.89-7.56-9.77-15.55-9.77-8,12.3-20.25,4.34c-4.79-3.11,5.07,14.1,22.42,14.1A90.36,90.36,0,0,0,116.43,420C129,417,121.88,416.09,120.49,416.4Z"/><path class="i" d="M150.31,352.44a1,1,0,0,0-1.82-.6c-1.92,2.68-7.09,8.91-13.67,9.24-5.27.26-8.44-1.64-10.07-3.08a1,1,0,0,0-1.64.56c-.53,2.75-2.16,7.3-7.24,8.12-4.86.78-14-.27-14,1.16,0,.9,8.54,4.45,26.36.38C142.73,364.9,150.12,356.31,150.31,352.44Z"/><rect class="b" x="120.9" y="332.77" width="10.39" height="98.31"/><rect class="b" x="257.39" y="332.77" width="10.39" height="98.31"/><rect class="m" x="120.9" y="376.64" width="10.39" height="10.57"/><rect class="m" x="257.76" y="376.64" width="10.39" height="10.57"/><rect class="j" x="107.52" y="366.92" width="171.58" height="10.72"/><rect class="j" x="107.52" y="346.45" width="171.58" height="10.72"/><rect class="j" x="107.52" y="329.87" width="171.58" height="10.72"/><path class="h" d="M671.34,323.28h426a27.82,27.82,0,0,1,27.82,27.82v73.77a0,0,0,0,1,0,0H652.25a0,0,0,0,1,0,0v-82.5A19.09,19.09,0,0,1,671.34,323.28Z"/><circle class="h" cx="667.22" cy="409.19" r="19.1"/><circle class="h" cx="666.84" cy="386.31" r="19.1"/><circle class="h" cx="666.84" cy="362.81" r="19.1"/><circle class="h" cx="666.84" cy="340.4" r="19.1"/><circle class="h" cx="686.97" cy="338.67" r="19.1"/><circle class="h" cx="709.85" cy="338.67" r="19.1"/><circle class="h" cx="836.63" cy="337.62" r="19.1"/><circle class="h" cx="862.02" cy="337.04" r="19.1"/><circle class="h" cx="888.18" cy="336.6" r="19.1"/><circle class="h" cx="915.25" cy="337.52" r="19.1"/><circle class="h" cx="1122.24" cy="343.71" r="19.1"/><circle class="h" cx="1122.24" cy="365.84" r="19.1"/><circle class="h" cx="1122.24" cy="408.81" r="19.1"/><circle class="h" cx="1123.22" cy="386.55" r="19.1" transform="translate(226.85 1166.01) rotate(-60)"/><circle class="h" cx="941" cy="337.52" r="19.1"/><circle class="h" cx="967.02" cy="337.52" r="19.1"/><circle class="h" cx="993.04" cy="337.52" r="19.1"/><circle class="h" cx="1019.05" cy="337.52" r="19.1"/><circle class="h" cx="1045.07" cy="337.52" r="19.1"/><circle class="h" cx="1071.09" cy="337.52" r="19.1"/><circle class="h" cx="1097.11" cy="337.52" r="19.1"/><path class="i" d="M720.15,413.66s-9.75,1.82-14.46-2.89S698.13,401,690.15,401s-8,12.3-20.25,4.34c-4.79-3.11,5.07,14.1,22.42,14.1a90.36,90.36,0,0,0,23.76-2.23C728.63,414.24,721.54,413.35,720.15,413.66Z"/><path class="i" d="M1086.76,411.82s9.24,1.94,13.9-1.75,7.59-7.74,15.2-7.39,7.12,10.52,19.15,4.48c4.69-2.36-5.37,11.43-21.93,10.67a99.28,99.28,0,0,1-22.59-2.89C1078.65,411.93,1085.45,411.51,1086.76,411.82Z"/><path class="i" d="M715,363.84s8.11-.56,10.87-5.26,3.93,1.1,10.26-.53,8.91-2.28,17-11.12c3.18-3.44-1.11,12.24-14.88,15.8A74,74,0,0,1,719,365.82C708.44,366,713.88,363.88,715,363.84Z"/><path class="i" d="M904.21,367.22s13.31-.92,17.85-8.63,6.46,1.81,16.85-.87,14.62-3.74,27.93-18.26c5.22-5.64-1.82,20.1-24.42,25.94a121.51,121.51,0,0,1-31.71,5.07C893.39,370.81,902.32,367.29,904.21,367.22Z"/><path class="i" d="M814.89,374.31a1,1,0,0,0-1.82-.6c-1.92,2.68-7.09,8.91-13.67,9.24-5.27.26-8.44-1.64-10.07-3.08a1,1,0,0,0-1.64.56c-.53,2.75-2.16,7.3-7.24,8.12-4.86.78-14-.27-14,1.16,0,.9,8.54,4.45,26.36.38C807.31,386.78,814.7,378.18,814.89,374.31Z"/><path class="i" d="M1035.63,396.18a1.33,1.33,0,0,0-1.77-1.83c-3.91,2-13.85,6.1-21.78,2.41-6.36-3-8.91-7.14-9.94-9.85a1.32,1.32,0,0,0-2.27-.35c-2.32,2.91-7.06,7.25-13.53,5.07-6.2-2.08-16.26-9-17.15-7.27-.56,1.06,7.29,10.5,30.75,16.73C1019,406.15,1033,400.61,1035.63,396.18Z"/><path class="i" d="M910.75,405.2a1.33,1.33,0,0,0-2.44-.74c-2.47,3.62-9.12,12.07-17.85,12.71-7,.51-11.26-1.9-13.47-3.76a1.32,1.32,0,0,0-2.16.8c-.61,3.67-2.63,9.77-9.35,11-6.43,1.2-18.56.1-18.51,2,0,1.2,11.48,5.62,35-.37C901.1,422,910.62,410.35,910.75,405.2Z"/><path class="b" d="M622.41,418.66h731.23a8.45,8.45,0,0,1,8.45,8.45v4a0,0,0,0,1,0,0H614.16a0,0,0,0,1,0,0v-4.17A8.25,8.25,0,0,1,622.41,418.66Z"/><rect class="o" x="1340" y="418.66" width="1.54" height="12.42"/><rect class="o" x="1313.84" y="418.66" width="1.54" height="12.42"/><rect class="o" x="1287.67" y="418.66" width="1.54" height="12.42"/><rect class="o" x="1261.51" y="418.66" width="1.54" height="12.42"/><rect class="o" x="1235.35" y="418.66" width="1.54" height="12.42"/><rect class="o" x="1209.19" y="418.66" width="1.54" height="12.42"/><rect class="o" x="1183.02" y="418.66" width="1.54" height="12.42"/><rect class="o" x="1156.86" y="418.66" width="1.54" height="12.42"/><rect class="o" x="1130.7" y="418.66" width="1.54" height="12.42"/><rect class="o" x="1104.54" y="418.66" width="1.54" height="12.42"/><rect class="o" x="1078.38" y="418.66" width="1.54" height="12.42"/><rect class="o" x="1052.21" y="418.66" width="1.54" height="12.42"/><rect class="o" x="1026.05" y="418.66" width="1.54" height="12.42"/><rect class="o" x="999.89" y="418.66" width="1.54" height="12.42"/><rect class="o" x="973.73" y="418.66" width="1.54" height="12.42"/><rect class="o" x="947.56" y="418.66" width="1.54" height="12.42"/><rect class="o" x="921.4" y="418.66" width="1.54" height="12.42"/><rect class="o" x="895.24" y="418.66" width="1.54" height="12.42"/><rect class="o" x="869.08" y="418.66" width="1.54" height="12.42"/><rect class="o" x="842.91" y="418.66" width="1.54" height="12.42"/><rect class="o" x="816.75" y="418.66" width="1.54" height="12.42"/><rect class="o" x="790.59" y="418.66" width="1.54" height="12.42"/><rect class="o" x="764.43" y="418.66" width="1.54" height="12.42"/><rect class="o" x="738.26" y="418.66" width="1.54" height="12.42"/><rect class="o" x="712.1" y="418.66" width="1.54" height="12.42"/><rect class="o" x="685.94" y="418.66" width="1.54" height="12.42"/><rect class="o" x="659.78" y="418.66" width="1.54" height="12.42"/><rect class="o" x="633.62" y="418.66" width="1.54" height="12.42"/><ellipse class="a" cx="1083.34" cy="457.52" rx="77.68" ry="3.3"/><ellipse class="a" cx="754.86" cy="457.35" rx="77.68" ry="3.3"/><ellipse class="a" cx="941" cy="434.53" rx="77.68" ry="3.3"/><ellipse class="a" cx="572.45" cy="456.41" rx="36.61" ry="3.3"/><ellipse class="a" cx="638.16" cy="456.48" rx="25.03" ry="2.25"/><polygon class="p" points="443.55 293.69 477.5 431.08 483.72 431.08 449.27 293.64 443.55 293.69"/><rect class="b" x="415.61" y="207.79" width="65.97" height="111.52"/><rect class="q" x="415.61" y="207.79" width="63.18" height="111.52"/><rect class="q" x="415.61" y="207.79" width="63.18" height="111.52"/><rect class="r" x="443.18" y="179.31" width="11.54" height="28.43"/><rect class="p" x="454.6" y="179.31" width="1.95" height="28.43"/><rect class="r" x="436.77" y="204.43" width="21.46" height="7.72"/><rect class="p" x="458.07" y="204.43" width="2.39" height="7.72"/><rect class="p" x="460.3" y="204.43" width="1.85" height="3.3"/><rect class="p" x="430.62" y="367.18" width="38.11" height="5.48"/><polygon class="p" points="423.1 431.04 445.14 326.6 438.32 325.75 416.1 431.04 423.1 431.04"/><polygon class="p" points="481.07 431.04 459.03 326.6 465.85 325.75 488.07 431.04 481.07 431.04"/><rect class="l" x="373.37" y="346.04" width="14.46" height="74.5"/><rect class="s" x="350.44" y="346.04" width="14.46" height="74.5"/><path class="t" d="M374.51,430.94a9.74,9.74,0,0,0-9.6-9.74v-1.58H350.44V431H364.9v0h9.6Z"/><path class="t" d="M387.94,419.62v1.59a9.86,9.86,0,0,1,3.17.64,9.73,9.73,0,0,1,6.34,9.09h-9.51v0H373.36V419.62Z"/><path class="s" d="M357.2,328.45v11.44a12.42,12.42,0,0,0,12.42,12.42H359.11a12.42,12.42,0,0,1-12.42-12.42V328.45Z"/><path class="l" d="M357.2,339.88V328.45h33.38v11.44a12.42,12.42,0,0,1-12.42,12.42h-8.54A12.42,12.42,0,0,1,357.2,339.88Z"/><path class="u" d="M388.38,230.07a21.66,21.66,0,0,0-43.3,1.13l.31,11.84a21.66,21.66,0,0,0,43.3-1.13Z"/><path class="v" d="M352,214.8a21.53,21.53,0,0,0-3.2,11.89l.31,11.84a21.63,21.63,0,0,0,36.38,15.28A21.64,21.64,0,0,1,345.39,243l-.31-11.84A21.56,21.56,0,0,1,352,214.8Z"/><path class="b" d="M369.26,265.64a33.45,33.45,0,0,1,7.1.77v64.77a33.48,33.48,0,0,1-7.1.77,33,33,0,0,1-10-1.54V267.18A33.06,33.06,0,0,1,369.26,265.64Z"/><path class="h" d="M393.62,321.29v27.92H376.36V266.41a33.15,33.15,0,0,1,17.26,9.9"/><path class="i" d="M359.28,267.18v82H342.5V307.57l-6.41.28v-9A33.16,33.16,0,0,1,359.28,267.18Z"/><polyline class="v" points="375.17 259.65 375.17 266.61 367.73 277.54 361.2 266.75 361.2 259.36"/><path class="s" d="M379.26,236.66a1.21,1.21,0,0,1,.37,0,1.24,1.24,0,0,1,.94,1.14l0,.92a1.26,1.26,0,0,1-1.18,1.31,1.25,1.25,0,0,1-1.32-1.18l0-.92A1.25,1.25,0,0,1,379.26,236.66Z"/><path class="s" d="M361.75,237a1.21,1.21,0,0,1,.37,0,1.24,1.24,0,0,1,.94,1.14l0,.92a1.26,1.26,0,0,1-1.18,1.31,1.25,1.25,0,0,1-1.32-1.18l0-.92A1.25,1.25,0,0,1,361.75,237Z"/><path class="t" d="M346.34,241.13l2.45,3.39H351l-1.26-16.95,38.11-4s-6.95-20.14-26.63-16.22c-26.57,5.28-17.92,34.57-17.92,34.57"/><circle class="v" cx="346.13" cy="245.68" r="5.12" transform="translate(-74.36 187.78) rotate(-27.53)"/><rect class="t" x="368.52" y="217.31" width="22.33" height="9.35" rx="4.67" ry="4.67" transform="translate(-19.21 36.73) rotate(-5.4)"/><rect class="t" x="365.54" y="213.51" width="22.33" height="6.16" rx="3.08" ry="3.08" transform="translate(-18.72 36.43) rotate(-5.4)"/><path class="w" d="M363,250.34a8.76,8.76,0,0,0,15.24,0Z"/><path class="h" d="M406.26,297.78a6,6,0,0,1-3.41-1.06l-18.43-12.66a6,6,0,1,1,6.83-9.94L406,284.24l22.76-18.34a6,6,0,0,1,7.57,9.39L410,296.45A6,6,0,0,1,406.26,297.78Z"/><rect class="r" x="411.82" y="318.79" width="71.32" height="5.42"/><polygon class="r" points="479.04 431.04 457 326.6 463.83 325.75 486.04 431.04 479.04 431.04"/><polygon class="r" points="421.03 431.04 443.06 326.6 436.24 325.75 414.03 431.04 421.03 431.04"/><rect class="p" x="408.77" y="324.22" width="77.41" height="5.42"/><circle class="l" cx="569.39" cy="286.75" r="24.74"/><path class="g" d="M547.84,305.88c4-5.6,13.67-14.93,33.53-14.45,18.19.44,26.16,7.24,32.57,12.7,2.91,2.48,5.13,4.35,7.86,5.36h0c-1,3.43-2.15,7.56-2.82,10-4.83-1.6-8.34-4.56-11.74-7.46-.77-.66-1.55-1.32-2.35-2l-6.18,44.89-36.93-.54-4.52-43.69c-.33.39-.69.76-1,1.18-3.39,4.76-4.5,10.76-2.81,15.29a5.17,5.17,0,1,1-9.69,3.6C540.87,323,542.43,313.46,547.84,305.88Z"/><path class="c" d="M598.7,305.73a110.92,110.92,0,0,0-.52-11.45c7.22,2.58,11.79,6.47,15.76,9.85,2.91,2.48,5.13,4.35,7.86,5.36h0c-1,3.43-2.15,7.56-2.82,10-4.83-1.6-8.34-4.56-11.74-7.46-.77-.66-1.55-1.32-2.35-2l-6.18,44.89-6.6-.1C594.17,344.88,598.52,322.08,598.7,305.73Z"/><path class="u" d="M621.79,309.49a13.24,13.24,0,0,0,3.86.82c10.57.68,17.5-10.93,17.6-11.09a5.17,5.17,0,0,1,9,5.17c-.41.71-10.16,17.32-27.2,16.24a23.65,23.65,0,0,1-6-1.17C619.64,317,620.79,312.92,621.79,309.49Z"/><path class="g" d="M619,319.46c.33.11.66.2,1,.3C619.64,319.66,619.3,319.57,619,319.46Z"/><path class="g" d="M621.87,320.22l.56.09Z"/><path class="g" d="M623.5,310l.17,0Z"/><path class="u" d="M583.13,354.38H561.77c0,4.91,7.88,63.49,7.88,63.49l3.87,31.18,7.65.57"/><path class="v" d="M580.94,448.85l2.42.21h4.22l5.16-39.59s8-46,8.61-49.08a10.46,10.46,0,0,0-.3-5.36L587,354.38h-3.87"/><path class="x" d="M593.9,457.38a7.41,7.41,0,1,0-14.8,0"/><polyline class="x" points="588.44 446.88 588.44 448.79 590.36 453.25 577.87 453.25 577.87 446.88"/><path class="y" d="M572,451.41a10,10,0,0,1,5.59-1.85c4.73,0,8.56,3.5,8.56,7.82H572"/><polyline class="y" points="580.94 446.88 580.94 448.85 582.28 453.48 571.96 453.48 571.96 446.88"/><path class="l" d="M607.27,400.31H555.1s-6-59.53,24.87-59.53S607.27,400.31,607.27,400.31Z"/><rect class="p" x="568.38" y="345.08" width="0.42" height="0.42" transform="translate(1137.18 690.59) rotate(-180)"/><rect class="x" x="659.49" y="288.16" width="1.99" height="1.1" transform="translate(924.08 959.62) rotate(-135.06)"/><rect class="x" x="656.44" y="291.21" width="1.99" height="1.1" transform="translate(916.72 962.68) rotate(-135.06)"/><rect class="x" x="653.07" y="294.59" width="1.99" height="1.1" transform="translate(908.57 966.07) rotate(-135.06)"/><rect class="x" x="651.1" y="279.46" width="1.99" height="1.1" transform="translate(915.89 938.83) rotate(-135.06)"/><rect class="x" x="648.05" y="282.51" width="1.99" height="1.1" transform="translate(908.53 941.89) rotate(-135.06)"/><rect class="x" x="644.68" y="285.89" width="1.99" height="1.1" transform="translate(900.38 945.28) rotate(-135.06)"/><path class="r" d="M621,324.35c4,1.76,9.13,5.69,7.69,15.23-1.76,11.7-15.74,12.84-19.12,17.55S607,377.37,595,384.22c-11,6.35-22-.42-30.59-9.64-10.94-11.73-16.15-24.57-5.53-35.89s19-5.29,24.81-9.17c6.48-4.3,5-14.59,12.4-15,6.17-.32,6.72,7.06,12.81,8.45C615.82,324.57,617,322.57,621,324.35Z"/><rect class="p" x="561.83" y="359.87" width="30.24" height="4.59" rx="1.26" ry="1.26" transform="translate(729.54 1026.07) rotate(-135.06)"/><circle class="p" cx="598.14" cy="340.94" r="11.66" transform="translate(171.95 881.65) rotate(-81.44)"/><circle class="x" cx="598.14" cy="340.94" r="8.62" transform="translate(171.95 881.65) rotate(-81.44)"/><path class="y" d="M641.31,292.85h0l2.1-3.53L654,278.68a1.79,1.79,0,0,1,2.53,0l5.19,5.16a1.79,1.79,0,0,1,0,2.53L651.15,297l-3.71,2L606.5,338.82a8.62,8.62,0,0,0-6.05-6.18Z"/><path class="u" d="M587.55,238.45c-.44-.13-.89-.25-1.35-.35l-.65-.13q-.65-.12-1.32-.2l-.6-.07c-.64-.06-1.29-.1-1.94-.1h0c-.65,0-1.29,0-1.93.1l-.61.07q-.66.08-1.31.2l-.66.13c-.45.1-.9.22-1.34.34l-.8.25c-.46.15-.92.32-1.36.5-.26.11-.51.23-.76.34s-.63.29-.94.45l-.75.41c-.3.17-.59.35-.88.54l-.69.45c-.32.22-.63.46-.94.71s-.36.27-.53.41q-.69.57-1.32,1.2c-.15.15-.28.3-.43.45-.29.3-.57.61-.84.92l-.45.56q-.37.47-.71,1l-.4.58c-.24.37-.47.74-.68,1.13-.09.16-.19.32-.28.48-.29.55-.57,1.11-.81,1.69,0,.1-.08.21-.12.31-.2.48-.38,1-.54,1.47-.06.2-.12.41-.18.61-.12.42-.23.84-.33,1.27,0,.22-.1.45-.14.67-.08.44-.15.89-.2,1.34,0,.2-.06.4-.08.61-.06.65-.1,1.31-.1,2h0v10.19h0c0,.67,0,1.33.1,2,0,.24.06.48.09.72.05.4.11.79.18,1.18s.12.6.19.9.15.6.23.9.2.69.31,1,.14.39.21.58a21.12,21.12,0,0,0,5.41,8.14l.12.11q.73.67,1.53,1.28l.39.29q.55.4,1.12.76l.82.5.73.39c.43.22.86.43,1.3.63l.55.22q.63.25,1.27.47l.41.14c.55.17,1.11.31,1.68.43l.43.09q.88.17,1.78.27l.34,0c.64.06,1.29.1,1.95.1h0c.66,0,1.31,0,1.95-.1l.34,0q.9-.1,1.78-.27l.43-.09c.57-.12,1.13-.26,1.68-.43l.41-.14q.64-.21,1.27-.46l.55-.22c.44-.19.87-.4,1.3-.63l.73-.4.8-.49q.58-.37,1.14-.77l.38-.29q.8-.61,1.54-1.29l.11-.1a21,21,0,0,0,6.73-15.43V258.73A21.12,21.12,0,0,0,587.55,238.45Z"/><path class="v" d="M576.41,287.1v4.5a6.13,6.13,0,0,0,12.25,0v-4.5"/><path class="v" d="M581.68,237.61a21,21,0,0,1,6.34,1c-.46,0-.92-.07-1.39-.07a19.54,19.54,0,0,0-19.55,19.55v11.11c0,10.8,8.75,16.56,19.55,16.56a19.45,19.45,0,0,0,11.82-4,21.1,21.1,0,0,1-37.89-12.81V258.73A21.12,21.12,0,0,1,581.68,237.61Z"/><path class="s" d="M577.17,265.45a1.21,1.21,0,0,0-.37.06,1.24,1.24,0,0,0-.88,1.19v.92a1.26,1.26,0,0,0,1.25,1.25,1.25,1.25,0,0,0,1.25-1.25v-.92A1.25,1.25,0,0,0,577.17,265.45Z"/><path class="s" d="M594.18,265.45a1.22,1.22,0,0,0-.37.06,1.24,1.24,0,0,0-.88,1.19v.92a1.26,1.26,0,0,0,1.25,1.25,1.25,1.25,0,0,0,1.25-1.25v-.92A1.25,1.25,0,0,0,594.18,265.45Z"/><path class="l" d="M580.85,233.24a21.31,21.31,0,0,0-21.25,21.25v16.07a21.36,21.36,0,0,0,10.32-11c1.75-3.12,2.34-8.54,7.4-8.54h24.49A21.24,21.24,0,0,0,580.85,233.24Z"/><path class="l" d="M604,259a7.61,7.61,0,1,0,0-15.22H592.76a7.61,7.61,0,1,0,0,15.22Z"/><circle class="v" cx="562.36" cy="267.82" r="4.14"/><path class="w" d="M591,276.25a55.57,55.57,0,0,1-5.81.41,30.52,30.52,0,0,1-6-.39s.92,5.7,5.92,5.39S591,276.25,591,276.25Z"/><path class="u" d="M553.32,326.91c0,.09.09.16.12.25,5.81,15.63,38.49,11.17,38.82,11.12a5.17,5.17,0,1,1,1.56,10.22,85.31,85.31,0,0,1-11.9.79c-12.66,0-31.63-2.7-37.83-17.8C546.82,330.14,550.66,328.22,553.32,326.91Z"/><path class="v" d="M593.7,293a7.6,7.6,0,0,1,.69,3.13c0,5.32-5.64,9.64-12.6,9.64s-12.6-4.32-12.6-9.64a7.71,7.71,0,0,1,1-3.77,52.09,52.09,0,0,1,11.18-.89A58.25,58.25,0,0,1,593.7,293Z"/><path class="u" d="M570.19,292.32c.94-.18,1.91-.33,2.91-.46.92,4.63,6.13,8.19,12.44,8.19a14.78,14.78,0,0,0,8.73-2.7c-.81,4.73-6.08,8.38-12.48,8.38-7,0-12.6-4.32-12.6-9.64A7.71,7.71,0,0,1,570.19,292.32Z"/><circle class="u" cx="647.96" cy="300.55" r="5.82"/><rect class="p" x="483.14" y="318.79" width="4.04" height="5.42"/><rect class="z" x="486.18" y="324.22" width="4.04" height="5.42"/><path class="i" d="M381.8,268.12a32.8,32.8,0,0,0-5.44-1.71v82.79h5.44Z"/><path class="h" d="M359.28,267.18a33,33,0,0,0-4.79,1.94v80.09h4.79v-82Z"/><path class="i" d="M370.65,329.32a6.05,6.05,0,0,1-.79-.05l-28.71-3.78a6,6,0,0,1-5.24-6V301.95a6,6,0,0,1,12.06,0v12.28l23.47,3.09a6,6,0,0,1-.78,12Z"/><rect class="y" x="372.25" y="309.78" width="2.72" height="23.32" rx="0.79" ry="0.79" transform="translate(100.69 -88.95) rotate(15.67)"/><path class="l" d="M378.48,311.27l-3.86-1,.63-2.25a4.92,4.92,0,0,1,1.62-2.52l1.36-1.12.74,1.8a4.36,4.36,0,0,1,.18,2.78Z"/><path class="e" d="M374.61,308.66h4.17a0,0,0,0,1,0,0v2.44a.88.88,0,0,1-.88.88h-2.41a.88.88,0,0,1-.88-.88v-2.44A0,0,0,0,1,374.61,308.66Z" transform="translate(93 -86.82) rotate(14.98)"/><path class="e" d="M376.76,310.21a1.36,1.36,0,0,0-1.68.94l-.3,1.08,2.63.7.29-1A1.36,1.36,0,0,0,376.76,310.21Z"/><rect class="y" x="370.24" y="311.47" width="2.25" height="23.32" rx="0.02" ry="0.02" transform="translate(16.07 -17.59) rotate(2.77)"/><path class="l" d="M373.1,311.43l-2.39-.09.08-1.82a4.69,4.69,0,0,1,.63-2.21l.65-1.1.66,1.23a4.14,4.14,0,0,1,.46,2.08Z"/><path class="e" d="M371.87,313.26h0a1.45,1.45,0,0,1-1.3-1.56l.06-1.81,2.69.11-.06,1.81A1.42,1.42,0,0,1,371.87,313.26Z"/><path class="e" d="M371.89,311.44a1.28,1.28,0,0,0-1.27,1.29l0,1.12,2.43.1,0-1.09A1.31,1.31,0,0,0,371.89,311.44Z"/><path class="u" d="M362,328.29l8.16,1.07a6.05,6.05,0,0,0,6.7-5.24,5.92,5.92,0,0,0-5-6.77l-8.3-1.09"/><circle class="u" cx="445.97" cy="238.41" r="7.43"/><path class="c" d="M449.87,250.85a4.88,4.88,0,0,1-7.91-1.78A4.06,4.06,0,0,0,437.1,247l-11,3.31a4.1,4.1,0,0,0-2.92,3.93V255a4.1,4.1,0,0,0,4.62,4.07l3.8-.48a4.1,4.1,0,0,1,4.58,4.63l-.49,3.57a4.1,4.1,0,0,0,3.56,4.63l10.58,1.31Z"/><path class="g" d="M459.41,249.58a4.09,4.09,0,0,0-4.13-2.24l-4.25.48a4,4,0,0,0-3,2v24.39l1.6.2a4.1,4.1,0,0,0,4.6-3.76l.14-1.83a4.11,4.11,0,0,1,7.93-1.15c.65,1.8.9,3.42.38,4.53a24.9,24.9,0,0,1-4.82,6.41,2.36,2.36,0,0,0,3,3.64c3.08-2,9.33-7.11,7.11-13.47A198.22,198.22,0,0,0,459.41,249.58Z"/><rect class="y" x="433.18" y="256.79" width="2.72" height="23.32" rx="0.79" ry="0.79" transform="translate(48.5 -66.01) rotate(9.2)"/><rect class="l" x="434.84" y="251.69" width="4" height="4.55" transform="translate(42.39 -61.84) rotate(8.51)"/><path class="e" d="M434.27,255.39h4.17a0,0,0,0,1,0,0v2.44a.88.88,0,0,1-.88.88h-2.41a.88.88,0,0,1-.88-.88v-2.44a0,0,0,0,1,0,0Z" transform="matrix(0.99, 0.15, -0.15, 0.99, 42.84, -61.74)"/><path class="e" d="M436.4,256.94a1.36,1.36,0,0,0-1.56,1.13l-.18,1.11,2.69.4.17-1.08A1.36,1.36,0,0,0,436.4,256.94Z"/><path class="g" d="M435.19,251.42a16.06,16.06,0,0,0,2.35,1.16c1.26.49,1.52,0,1.52,0l.09-.57Z"/><path class="u" d="M431.15,279.63l6.36-5.23a6.05,6.05,0,0,0,.75-8.47,5.92,5.92,0,0,0-8.37-1l-6.46,5.32"/><path class="aa" d="M1116.17,295.91c-1.77-1.81-9.28-8.8-19.51-8.8h0c-7.33,0-14.15,3.49-20.26,10.34s-7.47,17.83-8.1,27.78a231.53,231.53,0,0,0,.46,30.43l10.37.41a250.8,250.8,0,0,1-.3-30.19c.44-7.08,1.49-17,5.44-21.42s8.16-6.79,12.34-6.82h.09c6.72,0,12,5.67,12,5.71a5.59,5.59,0,0,0,.81.73c.45.34,10.43,13.69,12.1,30.45a5.28,5.28,0,1,0,10.5-1C1130.13,313.71,1118.71,297.91,1116.17,295.91Z"/><rect class="t" x="1104.22" y="438.24" width="10.63" height="13.04"/><path class="y" d="M1128.19,458.3h-5.68c-3.92,0-6.58-1.87-9.15-1.87a3.9,3.9,0,0,0-3.5,1.72h-6.81v-12a4.08,4.08,0,0,1,2.29,0c1.13.29,2.5-.25,3.87-.25a35.52,35.52,0,0,0,6.18-.66s3.91,1.63,7.48,3.58,7.49,2.93,7.49,6.51C1130.37,455.29,1130.66,458.3,1128.19,458.3Z"/><rect class="t" x="1047.04" y="421.4" width="13.04" height="10.63" transform="translate(-74.38 567.51) rotate(-29.16)"/><path class="y" d="M1051.67,449.95l-2.77-5c-1.91-3.42-1.58-6.66-2.83-8.9a3.9,3.9,0,0,0-3.21-2.21l-3.31-5.94,10.52-5.87a4.11,4.11,0,0,1,1.12,2c.29,1.13,2.06,2.39,2.72,3.58,1.45,2.61,3,4.76,3,4.76s.48,4.2.52,8.28,1.09,8-2,9.71C1055.36,450.38,1052.87,452.1,1051.67,449.95Z"/><rect class="ab" x="1103.07" y="351.38" width="13.65" height="95.14"/><path class="ab" d="M1078.15,357a21.32,21.32,0,1,0,42.64,0"/><path class="ab" d="M1056.6,433.61c.16-.09,11.95-8.74,25-16.73,9.87-6,11-8.5,14.59-22.9,3.07-12.42,9.08-37,9.16-37.28l-11.88-3.09c-.08.32-6.11,24.94-9.2,37.43-2.86,11.58-2.86,11.58-9.08,15.38-13,7.93-25.77,16.09-25.93,16.19Z"/><polygon class="aa" points="1120.71 358.07 1074.89 358.07 1078.95 296.47 1116.72 296.47 1120.71 358.07"/><path class="ac" d="M1089.28,288.29l-3,1.32a9.05,9.05,0,0,0,.61,5.71c3.52,8.95,19.34,16.39,19.34,16.39s2.34-10.88.81-15.48c-2.32-7-3.84-8.55-7.31-10C1095.07,284.17,1089.28,288.29,1089.28,288.29Z"/><path class="u" d="M1099.35,249.61c-4.76,0-7,1.87-7,8a20.09,20.09,0,0,1-9.7,10.31v1a20,20,0,0,0,40,0V252.85a20.07,20.07,0,0,0-.28-3.24Z"/><path class="x" d="M1102.67,232.87a20,20,0,0,0-20,20V268a20.09,20.09,0,0,0,9.7-10.31c0-6.16,2.2-8,7-8h23A20,20,0,0,0,1102.67,232.87Z"/><path class="x" d="M1112.4,232.86a7.71,7.71,0,1,1,0,15.42h-11.54a7.71,7.71,0,1,1,0-15.42Z"/><path class="u" d="M1117.37,273.74a3.93,3.93,0,0,0,7.85,0c0-2.17-1.76-7.85-3.92-7.85S1117.37,271.57,1117.37,273.74Z"/><path class="s" d="M1121.48,264a1.26,1.26,0,0,1,1.25,1.26v.92a1.23,1.23,0,0,1-.26.76,1.24,1.24,0,0,1-1,.5,1.26,1.26,0,0,1-1.26-1.26v-.92A1.26,1.26,0,0,1,1121.48,264Z"/><path class="s" d="M1111.86,264a1.26,1.26,0,0,1,1.25,1.26v.92a1.25,1.25,0,1,1-2.51,0v-.92A1.26,1.26,0,0,1,1111.86,264Z"/><path class="x" d="M1116.62,238.08h8a5.44,5.44,0,0,1,5.45,5.37h0v0s0,0,0,.06,0,.12,0,.18a12,12,0,0,1-24-.26h5.13A5.44,5.44,0,0,1,1116.62,238.08Z"/><path class="x" d="M1080.42,254.51v-2.87a18.81,18.81,0,0,1,18.81-18.81h13.17l-24.54,19.22a4.37,4.37,0,0,1,1.28,3.1v6.22a4.57,4.57,0,0,1-3.95,4.62,4.39,4.39,0,0,1-4.84-4.37v-6.48A4.15,4.15,0,0,1,1080.42,254.51Z"/><path class="x" d="M1080.36,252.73h12a0,0,0,0,1,0,0v21.08a3.2,3.2,0,0,1-3.2,3.2h-5.57a3.2,3.2,0,0,1-3.2-3.2V252.73A0,0,0,0,1,1080.36,252.73Z"/><circle class="u" cx="1092.34" cy="268.45" r="5.89"/><rect class="u" x="1091.85" y="279.32" width="9.82" height="14.34" rx="2.85" ry="2.85"/><polygon class="u" points="1094.41 293.1 1101.67 296.23 1101.67 289.75 1094.41 293.1"/><path class="q" d="M1091.85,285.7c-.46.56-2.85,2.87-2.85,2.87l-.1,2a9.94,9.94,0,0,0,2.15,5.69c2.39,3,9.1,7.25,9.1,7.25l1.52-7.25-7.74-4.65a3.91,3.91,0,0,1-1.94-3.14Z"/><path class="q" d="M1101.48,296.23c.49.24,6.43,4.61,6.43,4.61l-2.09-7.88c-.25-.93-.73-3.43-1.68-4.06h-2.47Z"/><path class="b" d="M1100.44,302.08c0-.13,4.7,3.82,4.7,3.82l.91-6.42-4.39-3.25-1.19,5.48Z"/><rect class="x" x="1080.33" y="354.09" width="40.47" height="4.12"/><path class="x" d="M1050.78,381.11h50.43a4.17,4.17,0,0,0,4.17-4.17v24.87a4.17,4.17,0,0,1-4.17,4.17h-50.43a4.17,4.17,0,0,1-4.17-4.17V376.94A4.17,4.17,0,0,0,1050.78,381.11Z"/><rect class="y" x="1046.61" y="367.84" width="58.77" height="13.27" rx="4.17" ry="4.17"/><path class="n" d="M1089.37,383.1a1.32,1.32,0,0,0,1.32,1.32h0a1.32,1.32,0,0,0,1.32-1.32V379a1.32,1.32,0,0,0-1.32-1.32h0a1.32,1.32,0,0,0-1.32,1.32Z"/><path class="n" d="M1061.68,383.1a1.32,1.32,0,0,0,1.32,1.32h0a1.32,1.32,0,0,0,1.32-1.32V379a1.32,1.32,0,0,0-1.32-1.32h0a1.32,1.32,0,0,0-1.32,1.32Z"/><path class="u" d="M1080.33,355.67v6.42a2.25,2.25,0,1,1-4.51,0v-6.42"/><path class="y" d="M1083.34,368.65H1080a5.77,5.77,0,1,0-11.54,0h-3.33a9.1,9.1,0,1,1,18.2,0Z"/><path class="u" d="M1078.34,355.67v6.7a4.81,4.81,0,1,1-9.61,0v-6.7"/><rect class="r" x="1102.64" y="316.46" width="20.72" height="39.62"/><path class="aa" d="M1116.3,347.18a5.28,5.28,0,0,1-.09-10.31l.49-.11c4.05-.87,4.8-1.72,4.93-2,2.21-3.52,2.9-5,5.8-4.68a5.28,5.28,0,0,1,4.68,5.81c-.6,5.64-5,9.39-13.2,11.14l-.38.08A5.25,5.25,0,0,1,1116.3,347.18Z"/><path class="u" d="M1123,339.78a14.24,14.24,0,0,0-2.2-4.32,15.9,15.9,0,0,1-4.11,1.31l-.49.11a5.27,5.27,0,1,0,2.32,10.29l.38-.08a29.3,29.3,0,0,0,4.92-1.49A22,22,0,0,0,1123,339.78Z"/><rect class="b" x="1100.52" y="316.46" width="2.12" height="39.62"/><rect class="q" x="1101.58" y="316.46" width="1.06" height="39.62"/><rect class="q" x="1099.51" y="316.46" width="1.06" height="39.62"/><circle class="x" cx="1080.86" cy="268.45" r="3.67"/><circle class="x" cx="1082.7" cy="262.56" r="3.67"/><circle class="x" cx="1121.75" cy="238.81" r="3.67"/><circle class="x" cx="1116.63" cy="235.96" r="3.67"/><path class="ad" d="M992,421.14a7.5,7.5,0,0,1-6.72-4.15L971.46,389.3c-.06-.13-.12-.26-.18-.39l-19-44.13a7.5,7.5,0,0,1,13.78-5.93L985,382.79l13.72,27.49a7.5,7.5,0,0,1-6.7,10.85Z"/><rect class="s" x="980.11" y="426.39" width="26.02" height="3.42" transform="translate(-88.14 448.71) rotate(-24.41)"/><path class="s" d="M981,432.78a11,11,0,0,1,20-9.08"/><rect class="s" x="985.11" y="405.04" width="16.91" height="23.58" transform="translate(-83.45 447.89) rotate(-24.41)"/><path class="ad" d="M950.44,331.87h42.13a0,0,0,0,1,0,0v7.87a13.73,13.73,0,0,1-13.73,13.73H964.17a13.73,13.73,0,0,1-13.73-13.73v-7.87A0,0,0,0,1,950.44,331.87Z"/><path class="ae" d="M953.42,423.42a7.51,7.51,0,0,1-7.27-9.36l8.55-33.38a7.56,7.56,0,0,1,.53-1.43l16.23-44.07c1.82-3.73,10.61-3.27,14.33-1.45s6.54,7.38,4.72,11.1L969,385.14l-8.36,32.64A7.5,7.5,0,0,1,953.42,423.42Z"/><rect class="s" x="932.7" y="428.31" width="26.02" height="3.42" transform="translate(104.14 -179.12) rotate(11.45)"/><path class="s" d="M933.11,426.68A11,11,0,0,1,954.63,431"/><rect class="s" x="944.21" y="409.34" width="16.91" height="23.58" transform="translate(102.52 -180.68) rotate(11.45)"/><path class="af" d="M957,272.18c-8.67,7.16-10.48,21.25-11.6,29.93-.39,3.05-.84,6.51-1.33,7.69-2.1,5-12.59,17.87-18.71,24.85a5.83,5.83,0,0,0,8.77,7.69,262.06,262.06,0,0,0,16.32-20.56"/><path class="b" d="M950.44,321.78v16.51h42.13V294.77a60.21,60.21,0,0,1,5,11.52c2.08,6.58,3.27,28.64,3.56,36.58a5.84,5.84,0,0,0,5.83,5.62h.21a5.83,5.83,0,0,0,5.62-6c-.11-3.09-1.17-30.41-4.09-39.68-2.6-8.23-13-35.09-38.3-35.09A20.35,20.35,0,0,0,957,272.18"/><path class="ae" d="M990,346a16.16,16.16,0,0,0,2.59-8.78v-3.75H950.44v3.75A16.16,16.16,0,0,0,953,346Z"/><path class="r" d="M987.21,286.35c-.22-3.31,1-10.36,1.5-13.07a32.92,32.92,0,0,0-6.6-3.45c-.16,3.11-1.4,12.13-10.68,10.81-7.89-1.12-9-7.78-8.94-11.61a19.42,19.42,0,0,0-8.43,6.14c.78,2.66.51,8.47.19,10.11-.94,4.81-2.06,6.21-2.06,6.21l-1.75,42h42.13V294.77S987.49,290.5,987.21,286.35Z"/><rect class="ab" x="983.58" y="339.9" width="37.98" height="27.14"/><path class="x" d="M985.31,250l-1.24,10.73a8.17,8.17,0,0,0,3.49,7.67l8.72,6,1.13-8.47a9,9,0,0,0-3-8Z"/><path class="u" d="M972.81,227.42c4.84,0,5.4,5.19,7.08,8.18a20.45,20.45,0,0,0,9.88,10.5v1a20.34,20.34,0,0,1-40.68,0v-16.4a20.43,20.43,0,0,1,.29-3.3Z"/><path class="x" d="M969.43,210.37a20.39,20.39,0,0,1,20.34,20.34V246.1a20.45,20.45,0,0,1-9.88-10.5c-1.68-3-2.24-8.18-7.08-8.18H949.37A20.34,20.34,0,0,1,969.43,210.37Z"/><path class="u" d="M972.81,227.42c4.84,0,5.4,5.19,7.08,8.18a20.45,20.45,0,0,0,9.88,10.5v1a20.34,20.34,0,0,1-40.68,0v-16.4a20.43,20.43,0,0,1,.29-3.3Z"/><path class="x" d="M969.49,210.37a20.46,20.46,0,0,1,20.41,20.41v15.44A20.52,20.52,0,0,1,980,235.68c-1.68-3-2.25-8.21-7.11-8.21H949.37A20.4,20.4,0,0,1,969.49,210.37Z"/><path class="u" d="M955.77,247.22A4,4,0,0,1,954.1,255c-2.16-.46-7.44-3.42-7-5.58S953.62,246.75,955.77,247.22Z"/><path class="s" d="M950.27,242A1.29,1.29,0,0,0,949,243.3v.94a1.25,1.25,0,0,0,.26.78,1.27,1.27,0,0,0,1,.51,1.28,1.28,0,0,0,1.28-1.28v-.94A1.28,1.28,0,0,0,950.27,242Z"/><path class="s" d="M960.07,242a1.29,1.29,0,0,0-1.28,1.28v.94a1.28,1.28,0,1,0,2.55,0v-.94A1.28,1.28,0,0,0,960.07,242Z"/><path class="x" d="M945.1,230.94s2,5.54,10.7,5c13-.77,15.63-9.06,15.63-9.06l-21.16-1.19Z"/><path class="p" d="M947.61,228.76l1.2-5.13A22.17,22.17,0,1,1,992,233.7l-1.2,5.13"/><path class="r" d="M987.75,221.27a.84.84,0,0,1-.78-.54A18.2,18.2,0,0,0,975,210.54a19.36,19.36,0,0,0-14.89,2.63.83.83,0,0,1-1-1.35,20.7,20.7,0,0,1,16.28-2.9,19.56,19.56,0,0,1,13.09,11.22.83.83,0,0,1-.48,1.07A.82.82,0,0,1,987.75,221.27Z"/><rect class="r" x="939" y="229.99" width="53.64" height="3.88" rx="1.02" ry="1.02" transform="translate(78.78 -215.02) rotate(13.24)"/><path class="x" d="M982.14,239.42v11.42a14,14,0,0,0,3.32,9,20.61,20.61,0,0,0,4.45-12.81v-1A20.81,20.81,0,0,1,982.14,239.42Z"/><circle class="u" cx="982.14" cy="245.52" r="5.08"/><rect class="u" x="968.36" y="261.99" width="7.89" height="12.21" rx="2.37" ry="2.37"/><ellipse class="u" cx="972.05" cy="271.8" rx="5.62" ry="3.71"/><path class="u" d="M1001.16,342.88a5.84,5.84,0,0,0,5.83,5.62h.21a5.83,5.83,0,0,0,5.62-6c0-.75-.11-2.95-.26-6h-11.69C1001,339,1001.1,341.26,1001.16,342.88Z"/><path class="v" d="M930.31,328.82c-1.79,2.15-3.5,4.16-5,5.83a5.83,5.83,0,0,0,8.77,7.69c.53-.6,2.32-2.66,4.65-5.45Z"/><rect class="b" x="982.93" y="347.21" width="2.46" height="11.26"/><path class="b" d="M981.39,351.1h2.83a0,0,0,0,1,0,0v3.47a0,0,0,0,1,0,0h-2.83a1,1,0,0,1-1-1v-1.39A1,1,0,0,1,981.39,351.1Z"/><path class="p" d="M959.61,270.41a20,20,0,0,0-5.55,4.76c.78,2.66.51,8.47.19,10.11-.94,4.81-2.06,6.21-2.06,6.21l-1.75,42h7.95Z"/><polygon class="w" points="951.55 306.81 992.57 306.81 992.57 302.43 951.74 302.43 951.55 306.81"/><polygon class="w" points="950.91 322.28 992.57 322.28 992.57 317.9 951.09 317.9 950.91 322.28"/><path class="c" d="M692.13,355.28a4.85,4.85,0,0,0,1.58-.27l20.11-7a4.81,4.81,0,0,0,.64-.27,15.09,15.09,0,0,0,7.23-8.38l10.61-30.68a5.9,5.9,0,0,0-3.05-7.39,5.12,5.12,0,0,0-6.76,3.33l-10.57,30.58a4,4,0,0,1-1.65,2l-19.72,6.81a5.85,5.85,0,0,0-3.42,7.19A5.31,5.31,0,0,0,692.13,355.28Z"/><rect class="l" x="724.81" y="374.16" width="14.65" height="73.12"/><rect class="l" x="748.03" y="374.16" width="14.64" height="73.12"/><path class="t" d="M738.3,457.5a9.71,9.71,0,0,1,9.72-9.56v-1.55h14.65v11.14H748v0H738.3Z"/><path class="t" d="M724.7,446.38v1.56a10.26,10.26,0,0,0-3.21.63,9.57,9.57,0,0,0-6.42,8.92h9.63v0h14.76V446.38Z"/><path class="l" d="M755.83,356.89v11.23a12.39,12.39,0,0,1-12.58,12.19h10.64a12.39,12.39,0,0,0,12.58-12.19V356.89Z"/><path class="l" d="M756.13,368.12V356.89H722v11.23a12.45,12.45,0,0,0,12.69,12.19h8.72A12.45,12.45,0,0,0,756.13,368.12Z"/><path class="g" d="M721.13,290.15h45.33a0,0,0,0,1,0,0v46.24a20.5,20.5,0,0,1-20.5,20.5h0a24.83,24.83,0,0,1-24.83-24.83V290.15a0,0,0,0,1,0,0Z" transform="translate(1487.6 647.04) rotate(-180)"/><path class="c" d="M745.58,290.53l3.18,1.11a9.23,9.23,0,0,1-.07,5.86c-2.71,9.51-19.18,18.71-19.18,18.71s-4.86-11.65-3-16.83c2-5.68,4.9-7,9.18-8.34A21.1,21.1,0,0,1,745.58,290.53Z"/><path class="ag" d="M739.47,291.21c-3.06,0-7.81,2.81-9.16,6.67-1.24,3.52,1,10.46,1,10.46s11.42-5.33,13.55-10.93C745.55,295.58,745.08,291.21,739.47,291.21Z"/><rect class="v" x="732.69" y="282.06" width="10.1" height="14.75" rx="3.7" ry="3.7" transform="translate(1499.97 506.3) rotate(174.46)"/><polygon class="v" points="741.8 295.81 733.76 300.98 733.08 294 741.8 295.81"/><rect class="q" x="709.02" y="252.24" width="12.87" height="20.51" rx="6.04" ry="6.04" transform="translate(1447.22 475.34) rotate(176.07)"/><path class="u" d="M755.66,265.15l-1.85-11.85a21.93,21.93,0,0,0-43.33,6.75l1.85,11.85a21.93,21.93,0,1,0,43.33-6.75Z"/><path class="v" d="M715.07,243.09a21.87,21.87,0,0,0-1.49,12.37l2,11.83a21.88,21.88,0,0,0,25.19,18,21.66,21.66,0,0,0,13.31-7.84,21.8,21.8,0,0,1-41.55-5.08l-2-11.83A21.88,21.88,0,0,1,715.07,243.09Z"/><path class="s" d="M719.77,265.14a1.23,1.23,0,0,0-.37.11,1.26,1.26,0,0,0-.73,1.31l.12.92a1.27,1.27,0,0,0,1.41,1.09,1.26,1.26,0,0,0,1.1-1.41l-.12-.92A1.27,1.27,0,0,0,719.77,265.14Z"/><path class="s" d="M736.78,262.43a1.23,1.23,0,0,0-.37.11,1.26,1.26,0,0,0-.73,1.31l.12.92a1.27,1.27,0,0,0,1.41,1.09,1.26,1.26,0,0,0,1.1-1.41l-.12-.92A1.27,1.27,0,0,0,736.78,262.43Z"/><rect class="q" x="748.09" y="246.24" width="12.87" height="21.83" rx="6.44" ry="6.44" transform="translate(1536.95 409.6) rotate(172.2)"/><path class="w" d="M730.37,278.53a26.61,26.61,0,0,0,5.27-1.44c-.39,2-2.92,3.37-4.77,3.56a5.4,5.4,0,0,1-5.37-2.23A23,23,0,0,0,730.37,278.53Z"/><path class="u" d="M758.64,263.3a4.05,4.05,0,0,0-6.32-.11,5.78,5.78,0,0,0,.18,7.32,4.05,4.05,0,0,0,6.32.11A5.78,5.78,0,0,0,758.64,263.3Z"/><path class="q" d="M724.41,273a10.67,10.67,0,0,1,15.06,2.65,7.76,7.76,0,0,1-9.67.39,7.76,7.76,0,0,1-9.35,2.5A7.78,7.78,0,0,1,724.41,273Z"/><path class="u" d="M688.71,344.65l7.73-2.57,4.52,11.1-8.75,2.66-.53.14a6,6,0,0,1-7.05-4A5.94,5.94,0,0,1,688.71,344.65Z"/><path class="g" d="M765.13,317.24c-.33.11-.67.21-1,.3C764.46,317.45,764.8,317.35,765.13,317.24Z"/><path class="g" d="M762.2,318l-.57.09Z"/><path class="g" d="M760.54,307.66l-.17,0Z"/><circle class="r" cx="693.2" cy="347.9" r="3.77"/><path class="p" d="M693,345.29a3,3,0,0,1,2.83,4.15,3,3,0,1,0-5.45-2.65A3,3,0,0,1,693,345.29Z"/><circle class="r" cx="700.02" cy="352.87" r="3.77"/><path class="p" d="M699.8,350.26a3,3,0,0,1,2.83,4.15,3,3,0,1,0-5.45-2.65A3,3,0,0,1,699.8,350.26Z"/><path class="g" d="M701.94,363l.55,0,29-2.59a14.32,14.32,0,0,0,11.73-8.3L757,321.91a6.11,6.11,0,1,0-11.11-5.07L732.09,347a2.08,2.08,0,0,1-1.71,1.21l-29,2.59a6.11,6.11,0,0,0,.54,12.19Z"/><path class="u" d="M701.4,350.81l8.54-.76,1.66,12.11-9.11.82-.55,0a6.11,6.11,0,0,1-.54-12.19Z"/><path class="c" d="M733.53,321.44l10.28-.14s1.77,13.23-5.31,12.83S733.53,321.44,733.53,321.44Z"/><path class="ab" d="M786.22,331.91a10.16,10.16,0,0,1-6.12.36l-.31-.09-27.47-8.79a5.23,5.23,0,0,1,3.19-10l27,8.65,13.76-26a5.23,5.23,0,0,1,9.25,4.89l-13.93,26.33A10.54,10.54,0,0,1,786.22,331.91Z"/><path class="ac" d="M798.26,455.58a5.9,5.9,0,0,1,11.8,0"/><rect class="ac" x="804.08" y="449.68" width="9.8" height="5.88"/><rect class="b" x="798.29" y="455.47" width="15.59" height="1.88"/><path class="v" d="M813.23,449.68c0,1.56-1.68,2.83-3.75,2.83s-3.75-1.27-3.75-2.83"/><rect class="v" x="805.76" y="441.6" width="6.7" height="8.08"/><rect class="u" x="812.45" y="441.62" width="7.48" height="8.08"/><path class="ac" d="M816.38,291.21c4.27.51,7.41,6.65,7.14,14"/><path class="b" d="M810.3,351.11h21.63c0,5-8,64.29-8,64.29L820,447,812,447"/><path class="ah" d="M812,447l-2,0h-4.27l-5.22-40.08s-8.12-46.55-8.72-49.7a10.59,10.59,0,0,1,.3-5.43l14.23-.65h3.92"/><path class="b" d="M831.93,351.11H790.54s.23,20.06,19.52,20.06C832.34,371.17,831.93,351.11,831.93,351.11Z"/><path class="ah" d="M798,351.11h-7.43s.23,20.13,19.42,20.2C798.51,366.74,798,352,798,351.11Z"/><path class="p" d="M778,333.92l-2.64,7.16a.48.48,0,0,1-.46.3h-2.75a.47.47,0,0,1-.48-.45v-7.16a.47.47,0,0,1,.48-.45h5.39A.45.45,0,0,1,778,333.92Z"/><path class="r" d="M783.59,333.93,781,341.08a.48.48,0,0,1-.46.3h-2.75a.47.47,0,0,1-.48-.45v-7.16a.47.47,0,0,1,.48-.45h5.39A.45.45,0,0,1,783.59,333.93Z"/><path class="p" d="M757.25,334l-2.64,7.16a.48.48,0,0,1-.46.3H751.4a.47.47,0,0,1-.48-.45v-7.16a.47.47,0,0,1,.48-.45h5.39A.45.45,0,0,1,757.25,334Z"/><path class="r" d="M762.83,334l-2.64,7.16a.48.48,0,0,1-.46.3H757a.47.47,0,0,1-.48-.45v-7.16a.47.47,0,0,1,.48-.45h5.39A.45.45,0,0,1,762.83,334Z"/><path class="p" d="M756.41,317.1a11.8,11.8,0,0,0-3.62-5.12c-2.47-2.19-8.25-3.52-8.25-3.52s-1.6,5.7,1.29,9.9,3.63,3.06,3.63,3.06Z"/><path class="r" d="M738.07,325.69c1.52-.2,4.47-.8,5.75-2.43a24.07,24.07,0,0,0,2.44-4.08,12.48,12.48,0,0,1,1.17-2.58v0h0a14.14,14.14,0,0,1,12.19-6.67H776c7.71,0,14,5.84,13.95,13h0c0,7.19-6.26,13-14,13h-16.4c-.33,0-.65,0-1,0a60.87,60.87,0,0,1-9.71-.86,62,62,0,0,1-9.85-2.84.8.8,0,0,1-.5-.54l-1.26-5.05A.79.79,0,0,1,738.07,325.69Z"/><g class="d"><path class="p" d="M737.53,326l1.06,4.25a.8.8,0,0,0,.5.54,62,62,0,0,0,9.85,2.84,60.87,60.87,0,0,0,9.71.86c.32,0,.64,0,1,0H776c7.45,0,13.52-5.43,13.93-12.28,0,.24,0,.48,0,.73h0c0,7.19-6.26,13-14,13h-16.4c-.33,0-.65,0-1,0a60.87,60.87,0,0,1-9.71-.86,62,62,0,0,1-9.85-2.84.8.8,0,0,1-.5-.54l-1.26-5.05A.68.68,0,0,1,737.53,326Z"/></g><path class="r" d="M759.45,317a11.8,11.8,0,0,0-3.62-5.12c-2.47-2.19-8.25-3.52-8.25-3.52s-1.6,5.7,1.29,9.9,3.63,3.06,3.63,3.06Z"/><rect class="x" x="760.34" y="311.69" width="16.76" height="0.91" transform="translate(1537.21 624.85) rotate(-179.96)"/><path class="ai" d="M805.08,285.14A14.72,14.72,0,0,0,794,298.47l-3.42,52.64h41.39l-.43-49.76a16.58,16.58,0,0,0-17-16.43l-9.43.23"/><path class="ab" d="M812.52,285.14l4.32-.1a16.64,16.64,0,0,0-2.32-.12l-9.43.23A14.72,14.72,0,0,0,794,298.47l-3.42,52.64H798l3.42-52.64A14.72,14.72,0,0,1,812.52,285.14Z"/><circle class="ab" cx="807.49" cy="302.72" r="0.72"/><circle class="ab" cx="807.49" cy="311.05" r="0.72"/><circle class="ac" cx="807.49" cy="336.15" r="0.72"/><circle class="ab" cx="807.49" cy="342.82" r="0.72"/><circle class="ab" cx="807.49" cy="319.38" r="0.72"/><path class="ab" d="M801.69,286.5h0c-1.16,3.78-2.39,12.23,4.85,13.72,7.54,1.55,13.62-8,14.36-14.19a16.52,16.52,0,0,0-6.39-1.12l-9.43.23a14.66,14.66,0,0,0-1.83.62Q802.45,286.09,801.69,286.5Z"/><circle class="q" cx="825.06" cy="239.01" r="11.15" transform="translate(-30.22 159.36) rotate(-10.83)"/><path class="v" d="M817.43,277.39v5.82c0,4.38-2.78,7.92-6.2,7.92s-6.21-3.54-6.21-7.92v-5.82"/><path class="u" d="M829.5,261.31,829,251a21.39,21.39,0,0,0-42.73,2.05l.49,10.3a21.39,21.39,0,0,0,42.73-2.05Z"/><path class="v" d="M806.62,230.67a21.27,21.27,0,0,1,6.46.68c-.47,0-.93,0-1.41,0a19.79,19.79,0,0,0-18.82,20.72l.54,11.24c.52,10.92,9.65,16.32,20.57,15.8a19.7,19.7,0,0,0,11.76-4.62,21.37,21.37,0,0,1-38.94-11.12l-.49-10.3A21.39,21.39,0,0,1,806.62,230.67Z"/><path class="s" d="M809.13,258.77a1.23,1.23,0,0,1,.38,0,1.26,1.26,0,0,1,.94,1.16l0,.93a1.27,1.27,0,0,1-1.2,1.32A1.26,1.26,0,0,1,808,261l0-.93A1.27,1.27,0,0,1,809.13,258.77Z"/><path class="s" d="M792.54,259.57a1.24,1.24,0,0,1,.38,0,1.26,1.26,0,0,1,.94,1.16l0,.93a1.27,1.27,0,0,1-1.2,1.32,1.26,1.26,0,0,1-1.32-1.2l0-.93A1.26,1.26,0,0,1,792.54,259.57Z"/><path class="w" d="M796,271.64a27.48,27.48,0,0,0,6.54.61,25.38,25.38,0,0,0,6.61-1.1,7.19,7.19,0,0,1-6.77,4.4A6.34,6.34,0,0,1,796,271.64Z"/><path class="v" d="M805.8,283.48a13.74,13.74,0,0,0-1.68,2.72c-2.29,4.88-1.41,10.12,2,11.7s8-1.1,10.24-6a13.59,13.59,0,0,0,1.13-3.68,15.19,15.19,0,0,0-5-3.35A17.56,17.56,0,0,0,805.8,283.48Z"/><path class="u" d="M817.64,287.38c0-.53-.2-2.81-.2-2.81s-4.26,8.27-10.73,7.26c-1.79-.28-2.69-2.41-3.07-4.46-1.64,4.52-.66,9.07,2.44,10.52,3.37,1.58,8-1.1,10.24-6A11.51,11.51,0,0,0,817.64,287.38Z"/><path class="q" d="M828.37,246.46a21.14,21.14,0,0,0-2-4.9,21.47,21.47,0,0,0-39.92,6.91l33.2-1.59a3.29,3.29,0,0,1,3.45,3.12l.66,13.71,5.76-.28a21.24,21.24,0,0,0,0-2.22l-.49-10.3A21.33,21.33,0,0,0,828.37,246.46Z"/><circle class="u" cx="827.22" cy="263.31" r="4.19" transform="translate(-11.67 39.96) rotate(-2.75)"/><path class="q" d="M782.29,248.41c.26,0,2.69,6.64,13.72,4.34s10.34-9.36,10.34-9.36Z"/><path class="aa" d="M805,455.6a5.9,5.9,0,1,1,11.8,0"/><rect class="aa" x="810.78" y="449.7" width="9.8" height="5.88"/><rect class="b" x="804.99" y="455.49" width="15.59" height="1.88"/><path class="u" d="M819.93,449.7c0,1.56-1.68,2.83-3.75,2.83s-3.75-1.27-3.75-2.83"/><path class="ab" d="M797.5,325.61l7.71,1.33,10-27.69a5.23,5.23,0,0,1,9.84,3.56l-10.14,28a10.54,10.54,0,0,1-4.69,5.35,10.16,10.16,0,0,1-6,1.21l-.32,0-8-1.37"/><path class="v" d="M794.5,335.71l2-10.27-19.25-3.32a5.23,5.23,0,0,0-1.78,10.31l19,3.28"/><path class="aj" d="M227.87,324.64a4.5,4.5,0,0,1-1.69-.33c-7.76-3.15-16.53-6.61-18.3-7.16a4.5,4.5,0,0,1,.05-8.87c1.27-.21,1.74-.29,13.27,4.33l-6.31-23.69a4.5,4.5,0,1,1,8.7-2.32L232.22,319a4.5,4.5,0,0,1-4.35,5.66Zm-18.49-7.48h0Z"/><rect class="ae" x="214.41" y="281.61" width="10.89" height="18.65" rx="2.06" ry="2.06" transform="translate(138.33 -64.5) rotate(24.16)"/><path class="ae" d="M260.46,391.41,226,359a2,2,0,0,0-.16-.16l-.64-.67,0,.06a6.72,6.72,0,0,0-3.74-1.91c-.1,0-.2,0-.3,0l-43.33-2.88-6,1.88c-1.77-.12,2.36-1.52.71-.54a9.07,9.07,0,0,0-3.1,12.45,9.16,9.16,0,0,0,8.49,4.5L215.58,368a7.09,7.09,0,0,0,1.65,1.22v.06l40.71,28.58,3.77-1.13Z"/><path class="l" d="M275.55,391.29l-6,5.62c-2,1.87-4.35.1-5.65,1.32s.15,3.72.15,3.72L261.87,404l-7.24-7.68s0-.32.84-.78c.71-.39,1.9-.55,2.6-1.21a8.78,8.78,0,0,0,2.05-4s3.83-.26,7-.17c2.83.09,7.13-2.46,8.84-.65C276,389.5,276.79,390.11,275.55,391.29Z"/><path class="q" d="M193.06,358.17l10.24-10.53s4.33,1.64,18.87,8.85"/><path class="q" d="M201.85,302.68a15.55,15.55,0,0,0-19.06,11l-6.34,23.59a19.58,19.58,0,1,0,26,23.09l.13.06,10.29-38.67A15.57,15.57,0,0,0,201.85,302.68Z"/><path class="e" d="M183.25,356.79l0,.07a9.06,9.06,0,0,0-11.42,11.29,9.17,9.17,0,0,0,7.15,6.42h0L225.63,381l2.62-10.24Z"/><circle class="q" cx="207.77" cy="329.87" r="6.78"/><polyline class="q" points="214.54 329.87 213.23 316.24 203.85 321.19"/><path class="q" d="M211.45,359.94s-6.32,1.56-7.79,8.06a13.25,13.25,0,0,0,1.72,10l-26.42-3.3s-10.7-1.19-14.53-14.8c-1.49-5.28,19.72-8.22,19.72-8.22"/><path class="e" d="M232.72,379.55a6.71,6.71,0,0,0,.18-4.2A6.87,6.87,0,0,0,219.47,377l-.07,0-9.21,48.41,2.6,3,4.3-3.34,15.27-44.37a1,1,0,0,0,.09-.22l.33-.86Z"/><path class="l" d="M227.5,431.62l-8,0c-2.65,0-3.15-2.82-4.89-2.81s-2.37,2.74-2.37,2.74h-3l0-10.27s.19-.24,1.11,0c.77.2,1.73.88,2.65.88a8.62,8.62,0,0,0,4.13-1.5s2.91,2.36,5.08,4.52c2,1.95,6.7,3,6.71,5.41C229,430.62,229.18,431.61,227.5,431.62Z"/><polyline class="e" points="216.87 367.7 224.99 370.9 216.87 376.32 209.73 368.57"/><path class="ak" d="M164.24,357.61s3.05,5.83,12.29,7S203.65,368,203.65,368a15,15,0,0,0-.17,5.57,19.27,19.27,0,0,0,1.89,4.47s-21.14-2.46-26.76-3.35C166.69,372.81,164.24,357.61,164.24,357.61Z"/><path class="g" d="M194.77,305.23c1.83,3.41,9.83,8.12,9.08,21.48-.48,8.53-3.21,21.56-3.21,21.56l-.81,4.63,11.62,8.91,6.79-4.2-12-7s4-20.92,4-27.55c0-5.14-6.34-18.93-6.34-18.93s-3.93-2.45-7.72-1.57A1.78,1.78,0,0,0,194.77,305.23Z"/><polygon class="q" points="211.5 332.98 208.88 350.61 206.51 349.37 209.29 332.22 211.5 332.98"/><polygon class="r" points="221.93 359.98 210.78 359.98 209.51 341.25 222.88 341.25 221.93 359.98"/><polygon class="p" points="209.85 346.33 222.62 346.33 222.25 353.66 210.35 353.66 209.85 346.33"/><path class="aj" d="M215,363a5.65,5.65,0,0,1-.75-.18l-29-10.89a5.5,5.5,0,0,1-3.84-6l2.05-33.16a5.49,5.49,0,1,1,10.89,1.44l-3.75,29.82,25.56,10.64c2.9.88,4.37,3.31,4,4.77A4.24,4.24,0,0,1,215,363Z"/><path class="q" d="M185.36,308.48l8.78-1.68s2.1,19-1.05,16.78c-6.73-4.7-10.46.65-10.46.65a35.76,35.76,0,0,1,1.24-13.09Z"/><rect class="p" x="209" y="339.65" width="14.37" height="2.41"/><rect class="r" x="209.51" y="337.74" width="13.18" height="1.9"/><circle class="x" cx="180.38" cy="283.26" r="12.3" transform="translate(-131.74 407.17) rotate(-79.17)"/><circle class="x" cx="198.97" cy="271.46" r="23.22" transform="matrix(0.19, -0.98, 0.98, 0.19, -105.05, 415.86)"/><path class="u" d="M202.46,251.31a20.56,20.56,0,0,0-21.52,19.54l-.48,9.9a20.56,20.56,0,1,0,41.07,2l.48-9.9A20.56,20.56,0,0,0,202.46,251.31Z"/><path class="v" d="M202.46,251.31a20.44,20.44,0,0,0-6.21.65c.45,0,.9,0,1.36,0a19,19,0,0,1,18.09,19.92l-.52,10.8c-.5,10.5-9.28,15.69-19.77,15.18a18.93,18.93,0,0,1-11.3-4.44,20.54,20.54,0,0,0,37.43-10.69l.48-9.9A20.56,20.56,0,0,0,202.46,251.31Z"/><path class="s" d="M200.49,279.94a1.18,1.18,0,0,0-.36,0,1.21,1.21,0,0,0-.91,1.11l0,.9a1.22,1.22,0,0,0,1.15,1.27,1.22,1.22,0,0,0,1.27-1.15l0-.9A1.22,1.22,0,0,0,200.49,279.94Z"/><path class="s" d="M213.77,280.31a1.19,1.19,0,0,0-.37,0,1.21,1.21,0,0,0-.91,1.11l0,.9a1.22,1.22,0,0,0,1.16,1.27,1.21,1.21,0,0,0,1.27-1.15l0-.9A1.22,1.22,0,0,0,213.77,280.31Z"/><path class="w" d="M210.49,292.06a26.41,26.41,0,0,1-6.31-.26A24.39,24.39,0,0,1,198,289.9a6.91,6.91,0,0,0,5.88,5.06A6.09,6.09,0,0,0,210.49,292.06Z"/><path class="x" d="M180.75,266.37a20.32,20.32,0,0,1,1.9-4.71,22.34,22.34,0,0,1,13.2-10.45,20.57,20.57,0,0,1,6.23-.65c9.9.47,18.2,8.5,19.74,17.87l-31.91-1.53a3.16,3.16,0,0,0-3.32,3L186,283.08l-6.34-.39a20.42,20.42,0,0,1,0-2.13l.48-9.9A20.5,20.5,0,0,1,180.75,266.37Z"/><circle class="u" cx="182.66" cy="282.69" r="4.03" transform="translate(-108.46 451.58) rotate(-87.25)"/><path class="x" d="M225.84,268.37c-.25,0-2.59,6.38-13.19,4.18s-9.94-9-9.94-9Z"/><path class="g" d="M208.28,277.74l-1.56,0-13.57-.27h-.71l-7.29-.15,0,1.42,7.36.15a7.31,7.31,0,0,0,7.13,6.76l1.18,0a7.32,7.32,0,0,0,6.63-4,7.31,7.31,0,0,0,6.47,4.24l1.18,0a7.34,7.34,0,0,0,7.47-7.18V278Zm-7.46,6.47-1.18,0a5.92,5.92,0,0,1-5.76-5.31l12.88.26s0,0,0,.07A5.91,5.91,0,0,1,200.82,284.21Zm14.28.29-1.18,0a5.91,5.91,0,0,1-5.75-5.24v-.07l12.88.26A5.92,5.92,0,0,1,215.1,284.49Z"/><path class="v" d="M203.84,305.68v4.54l-5.37-2.61a5.12,5.12,0,0,1-2.88-4.6V299.5h8.25Z"/><path class="x" d="M167.49,406h51.63a4.27,4.27,0,0,0,4.27-4.27v25.46a4.27,4.27,0,0,1-4.27,4.27H167.49a4.27,4.27,0,0,1-4.27-4.27V401.73A4.27,4.27,0,0,0,167.49,406Z"/><path class="y" d="M167.49,392.41h51.63a4.27,4.27,0,0,1,4.27,4.28v5.06a4.27,4.27,0,0,1-4.27,4.28H167.49a4.27,4.27,0,0,1-4.27-4.28V396.7A4.27,4.27,0,0,1,167.49,392.41Z"/><path class="n" d="M207,408a1.35,1.35,0,0,0,1.35,1.35h0a1.35,1.35,0,0,0,1.35-1.35v-4.24a1.35,1.35,0,0,0-1.35-1.35h0a1.35,1.35,0,0,0-1.35,1.35Z"/><path class="n" d="M178.66,408a1.35,1.35,0,0,0,1.35,1.35h0a1.35,1.35,0,0,0,1.35-1.35v-4.24a1.35,1.35,0,0,0-1.35-1.35h0a1.35,1.35,0,0,0-1.35,1.35Z"/><path class="y" d="M203.26,393.24h-3c0-3.37-3.12-6.11-7-6.11s-7,2.74-7,6.11h-3c0-5,4.47-9.11,10-9.11S203.26,388.22,203.26,393.24Z"/><circle class="w" cx="826.95" cy="267.5" r="1.14"/><rect class="e" x="1302.45" y="342.34" width="15.06" height="77.54"/><rect class="ae" x="1278.58" y="342.34" width="15.05" height="77.54"/><path class="t" d="M1268.59,431.06a10.14,10.14,0,0,1,10-10.14v-1.64h15.06v11.81h-15.06v0h-10Z"/><path class="t" d="M1317.61,419.27v1.65a10.26,10.26,0,0,1,3.3.67,10.13,10.13,0,0,1,6.6,9.46h-9.9v0h-15.18V419.27Z"/><path class="ae" d="M1285.62,324v11.9a12.93,12.93,0,0,0,12.93,12.93h-10.94a12.93,12.93,0,0,1-12.93-12.93V324Z"/><path class="e" d="M1285.62,335.93V324h34.74v11.9a12.93,12.93,0,0,1-12.93,12.93h-8.89A12.93,12.93,0,0,1,1285.62,335.93Z"/><path class="u" d="M1210,326.27h22.23c0,5.11-8.21,66.09-8.21,66.09l-4,32.46h-6.16"/><path class="al" d="M1214.8,424.82h-9.48L1200,383.61s-8.35-47.85-9-51.09a10.89,10.89,0,0,1,.31-5.58l14.63-.67h4"/><path class="u" d="M1313.78,233l-2.09-12.15a22.54,22.54,0,0,0-44.43,7.64l2.09,12.15a22.54,22.54,0,0,0,44.43-7.64Z"/><path class="v" d="M1271.93,210.54a22.42,22.42,0,0,0-1.52,12.72l2.09,12.15a22.52,22.52,0,0,0,39.76,10.31,22.53,22.53,0,0,1-42.91-5.1l-2.09-12.15A22.45,22.45,0,0,1,1271.93,210.54Z"/><path class="t" d="M1306.47,208.11c-4.8-5.22-12.06-9.23-19.65-8.33s-13.7,6.49-17.16,12.67a22.72,22.72,0,0,0-2.74,13.8l1.37,8.47c-.83-7.06-1-12.77,3.54-17.54a21.76,21.76,0,0,0,14.72,3.46c5.5-.65,12.93-4.13,16.47-7.85,5.54,3.57,9.34,10.74,10.17,17.8l-.85-9.72A22.71,22.71,0,0,0,1306.47,208.11Z"/><path class="t" d="M1304.39,209.26a9.74,9.74,0,0,1-5.56,2.53,9.74,9.74,0,0,1-13.56-1.05,9.76,9.76,0,0,1,11.63-3.5,9.75,9.75,0,0,1,10.58-5.94A9.74,9.74,0,0,1,1304.39,209.26Z"/><path class="t" d="M1302.45,207.6a9.67,9.67,0,0,1-4.34,4.3A9.71,9.71,0,0,1,1285,215.6a9.74,9.74,0,0,1,5.54-6.49,9.59,9.59,0,0,1,4.16-.8,9.72,9.72,0,0,1,7.86-9.24A9.72,9.72,0,0,1,1302.45,207.6Z"/><path class="x" d="M1238.94,226.33a23.78,23.78,0,0,0-47.1-6.59l-4.1,29.32s4.63,7.3,22.75,9.83,24.48-4.21,24.48-4.21Z"/><path class="x" d="M1240.38,261.21a17.8,17.8,0,0,1-20.1,15.16L1196,273a17.8,17.8,0,0,1-15.15-20.09h0A17.8,17.8,0,0,1,1201,237.7l24.24,3.39a17.81,17.81,0,0,1,15.16,20.11Z"/><path class="u" d="M1261.5,316.55a31.32,31.32,0,0,1-31.28-31.28h10.53A20.77,20.77,0,0,0,1261.5,306"/><path class="q" d="M1298.17,258.65a34.82,34.82,0,0,1,7.39.81v67.42a34.85,34.85,0,0,1-7.39.81,34.4,34.4,0,0,1-10.39-1.6V260.25A34.41,34.41,0,0,1,1298.17,258.65Z"/><path class="g" d="M1323.53,316.3v29.34h-21.89v-87a48.22,48.22,0,0,1,6.64,1.69c9.3,3.09,15.25,10.7,15.25,19Z"/><path class="g" d="M1287.78,260.25v85.39h-17.46V302.29l-6.67.29v-9.42A34.52,34.52,0,0,1,1287.78,260.25Z"/><path class="c" d="M1268.27,301.56v-9.64a35.32,35.32,0,0,1,19.52-31.6v-.07a34.52,34.52,0,0,0-24.13,32.91v9.42l6.67-.29v43.34h4.77l-3.58-43.09Z"/><polyline class="v" points="1301.64 254.45 1301.64 261.69 1294.26 273.06 1287.78 261.83 1287.78 254.15"/><path class="i" d="M1217.36,256.16a30.12,30.12,0,0,0-36,29.53h9.7a21.63,21.63,0,0,0,17.55,20.08,22.29,22.29,0,0,0,4,.38,21.62,21.62,0,0,0,21.57-20.45h7.37A30.11,30.11,0,0,0,1217.36,256.16Z"/><path class="am" d="M1214.27,255.72c-.92-.08-1.84-.14-2.78-.14a30.1,30.1,0,0,0-30.11,30.11h5.49A30.09,30.09,0,0,1,1214.27,255.72Z"/><path class="am" d="M1214.12,305.76a21.63,21.63,0,0,1-17.55-20.08h-5.49a21.63,21.63,0,0,0,17.55,20.08,22.29,22.29,0,0,0,4,.38,21.67,21.67,0,0,0,2.76-.2C1215,305.89,1214.54,305.84,1214.12,305.76Z"/><path class="e" d="M1237.9,334.86c-1.92-13.09-4.66-36.66-8.23-36.66l-18,0-15.82,0c-3.57,0-8.69,23.86-10,37s0,15.91,0,15.91-.91,9.46,28.53,9.46h.08c25.74,0,24.73-5.49,24.82-10.45A99.17,99.17,0,0,0,1237.9,334.86Z"/><path class="ae" d="M1190.55,351.14s-1.32-2.75,0-15.91,6.39-36.9,10-37h-4.69c-3.57,0-8.69,23.86-10,37s0,15.91,0,15.91-.91,9.46,28.53,9.46h.08l2.58,0C1189.7,360.14,1190.55,351.14,1190.55,351.14Z"/><path class="ae" d="M1216.36,298.22h13.3l-15.51,0Z"/><path class="g" d="M1249.16,304.3l1.68,14.76s10.4-3,15.43-7,10.06-11.41,10.06-11.41l-7.69-16.69s-3,12.32-8.07,16.69A16.39,16.39,0,0,1,1249.16,304.3Z"/><path class="q" d="M1247.76,266.9h2.79A18.42,18.42,0,0,1,1269,285.32v27.86A16.83,16.83,0,0,1,1252.14,330h-6a16.83,16.83,0,0,1-16.83-16.83V285.32a18.42,18.42,0,0,1,18.42-18.42Z" transform="translate(81.01 -235.31) rotate(11.12)"/><path class="an" d="M1257.4,312.21l-1.74-.45c0-.09,2.24-9-1.55-15.16-4.26-7-8.28-8-8.32-8.06l.42-1.74c.19,0,4.74,1.19,9.43,8.87C1259.84,302.51,1257.5,311.82,1257.4,312.21Z"/><circle class="u" cx="1253.67" cy="279.72" r="13.12" transform="translate(737.42 1455.91) rotate(-78.88)"/><path class="u" d="M1266.48,318.12l-8.49-1.05a6.14,6.14,0,0,1,1.51-12.19l8.64,1.07"/><path class="n" d="M1237,291.64a2.18,2.18,0,0,1,.89-.92,4.39,4.39,0,0,0,2.37-1.63c.59-1.06.65-3.39,2.79-2.37s.22,2.26-.17,3.6a4.76,4.76,0,0,0,.23,2.92,1.69,1.69,0,0,1-.24,1.21Z"/><path class="ac" d="M1242,298.7l.39-.82a.91.91,0,0,0-.43-1.21l-6.15-2.95a.91.91,0,0,0-1.22.43l-.39.82h0a2,2,0,0,0-2.69.94l-7.2,15a2.27,2.27,0,0,0,1.07,3l7.34,3.52a2.27,2.27,0,0,0,3-1.06l7.2-15a2,2,0,0,0-1-2.69Z"/><rect class="aa" x="1234.12" y="292.72" width="10.14" height="3.67" rx="1.02" ry="1.02" transform="translate(248.87 -506.46) rotate(25.6)"/><path class="s" d="M1296.05,233.34a1.26,1.26,0,0,1,.39,0,1.29,1.29,0,0,1,1.14,1l.19.94a1.31,1.31,0,0,1-1,1.53,1.3,1.3,0,0,1-1.53-1l-.19-.94A1.3,1.3,0,0,1,1296.05,233.34Z"/><path class="s" d="M1278.07,236.35a1.26,1.26,0,0,1,.39,0,1.29,1.29,0,0,1,1.14,1l.19.94a1.31,1.31,0,0,1-1,1.53,1.3,1.3,0,0,1-1.53-1l-.19-.94A1.3,1.3,0,0,1,1278.07,236.35Z"/><path class="s" d="M1247.36,278.67a1,1,0,0,1,.28.12,1,1,0,0,1,.45,1.1l-.18.72a1,1,0,0,1-1.22.73,1,1,0,0,1-.73-1.22l.18-.72A1,1,0,0,1,1247.36,278.67Z"/><path class="s" d="M1257,280.89a1,1,0,0,1,.28.12,1,1,0,0,1,.45,1.1l-.18.72a1,1,0,0,1-1.22.73,1,1,0,0,1-.73-1.22l.18-.72A1,1,0,0,1,1257,280.89Z"/><path class="y" d="M1256.9,271.81a6.13,6.13,0,0,1-4.37-1.95,5.24,5.24,0,0,1-.75-5.1l1.66.68-.83-.34.83.34a3.43,3.43,0,0,0,.48,3.28,4.37,4.37,0,0,0,3,1.3Z"/><circle class="u" cx="1312.03" cy="233.32" r="4.51"/><path class="u" d="M1225.58,210a19.52,19.52,0,0,0-5.51-2,19.31,19.31,0,0,0-22.69,15.18l-1.81,9.13a19.3,19.3,0,0,0,37.87,7.51l1.81-9.13A19.32,19.32,0,0,0,1225.58,210Z"/><path class="v" d="M1220.07,208a19.52,19.52,0,0,1,5.51,2c-.41-.11-.81-.22-1.23-.31a17.87,17.87,0,0,0-21,14l-2,9.95c-1.92,9.68,4.91,16.4,14.58,18.32a17.83,17.83,0,0,0,11.3-1.48,19.28,19.28,0,0,1-31.68-18.23l1.81-9.13A19.31,19.31,0,0,1,1220.07,208Z"/><path class="x" d="M1217.8,211a20.42,20.42,0,0,1,17.54,20.84,19.41,19.41,0,0,0,.44-2.19,20.39,20.39,0,0,0-40.39-5.66,19.83,19.83,0,0,0-.19,2.19A20.41,20.41,0,0,1,1217.8,211Z"/><path class="x" d="M1205.89,208.77a20.23,20.23,0,0,0,17.24,22.85s12.67,2.76,13.92-6.17-5.74-15.33-12.23-18.21S1205.89,208.77,1205.89,208.77Z"/><path class="v" d="M1206.81,253v3.38c0,2.54,2.51,4.6,5.58,4.6s5.59-2.06,5.59-4.6V253"/><path class="s" d="M1209.12,233.55a1.15,1.15,0,0,0-.36,0,1.18,1.18,0,0,0-1,.94l-.17.86a1.2,1.2,0,0,0,.93,1.39,1.19,1.19,0,0,0,1.4-.93l.17-.86A1.19,1.19,0,0,0,1209.12,233.55Z"/><path class="s" d="M1225.55,236.3a1.15,1.15,0,0,0-.36,0,1.18,1.18,0,0,0-1,.94l-.17.86a1.2,1.2,0,0,0,.93,1.39,1.19,1.19,0,0,0,1.4-.93l.17-.86A1.19,1.19,0,0,0,1225.55,236.3Z"/><circle class="v" cx="1196.08" cy="232.68" r="4.51"/><path class="t" d="M1225.21,431.08a7.8,7.8,0,1,0-15.61,0"/><path class="t" d="M1215.81,431.08a7.8,7.8,0,1,0-15.6,0"/><path class="u" d="M1238.05,303.71a5.39,5.39,0,0,0-6.15-4.47l-33.11,5.24-6.15-18.78h-11a5.33,5.33,0,0,0,.25,1.82l8.08,24.66a5.38,5.38,0,0,0,6,3.64l37.64-6A5.38,5.38,0,0,0,1238.05,303.71Z"/><path class="g" d="M1281.23,319.92a67.53,67.53,0,0,1-15.82-1.87l3.21-12.14c.17,0,18.55,4.7,29.65-2.77,8.56-5.77,10.77-24.24,10.87-30.25l12.55.21c-.05,3-.94,30-16.4,40.45C1297.84,318.57,1288.81,319.92,1281.23,319.92Z"/><path class="w" d="M1210.91,244.36a19.83,19.83,0,0,0,4.34,1.63,17.58,17.58,0,0,0,5,.14,5.79,5.79,0,0,1-5.15,1.31A5.49,5.49,0,0,1,1210.91,244.36Z"/><path class="w" d="M1294.86,246.64a16.35,16.35,0,0,1-9.24,2.17,5.63,5.63,0,0,0,10.29-2.84C1295.56,246.2,1295.22,246.43,1294.86,246.64Z"/><path class="ac" d="M1389.54,279.33a50.39,50.39,0,0,1,50.22,50.56h-50.22Z"/><path class="ac" d="M1375.58,281a50.39,50.39,0,0,1,61.6,35.84l-48.51,13Z"/><path class="b" d="M1415.28,302.93h0a1.21,1.21,0,0,1,1.21,1.21v50.26a0,0,0,0,1,0,0h-2.43a0,0,0,0,1,0,0V304.15A1.21,1.21,0,0,1,1415.28,302.93Z" transform="translate(1743.95 -1086.6) rotate(90)"/><path class="ao" d="M1395,327.46h-1.79l31-32.6a1.21,1.21,0,0,1,1.72,0h0a1.21,1.21,0,0,1,0,1.72Z"/><path class="ao" d="M1392,325.2l-1.26,1.29-1.16-45.92a1.23,1.23,0,0,1,1.21-1.24h0a1.23,1.23,0,0,1,1.21,1.24Z"/><path class="b" d="M1408.13,285.09h0a1.21,1.21,0,0,1,1.21,1.21v50.26a0,0,0,0,1,0,0h-2.43a0,0,0,0,1,0,0V286.3A1.21,1.21,0,0,1,1408.13,285.09Z" transform="translate(632.22 -904.66) rotate(45)"/><path class="b" d="M1389.54,278.41h0a1.21,1.21,0,0,1,1.21,1.21v50.26a0,0,0,0,1,0,0h-2.43a0,0,0,0,1,0,0V279.62a1.21,1.21,0,0,1,1.21-1.21Z"/><polyline class="ap" points="1385.52 357.64 1359.47 407.33 1359.47 418.87"/><polyline class="ap" points="1389.54 357.64 1417.64 410.4 1417.64 420.72"/><path class="aa" d="M1346.48,329.89h93.28a0,0,0,0,1,0,0V355.6a17.56,17.56,0,0,1-17.56,17.56h-75.72a17.56,17.56,0,0,1-17.56-17.56v-8.15A17.56,17.56,0,0,1,1346.48,329.89Z"/><rect class="b" x="1368.85" y="373.16" width="37.53" height="3.22" rx="1.61" ry="1.61"/><path class="ac" d="M1328.92,351v4.56a17.56,17.56,0,0,0,17.56,17.56h75.72a17.56,17.56,0,0,0,17.56-17.56V351Z"/><rect class="aq" x="1327.75" y="351.04" width="113.27" height="3.32"/><polyline class="ap" points="1324.46 307.51 1336.21 307.51 1385.52 374.77"/><polyline class="ar" points="1350.71 329.83 1382.39 373.16 1380.25 373.16 1348.96 329.89"/><path class="l" d="M1323.9,305.12H1336a0,0,0,0,1,0,0v5.18a0,0,0,0,1,0,0H1323.9a2.59,2.59,0,0,1-2.59-2.59v0A2.59,2.59,0,0,1,1323.9,305.12Z"/><line class="ap" x1="1359.47" y1="417.65" x2="1350.82" y2="425.69"/><line class="ap" x1="1359.47" y1="417.65" x2="1350.82" y2="425.69"/><line class="ap" x1="1417.64" y1="420.53" x2="1411.46" y2="426.27"/><line class="ap" x1="1417.64" y1="420.72" x2="1423.82" y2="426.47"/><path class="l" d="M1359.47,409a8.6,8.6,0,1,1-8.6,8.6,8.61,8.61,0,0,1,8.6-8.6m0-5a13.6,13.6,0,1,0,13.6,13.6,13.6,13.6,0,0,0-13.6-13.6Z"/><path class="l" d="M1417.64,414.6a5.82,5.82,0,1,1-5.82,5.82,5.83,5.83,0,0,1,5.82-5.82m0-5a10.82,10.82,0,1,0,10.82,10.82,10.82,10.82,0,0,0-10.82-10.82Z"/><path class="ao" d="M1388.27,315.4l.06,4.89L1376.78,282a1.23,1.23,0,0,1,.85-1.51h0a1.23,1.23,0,0,1,1.49.88Z"/><path class="b" d="M1382.9,278.83h0a1.21,1.21,0,0,1,1.21,1.21V330.3a0,0,0,0,1,0,0h-2.43a0,0,0,0,1,0,0V280A1.21,1.21,0,0,1,1382.9,278.83Z" transform="translate(-31.65 369.49) rotate(-15.05)"/><circle class="e" cx="1359.47" cy="417.88" r="9.5"/><circle class="e" cx="1417.64" cy="420.43" r="6.95" transform="translate(729.82 1729.39) rotate(-78.8)"/></svg>