<svg xmlns="http://www.w3.org/2000/svg" viewBox="0 0 100 100"><defs><style>.a{fill:#bdbfc0;}.b{fill:#64787f;}.c{opacity:0.36;}.d{fill:#809298;}.e{opacity:0.24;}.f{fill:#cdcecc;}</style></defs><title>icon_9_kultur</title><path class="a" d="M1.29,27s12.23,58.5,41,50.65,9.13-64.34,9.13-64.34a108.53,108.53,0,0,1-24.26,10A106.43,106.43,0,0,1,1.29,27Z"/><path class="b" d="M47.62,37.67a.66.66,0,0,0-.88-.81c-1,.43-2.44,1-3.91,1.5a25.63,25.63,0,0,1-4.21.88.65.65,0,0,0-.33,1.16,6.06,6.06,0,0,0,5.45,1.41A6.08,6.08,0,0,0,47.62,37.67Z"/><path class="b" d="M25.86,44.58a.66.66,0,0,0-.88-.81c-1,.43-2.44,1-3.91,1.5a25.63,25.63,0,0,1-4.21.88.65.65,0,0,0-.33,1.16A6.06,6.06,0,0,0,22,48.72,6.08,6.08,0,0,0,25.86,44.58Z"/><path class="b" d="M48.38,66.64c.72.16,1-.87.38-1.4-2.25-1.92-6.14-4.36-10.67-3.35s-6.41,5.44-7.15,8.5c-.18.76.71,1.48,1.19.95a16.82,16.82,0,0,1,7.45-5C42.4,65.57,46,66.11,48.38,66.64Z"/><g class="c"><path class="d" d="M36.27,60a3.49,3.49,0,0,1-.78-.09c-1.91-.44-2.56-3.37-3.53-7.81-1-4.64-2.28-10.41-5.33-13.29a4.68,4.68,0,0,0-3.67-1.37c-4.5.27-9.26,5.93-9.3,6l-1.4-1.16c.21-.26,5.3-6.31,10.59-6.64a6.54,6.54,0,0,1,5,1.86c3.46,3.26,4.79,9.34,5.86,14.22.58,2.64,1.37,6.25,2.16,6.44a1.26,1.26,0,0,0,1.47-.62l1.64.77A3.08,3.08,0,0,1,36.27,60Z"/></g><g class="e"><path class="b" d="M42.24,77.61c20.53-5.61,16.37-36.08,12.34-53a98.56,98.56,0,0,1-10.73-6.16s-17,41.06-4.46,59.73A20.68,20.68,0,0,0,42.24,77.61Z"/></g><path class="f" d="M47.83,18.31s-23.68,57.24,5.5,67.29S98.71,35.82,98.71,35.82a112.49,112.49,0,0,1-26.61-5.61A110.31,110.31,0,0,1,47.83,18.31Z"/><path class="b" d="M48.61,45.73a.8.8,0,0,0,.3,1.45c1.08.21,2.54.53,4,.94a25.63,25.63,0,0,1,3.87,1.58.8.8,0,0,0,1.11-1,5.67,5.67,0,0,0-9.23-3Z"/><path class="b" d="M71.08,53.23a.68.68,0,0,0,.28,1.21c1.09.21,2.69.55,4.23,1a26.57,26.57,0,0,1,4.12,1.71.68.68,0,0,0,1-.8,5.74,5.74,0,0,0-9.58-3.11Z"/><path class="b" d="M48.2,65.65a.85.85,0,0,0-1.37.94,15.43,15.43,0,0,0,9.28,9.48c5.65,2,10.69-.55,13.59-2.65a.86.86,0,0,0-.64-1.54,26.44,26.44,0,0,1-11.5-.48C54,70.28,50.39,67.56,48.2,65.65Z"/><g class="c"><path class="d" d="M60.25,67.53a3.12,3.12,0,0,1-2.34-1.07C56.54,65,57.76,62,59.45,57.74c1.84-4.57,4.13-10.26,3.19-14.52a4.91,4.91,0,0,0-2.36-3.34c-4-2.41-11.41-.33-11.49-.31l-.5-1.74c.33-.1,8.21-2.31,12.92.49a6.72,6.72,0,0,1,3.2,4.51c1.05,4.8-1.35,10.78-3.28,15.58-1,2.61-2.48,6.18-1.9,6.81a1.33,1.33,0,0,0,1.66.34l.92,1.56A3.2,3.2,0,0,1,60.25,67.53Z"/></g></svg>