<svg xmlns="http://www.w3.org/2000/svg" viewBox="0 0 100 100"><defs><style>.a{fill:#825024;}.b,.c{fill:#603917;}.b{opacity:0.5;}.d{fill:#402312;opacity:0.31;}</style></defs><title>icon_8_tryghed</title><path class="a" d="M12.54,83.26h42a2.63,2.63,0,0,1,2.63,2.63v4.68a0,0,0,0,1,0,0H9.92a0,0,0,0,1,0,0V85.89A2.63,2.63,0,0,1,12.54,83.26Z"/><path class="b" d="M10,86.91a4.55,4.55,0,0,0-.09.89v2.77H57.2V87.8a4.55,4.55,0,0,0-.09-.89Z"/><path class="a" d="M91.37,87.62h0a6.13,6.13,0,0,1-8.74-1L51.88,46.74a4.38,4.38,0,0,1,.69-6.05h0a4.38,4.38,0,0,1,6.05.47L92.06,78.81A6.13,6.13,0,0,1,91.37,87.62Z"/><polygon class="b" points="53.15 48.38 60.03 57.31 65.71 49.15 60.33 43.09 53.15 48.38"/><path class="c" d="M72.2,33.61l-1.9,1.78A201.54,201.54,0,0,1,43.83,56.27L41.6,57.74,25,37.57l3.77-3.8a138.9,138.9,0,0,1,21.9-18l4.47-3Z"/><path class="d" d="M70.12,31.07l-1.89,1.77A201.57,201.57,0,0,1,41.75,53.72L39.52,55.2,25,37.56h0L41.6,57.74l2.23-1.47A201.54,201.54,0,0,0,70.3,35.39l1.9-1.78Z"/><rect class="a" x="62.25" y="2.61" width="8.44" height="35.16" rx="2.21" ry="2.21" transform="translate(2.3 46.81) rotate(-39.43)"/><rect class="a" x="25.73" y="32.64" width="8.44" height="35.16" rx="2.21" ry="2.21" transform="translate(-25.08 30.45) rotate(-39.43)"/><path class="b" d="M41.69,57.86l-2.18-2.65-6.59,5.27,2.25,2.74a4.22,4.22,0,0,0,6.52-5.36Z"/><path class="b" d="M78.21,27.83,76.46,25.7,69.87,31l1.82,2.22.11.11.8.69a4.21,4.21,0,0,0,5.61-6.16Z"/><rect class="c" x="6.39" y="88.55" width="54.34" height="6.7"/></svg>