<svg xmlns="http://www.w3.org/2000/svg" viewBox="0 0 100 100"><defs><style>.a{fill:#f5923d;}.b{fill:#f27921;opacity:0.5;}.c{fill:#f9a764;}</style></defs><title>icon_5_løn</title><path class="a" d="M20,65.81v.46h0c.62,2.58,6.57,4.6,13.57,4.6s12.55-2,13.16-4.6h0V66c0-.06,0-.11,0-.16s0-.11,0-.17V62.82H20v3Z"/><path class="b" d="M46.7,62.82h-9V70.6c5-.62,8.47-2.3,9-4.33h0V66c0-.06,0-.11,0-.16s0-.11,0-.17Z"/><ellipse class="c" cx="33.33" cy="62.82" rx="13.37" ry="5.04"/><path class="a" d="M15.92,70v.46h0c.62,2.58,6.57,4.6,13.57,4.6s12.55-2,13.17-4.6h0v-.3c0-.06,0-.11,0-.17s0-.11,0-.16V67.06H15.92v3Z"/><path class="b" d="M42.66,67.06h-9v7.79c5-.63,8.47-2.3,9-4.34h0v-.3c0-.06,0-.11,0-.17s0-.11,0-.16Z"/><ellipse class="c" cx="29.29" cy="67.06" rx="13.37" ry="5.04"/><path class="a" d="M15.92,66.21v.46h0c.62,2.58,6.57,4.6,13.57,4.6s12.55-2,13.17-4.6h0v-.3c0-.05,0-.11,0-.16s0-.11,0-.17V63.23H15.92v3Z"/><path class="b" d="M42.66,63.23h-9V71c5-.62,8.47-2.3,9-4.34h0v-.3c0-.05,0-.11,0-.16s0-.11,0-.17Z"/><ellipse class="c" cx="29.29" cy="63.23" rx="13.37" ry="5.04"/><path class="a" d="M15.92,62.39v.46h0c.62,2.58,6.57,4.6,13.57,4.6s12.55-2,13.17-4.6h0v-.3c0-.06,0-.11,0-.16s0-.11,0-.17V59.4H15.92v3Z"/><path class="b" d="M42.66,59.4h-9v7.78c5-.62,8.47-2.3,9-4.33h0v-.3c0-.06,0-.11,0-.16s0-.11,0-.17Z"/><ellipse class="c" cx="29.29" cy="59.4" rx="13.37" ry="5.04"/><path class="a" d="M15.92,58.55V59h0c.62,2.58,6.57,4.6,13.57,4.6S42,61.6,42.66,59h0v-.3c0-.06,0-.11,0-.17s0-.11,0-.16V55.57H15.92v3Z"/><path class="b" d="M42.66,55.57h-9v7.79c5-.63,8.47-2.3,9-4.34h0v-.3c0-.06,0-.11,0-.17s0-.11,0-.16Z"/><ellipse class="c" cx="29.29" cy="55.57" rx="13.37" ry="5.04"/><path class="a" d="M15.92,54.72v.46h0c.62,2.58,6.57,4.6,13.57,4.6s12.55-2,13.17-4.6h0v-.3c0-.05,0-.11,0-.16s0-.11,0-.17V51.74H15.92v3Z"/><path class="b" d="M42.66,51.74h-9v7.78c5-.62,8.47-2.3,9-4.34h0v-.3c0-.05,0-.11,0-.16s0-.11,0-.17Z"/><path class="c" d="M42.66,51.74c0,2.78-6,5-13.37,5s-13.37-2.26-13.37-5,6-5,13.37-5S42.66,49,42.66,51.74Z"/><path class="a" d="M29.48,48.9c5.57,0,10.16,1.31,10.69,3a1.16,1.16,0,0,0,0-.33c0-1.83-4.8-3.32-10.74-3.32s-10.74,1.48-10.74,3.32a1.16,1.16,0,0,0,.05.33C19.33,50.21,23.91,48.9,29.48,48.9Z"/><path class="a" d="M15.92,50.9v.46h0C16.54,53.95,22.49,56,29.49,56s12.55-2,13.17-4.61h0v-.3c0-.06,0-.11,0-.16s0-.11,0-.17V47.92H15.92v3Z"/><path class="b" d="M42.66,47.92h-9V55.7c5-.62,8.47-2.3,9-4.34h0v-.3c0-.06,0-.11,0-.16s0-.11,0-.17Z"/><ellipse class="c" cx="29.29" cy="47.91" rx="13.37" ry="5.04"/><path class="a" d="M15.92,47.07v.46h0c.62,2.58,6.57,4.6,13.57,4.6s12.55-2,13.17-4.6h0v-.3c0-.06,0-.11,0-.16s0-.11,0-.16V44.08H15.92v3Z"/><path class="b" d="M42.66,44.08h-9v7.79c5-.62,8.47-2.3,9-4.34h0v-.3c0-.06,0-.11,0-.16s0-.11,0-.16Z"/><ellipse class="c" cx="29.29" cy="44.08" rx="13.37" ry="5.04"/><path class="a" d="M15.92,43.24v.46h0c.62,2.58,6.57,4.6,13.57,4.6s12.55-2,13.17-4.6h0v-.3c0-.06,0-.11,0-.16s0-.11,0-.17V40.26H15.92v3Z"/><path class="b" d="M42.66,40.26h-9V48c5-.62,8.47-2.3,9-4.34h0v-.3c0-.06,0-.11,0-.16s0-.11,0-.17Z"/><ellipse class="c" cx="29.29" cy="40.25" rx="13.37" ry="5.04"/><path class="a" d="M15.92,39.41v.47h0c.62,2.58,6.57,4.6,13.57,4.6s12.55-2,13.17-4.6h0v-.3c0-.05,0-.11,0-.16s0-.11,0-.17V36.43H15.92v3Z"/><path class="b" d="M42.66,36.43h-9v7.78c5-.62,8.47-2.3,9-4.33h0v-.3c0-.05,0-.11,0-.16s0-.11,0-.17Z"/><ellipse class="c" cx="29.29" cy="36.42" rx="13.37" ry="5.04"/><path class="a" d="M15.92,35.58V36h0c.62,2.58,6.57,4.6,13.57,4.6S42,38.63,42.66,36h0v-.3c0-.06,0-.11,0-.17s0-.11,0-.16V32.59H15.92v3Z"/><path class="b" d="M42.66,32.59h-9v7.79c5-.63,8.47-2.3,9-4.34h0v-.3c0-.06,0-.11,0-.17s0-.11,0-.16Z"/><ellipse class="c" cx="29.29" cy="32.59" rx="13.37" ry="5.04"/><path class="a" d="M15.92,31.75v.46h0c.62,2.58,6.57,4.6,13.57,4.6s12.55-2,13.17-4.6h0v-.3c0-.06,0-.11,0-.17s0-.11,0-.16V28.77H15.92v3Z"/><path class="b" d="M42.66,28.77h-9v7.79c5-.63,8.47-2.31,9-4.34h0v-.3c0-.06,0-.11,0-.17s0-.11,0-.16Z"/><path class="c" d="M42.66,28.77c0,2.78-6,5-13.37,5s-13.37-2.26-13.37-5,6-5,13.37-5S42.66,26,42.66,28.77Z"/><path class="a" d="M15.92,27.92v.46h0C16.54,31,22.49,33,29.49,33S42,31,42.66,28.38h0v-.3c0-.05,0-.11,0-.16s0-.11,0-.17V24.93H15.92v3Z"/><path class="b" d="M42.66,24.93h-9v7.79c5-.62,8.47-2.3,9-4.34h0v-.3c0-.05,0-.11,0-.16s0-.11,0-.17Z"/><ellipse class="c" cx="29.29" cy="24.93" rx="13.37" ry="5.04"/><path class="a" d="M15.92,24.09v.46h0c.62,2.58,6.57,4.6,13.57,4.6s12.55-2,13.17-4.6h0v-.3c0-.06,0-.11,0-.17s0-.11,0-.16V21.11H15.92v3Z"/><path class="b" d="M42.66,21.11h-9v7.79c5-.63,8.47-2.3,9-4.34h0v-.3c0-.06,0-.11,0-.17s0-.11,0-.16Z"/><ellipse class="c" cx="29.29" cy="21.11" rx="13.37" ry="5.04"/><path class="a" d="M29.48,18.27c5.57,0,10.16,1.32,10.69,3a1.13,1.13,0,0,0,0-.33c0-1.83-4.8-3.32-10.74-3.32S18.74,19.1,18.74,20.94a1.14,1.14,0,0,0,.05.33C19.33,19.58,23.91,18.27,29.48,18.27Z"/><path class="a" d="M57.34,68.06v.46h0c.62,2.58,6.57,4.6,13.57,4.6s12.54-2,13.16-4.6h0v-.3a1.25,1.25,0,0,0,0-.16,1.3,1.3,0,0,0,0-.17V65.07H57.34v3Z"/><path class="b" d="M84.07,65.07h-9v7.78c5-.62,8.47-2.3,9-4.34h0v-.3a1.25,1.25,0,0,0,0-.16,1.3,1.3,0,0,0,0-.17Z"/><ellipse class="c" cx="70.71" cy="65.07" rx="13.37" ry="5.04"/><path class="a" d="M57.34,64.23v.46h0c.62,2.58,6.57,4.6,13.57,4.6s12.54-2,13.16-4.6h0v-.3a1.2,1.2,0,0,0,0-.16,1.3,1.3,0,0,0,0-.17V61.24H57.34v3Z"/><path class="b" d="M84.07,61.24h-9V69c5-.62,8.47-2.3,9-4.33h0v-.3a1.2,1.2,0,0,0,0-.16,1.3,1.3,0,0,0,0-.17Z"/><ellipse class="c" cx="70.71" cy="61.24" rx="13.37" ry="5.04"/><path class="a" d="M57.34,60.39v.46h0c.62,2.58,6.57,4.6,13.57,4.6s12.54-2,13.16-4.6h0v-.3a1.3,1.3,0,0,0,0-.17,1.25,1.25,0,0,0,0-.16V57.41H57.34v3Z"/><path class="b" d="M84.07,57.41h-9V65.2c5-.63,8.47-2.3,9-4.34h0v-.3a1.3,1.3,0,0,0,0-.17,1.25,1.25,0,0,0,0-.16Z"/><path class="c" d="M84.07,57.41c0,2.78-6,5-13.37,5s-13.37-2.26-13.37-5,6-5,13.37-5S84.07,54.62,84.07,57.41Z"/><path class="a" d="M57.34,56.57V57h0c.62,2.58,6.57,4.6,13.57,4.6s12.54-2,13.16-4.6h0v-.3a1.25,1.25,0,0,0,0-.16,1.3,1.3,0,0,0,0-.17V53.58H57.34v3Z"/><path class="b" d="M84.07,53.58h-9v7.78c5-.62,8.47-2.3,9-4.34h0v-.3a1.25,1.25,0,0,0,0-.16,1.3,1.3,0,0,0,0-.17Z"/><path class="c" d="M84.07,53.58c0,2.78-6,5-13.37,5s-13.37-2.26-13.37-5,6-5,13.37-5S84.07,50.79,84.07,53.58Z"/><path class="a" d="M57.34,52.73v.46h0c.62,2.58,6.57,4.6,13.57,4.6s12.54-2,13.16-4.6h0v-.3a1.25,1.25,0,0,0,0-.16,1.25,1.25,0,0,0,0-.16V49.75H57.34v3Z"/><path class="b" d="M84.07,49.75h-9v7.79c5-.63,8.47-2.3,9-4.34h0v-.3a1.25,1.25,0,0,0,0-.16,1.25,1.25,0,0,0,0-.16Z"/><ellipse class="c" cx="70.71" cy="49.75" rx="13.37" ry="5.04"/><path class="a" d="M57.34,48.9v.46h0C58,52,63.9,54,70.91,54s12.54-2,13.16-4.6h0v-.3a1.3,1.3,0,0,0,0-.17,1.25,1.25,0,0,0,0-.16V45.92H57.34v3Z"/><path class="b" d="M84.07,45.92h-9v7.79c5-.62,8.47-2.3,9-4.34h0v-.3a1.3,1.3,0,0,0,0-.17,1.25,1.25,0,0,0,0-.16Z"/><ellipse class="c" cx="70.71" cy="45.92" rx="13.37" ry="5.04"/><path class="a" d="M70.9,43.08c5.57,0,10.16,1.32,10.69,3a1.13,1.13,0,0,0,0-.32c0-1.83-4.81-3.32-10.74-3.32s-10.74,1.49-10.74,3.32a1.13,1.13,0,0,0,.05.32C60.74,44.4,65.32,43.08,70.9,43.08Z"/><path class="a" d="M57.34,45.08v.46h0c.62,2.58,6.57,4.6,13.57,4.6s12.54-2,13.16-4.6h0v-.3a1.3,1.3,0,0,0,0-.17,1.25,1.25,0,0,0,0-.16V42.1H57.34v3Z"/><path class="b" d="M84.07,42.1h-9v7.79c5-.62,8.47-2.3,9-4.34h0v-.3a1.3,1.3,0,0,0,0-.17,1.25,1.25,0,0,0,0-.16Z"/><ellipse class="c" cx="70.71" cy="42.1" rx="13.37" ry="5.04"/><path class="a" d="M57.34,41.25v.46h0c.62,2.58,6.57,4.6,13.57,4.6s12.54-2,13.16-4.6h0v-.3a1.25,1.25,0,0,0,0-.16,1.3,1.3,0,0,0,0-.17V38.27H57.34v3Z"/><path class="b" d="M84.07,38.27h-9v7.78c5-.62,8.47-2.3,9-4.34h0v-.3a1.25,1.25,0,0,0,0-.16,1.3,1.3,0,0,0,0-.17Z"/><path class="c" d="M84.07,38.27c0,2.78-6,5-13.37,5s-13.37-2.26-13.37-5,6-5,13.37-5S84.07,35.48,84.07,38.27Z"/><path class="a" d="M57.34,37.42v.47h0c.62,2.58,6.57,4.6,13.57,4.6s12.54-2,13.16-4.6h0v-.3a1.3,1.3,0,0,0,0-.17,1.2,1.2,0,0,0,0-.16V34.44H57.34v3Z"/><path class="b" d="M84.07,34.44h-9v7.79c5-.63,8.47-2.3,9-4.34h0v-.3a1.3,1.3,0,0,0,0-.17,1.2,1.2,0,0,0,0-.16Z"/><ellipse class="c" cx="70.71" cy="34.44" rx="13.37" ry="5.04"/><path class="a" d="M57.34,33.59v.46h0c.62,2.58,6.57,4.6,13.57,4.6s12.54-2,13.16-4.6h0v-.3a1.3,1.3,0,0,0,0-.17,1.25,1.25,0,0,0,0-.16V30.61H57.34v3Z"/><path class="b" d="M84.07,30.61h-9V38.4c5-.63,8.47-2.31,9-4.34h0v-.3a1.3,1.3,0,0,0,0-.17,1.25,1.25,0,0,0,0-.16Z"/><path class="c" d="M84.07,30.61c0,2.78-6,5-13.37,5s-13.37-2.26-13.37-5,6-5,13.37-5S84.07,27.82,84.07,30.61Z"/><path class="a" d="M57.34,29.91v.46h0C58,33,63.9,35,70.91,35s12.54-2,13.16-4.6h0v-.3a1.3,1.3,0,0,0,0-.17,1.25,1.25,0,0,0,0-.16V26.92H57.34v3Z"/><path class="b" d="M84.07,26.92h-9v7.79c5-.63,8.47-2.3,9-4.34h0v-.3a1.3,1.3,0,0,0,0-.17,1.25,1.25,0,0,0,0-.16Z"/><path class="c" d="M84.07,26.92c0,2.78-6,5-13.37,5s-13.37-2.26-13.37-5,6-5,13.37-5S84.07,24.14,84.07,26.92Z"/><path class="a" d="M70.9,24.09c5.57,0,10.16,1.31,10.69,3a1.13,1.13,0,0,0,0-.33c0-1.83-4.81-3.32-10.74-3.32s-10.74,1.49-10.74,3.32a1.14,1.14,0,0,0,.05.33C60.74,25.4,65.32,24.09,70.9,24.09Z"/><path class="a" d="M37.82,78.87v.46h0c.62,2.58,6.57,4.6,13.57,4.6s12.55-2,13.16-4.6h0V79a1.3,1.3,0,0,0,0-.17,1.25,1.25,0,0,0,0-.16V75.89H37.82v3Z"/><path class="b" d="M64.56,75.89h-9v7.79c5-.63,8.47-2.31,9-4.34h0V79a1.3,1.3,0,0,0,0-.17,1.25,1.25,0,0,0,0-.16Z"/><ellipse class="c" cx="51.19" cy="75.88" rx="13.37" ry="5.04"/><path class="a" d="M37.82,75v.46h0c.62,2.58,6.57,4.6,13.57,4.6s12.55-2,13.16-4.6h0v-.3a1.25,1.25,0,0,0,0-.16,1.3,1.3,0,0,0,0-.17V72.06H37.82v3Z"/><path class="b" d="M64.56,72.06h-9v7.78c5-.62,8.47-2.3,9-4.34h0v-.3a1.25,1.25,0,0,0,0-.16,1.3,1.3,0,0,0,0-.17Z"/><path class="c" d="M64.56,72.06c0,2.78-6,5-13.37,5s-13.37-2.26-13.37-5,6-5,13.37-5S64.56,69.27,64.56,72.06Z"/><path class="a" d="M37.82,71.21v.46h0c.62,2.58,6.57,4.6,13.57,4.6s12.55-2,13.16-4.6h0v-.3a1.3,1.3,0,0,0,0-.17,1.25,1.25,0,0,0,0-.16V68.23H37.82v3Z"/><path class="b" d="M64.56,68.23h-9V76c5-.63,8.47-2.3,9-4.34h0v-.3a1.3,1.3,0,0,0,0-.17,1.25,1.25,0,0,0,0-.16Z"/><ellipse class="c" cx="51.19" cy="68.22" rx="13.37" ry="5.04"/><path class="a" d="M37.82,67.38v.46h0c.62,2.58,6.57,4.6,13.57,4.6s12.55-2,13.16-4.6h0v-.3a1.25,1.25,0,0,0,0-.16,1.3,1.3,0,0,0,0-.17V64.4H37.82v3Z"/><path class="b" d="M64.56,64.4h-9v7.78c5-.62,8.47-2.3,9-4.34h0v-.3a1.25,1.25,0,0,0,0-.16,1.3,1.3,0,0,0,0-.17Z"/><ellipse class="c" cx="51.19" cy="64.39" rx="13.37" ry="5.04"/><path class="a" d="M37.82,63.55V64h0c.62,2.58,6.57,4.6,13.57,4.6s12.55-2,13.16-4.6h0v-.3a1.25,1.25,0,0,0,0-.16,1.3,1.3,0,0,0,0-.17V60.56H37.82v3Z"/><path class="b" d="M64.56,60.56h-9v7.79c5-.62,8.47-2.3,9-4.34h0v-.3a1.25,1.25,0,0,0,0-.16,1.3,1.3,0,0,0,0-.17Z"/><ellipse class="c" cx="51.19" cy="60.56" rx="13.37" ry="5.04"/><path class="a" d="M37.82,59.72v.46h0c.62,2.58,6.57,4.6,13.57,4.6s12.55-2,13.16-4.6h0v-.3a1.3,1.3,0,0,0,0-.17,1.25,1.25,0,0,0,0-.16V56.74H37.82v3Z"/><path class="b" d="M64.56,56.74h-9v7.79c5-.63,8.47-2.3,9-4.34h0v-.3a1.3,1.3,0,0,0,0-.17,1.25,1.25,0,0,0,0-.16Z"/><path class="c" d="M64.56,56.74c0,2.78-6,5-13.37,5s-13.37-2.26-13.37-5,6-5,13.37-5S64.56,53.95,64.56,56.74Z"/><path class="a" d="M37.82,55.89v.46h0c.62,2.58,6.57,4.6,13.57,4.6s12.55-2,13.16-4.6h0v-.3a1.25,1.25,0,0,0,0-.16,1.3,1.3,0,0,0,0-.17V52.91H37.82v3Z"/><path class="b" d="M64.56,52.91h-9v7.78c5-.62,8.47-2.3,9-4.34h0v-.3a1.25,1.25,0,0,0,0-.16,1.3,1.3,0,0,0,0-.17Z"/><path class="c" d="M64.56,52.91c0,2.78-6,5-13.37,5s-13.37-2.26-13.37-5,6-5,13.37-5S64.56,50.12,64.56,52.91Z"/><path class="a" d="M37.82,52.06v.46h0c.62,2.58,6.57,4.6,13.57,4.6s12.55-2,13.16-4.6h0v-.3a1.3,1.3,0,0,0,0-.17,1.25,1.25,0,0,0,0-.16V49.08H37.82v3Z"/><path class="b" d="M64.56,49.08h-9v7.79c5-.63,8.47-2.3,9-4.34h0v-.3a1.3,1.3,0,0,0,0-.17,1.25,1.25,0,0,0,0-.16Z"/><ellipse class="c" cx="51.19" cy="49.07" rx="13.37" ry="5.04"/><path class="a" d="M51.38,46.24c5.57,0,10.16,1.31,10.69,3a1.14,1.14,0,0,0,.05-.33c0-1.83-4.81-3.32-10.74-3.32s-10.74,1.48-10.74,3.32a1.14,1.14,0,0,0,.05.33C41.23,47.55,45.81,46.24,51.38,46.24Z"/></svg>