<svg xmlns="http://www.w3.org/2000/svg" viewBox="0 0 100 100"><defs><style>.a{fill:#2078bd;}.b{fill:#036ab0;}.c{fill:#e8e8e8;}.d{fill:#078543;}.e{fill:#f5923d;}.f{fill:#afad9e;opacity:0.1;}.g{fill:#f06a24;}</style></defs><title>icon_3_uddannelse</title><path class="a" d="M70.87,69.49a.85.85,0,0,1,0,1.7H8.14A5.09,5.09,0,0,1,3.06,66.1V62.89A5.09,5.09,0,0,1,8.14,57.8H70.87a.85.85,0,0,1,0,1.7"/><path class="b" d="M25.08,66.1V62.89a5.09,5.09,0,0,1,5.09-5.09H19.68a5.09,5.09,0,0,0-5.09,5.09V66.1a5.09,5.09,0,0,0,5.09,5.09H30.17A5.09,5.09,0,0,1,25.08,66.1Z"/><path class="c" d="M92.92,64.49a14.18,14.18,0,0,1,1.2-5.81v0H50.89a4.24,4.24,0,0,0-4.24,4.24V66.1a4.24,4.24,0,0,0,4.24,4.24H94.12v0A14.19,14.19,0,0,1,92.92,64.49Z"/><path class="d" d="M76.81,56.11a.85.85,0,1,1,0,1.7H14.08A5.09,5.09,0,0,1,9,52.72V49.51a5.09,5.09,0,0,1,5.09-5.09H76.81a.85.85,0,0,1,0,1.7"/><path class="c" d="M86.24,51.11a14.18,14.18,0,0,1,1.2-5.81v0H44.21A4.24,4.24,0,0,0,40,49.51v3.21A4.24,4.24,0,0,0,44.21,57H87.44v0A14.19,14.19,0,0,1,86.24,51.11Z"/><path class="e" d="M29.13,30.51a.85.85,0,1,1,0-1.7H91.86a5.09,5.09,0,0,1,5.09,5.09v5.43a5.09,5.09,0,0,1-5.09,5.09H29.13a.85.85,0,1,1,0-1.7"/><path class="f" d="M40,48.56H86.4a13.53,13.53,0,0,1,1-3.26v0H44.16A4.24,4.24,0,0,0,40,48.56Z"/><path class="f" d="M46.71,62.41H93.08a13.53,13.53,0,0,1,1-3.26v0H50.83A4.24,4.24,0,0,0,46.71,62.41Z"/><path class="d" d="M88.29,57.8H44.21a5.09,5.09,0,0,1-5.09-5.09V49.51a5.09,5.09,0,0,1,5.09-5.09H88.29a.85.85,0,0,1,0,1.7H44.21a3.4,3.4,0,0,0-3.39,3.39v3.21a3.39,3.39,0,0,0,3.39,3.39H88.29a.85.85,0,1,1,0,1.7Z"/><path class="b" d="M95,71.18H50.89A5.09,5.09,0,0,1,45.8,66.1V62.89a5.09,5.09,0,0,1,5.09-5.09H95a.85.85,0,0,1,0,1.7H50.89a3.4,3.4,0,0,0-3.39,3.39V66.1a3.4,3.4,0,0,0,3.39,3.39H95a.85.85,0,0,1,0,1.7Z"/><path class="g" d="M29.13,40.76v2a.85.85,0,1,0,0,1.7H91.86a5.09,5.09,0,0,0,4.88-3.65Z"/><path class="c" d="M19.7,36.79a19.1,19.1,0,0,1-1.2,6.75v0H61.72A4.24,4.24,0,0,0,66,39.34V33.9a4.24,4.24,0,0,0-4.24-4.24H18.5v0A21.09,21.09,0,0,1,19.7,36.79Z"/><path class="e" d="M17.65,28.82H61.72a5.09,5.09,0,0,1,5.09,5.09v5.43a5.09,5.09,0,0,1-5.09,5.09H17.65a.85.85,0,0,1,0-1.7H61.72a3.4,3.4,0,0,0,3.39-3.39V33.9a3.4,3.4,0,0,0-3.39-3.39H17.65a.85.85,0,1,1,0-1.7Z"/><polyline class="g" points="53.34 34.9 53.34 46.37 56.02 43.69 59.2 46.88 59.2 34.9"/></svg>