<svg xmlns="http://www.w3.org/2000/svg" viewBox="0 0 100 100"><defs><style>.a,.d{fill:#fff;}.b{fill:#f16e73;fill-rule:evenodd;}.c{fill:#ea2127;}.d{opacity:0.3;}</style></defs><title>icon_7_helbred</title><polygon class="a" points="68.16 38 66.66 38.3 66.06 39.7 65.31 38.37 63.78 38.24 64.82 37.11 64.48 35.62 65.87 36.26 67.18 35.47 67 36.99 68.16 38"/><path class="b" d="M55.84,34.46a.41.41,0,0,1,.56.15.41.41,0,0,1-.7.42A.41.41,0,0,1,55.84,34.46Z"/><path class="b" d="M56.11,34.33c-.3.29-.71-.4-.78-1.08s.18-1.27,1.1-1.07c.37.08.41.7.37,1A3.46,3.46,0,0,1,56.11,34.33Z"/><path class="b" d="M56.65,34.8c-.45-.12-.22-.82.25-1.21s1.11-.45,1.63.46c.21.36-.23.69-.46.79A3.69,3.69,0,0,1,56.65,34.8Z"/><path class="b" d="M56.18,35.38c.09-.44.8-.31,1.22.08s.54,1-.32,1.57c-.34.24-.71-.13-.82-.33A3.14,3.14,0,0,1,56.18,35.38Z"/><path class="b" d="M55.5,35.09c.43-.11.62.59.44,1.14s-.65.9-1.56.38c-.36-.21-.18-.7-.05-.88A3.1,3.1,0,0,1,55.5,35.09Z"/><path class="b" d="M55.52,34.37c.22.38-.4.75-1,.74s-1-.38-.79-1.39c.1-.41.62-.37.83-.29A3.12,3.12,0,0,1,55.52,34.37Z"/><path class="c" d="M84.76,21.87l-.33-.33a22.63,22.63,0,0,0-32,0L50,24l-2.43-2.43a22.62,22.62,0,0,0-32,0l-.33.33a22.63,22.63,0,0,0-3.29,27.82,23,23,0,0,0,2.71,3.57c.19.2,13,13,13,13s13.29,13.41,16,16A10.75,10.75,0,0,0,50,85.09a10,10,0,0,0,6.26-2.71c2.73-2.68,16.09-16.1,16.09-16.1l2.93-2.92,5.07-5.07,2-2,2.43-2.43c.51-.51,1-1,1.45-1.6A22.64,22.64,0,0,0,84.76,21.87Z"/><path class="d" d="M88,40.89c-.25.57-.91,1-.58-.43a18,18,0,0,0-6.19-15.4c-9-7.73-17.58-5-17.79-5.55s1-.78,1-.78a20.7,20.7,0,0,1,18.31,5.1A18,18,0,0,1,88,40.89Z"/><path class="d" d="M46.09,23.88c.77.62,2.48.54,1-.85a27.15,27.15,0,0,0-9.28-5.26c-2.16-.71-3.52-.39-.54.85a26.83,26.83,0,0,1,6.8,4C45.6,23.91,46.09,23.88,46.09,23.88Z"/><path class="a" d="M65.91,52,60.73,41.54a1.19,1.19,0,0,0-1.14-.66,1.17,1.17,0,0,0-1,.82l-5.61,18-7.09-14.8a1.18,1.18,0,0,0-1-.67h0a1.18,1.18,0,0,0-1,.64L39.91,52.4H13.77c.24.28.46.58.72.86s.38.41.58.61l.88.87H40.63a1.16,1.16,0,0,0,1-.64L44.77,48l7.35,15.35a1.18,1.18,0,0,0,1.06.67h.09a1.18,1.18,0,0,0,1-.83l5.62-18,4.2,8.53a1.19,1.19,0,0,0,1.06.66H84.06l.52-.53q.77-.77,1.45-1.6l.17-.23Z"/></svg>