<svg xmlns="http://www.w3.org/2000/svg" viewBox="0 0 100 100"><defs><style>.a{fill:#ed9e95;}.b{fill:#120e0b;}.c{fill:#402312;}.d{fill:#64787f;}.e{fill:#e8e8e8;}.f{fill:#f5923d;}.g{fill:#007f49;}.h,.i{fill:none;}.h{stroke:#c8c8c6;stroke-miterlimit:10;}.i{stroke:#f5923d;stroke-linejoin:round;stroke-width:3px;}</style></defs><title>icon_2_familie</title><path class="a" d="M39.17,55.21,34.66,55h-8.1c0,1.58,2.53,20.37,2.53,20.37l1.24,10,.61,5h2.36v0h.89l.65-4.95L36.5,72.67s3.44-14.87,3.63-15.86S39.17,55.21,39.17,55.21Z"/><path class="a" d="M71,11.35a8,8,0,0,1,1.3,4.37V20.1a8,8,0,0,1-13.31,6,8,8,0,0,0,14.73-4.37V17.35A8,8,0,0,0,71,11.35Z"/><path class="a" d="M72.25,20.1V15.71A8,8,0,0,0,71,11.35a8,8,0,0,0-13.31,6v4.38a8,8,0,0,0,1.3,4.37,8,8,0,0,0,13.31-6Z"/><path class="b" d="M72.23,12.23a8.48,8.48,0,0,0-6.59-3.76,8.49,8.49,0,0,0-6.59,3.76A8.08,8.08,0,0,0,57.51,17v3a8.12,8.12,0,0,1,3-6.27,8.14,8.14,0,0,0,10.35,0,8.11,8.11,0,0,1,3,6.27V17A8.07,8.07,0,0,0,72.23,12.23Z"/><path class="b" d="M71.45,12.54a3.46,3.46,0,0,1-2.07.66,3.46,3.46,0,0,1-4.74-.94,3.47,3.47,0,0,1,4.25-.75,3.47,3.47,0,0,1,4-1.65A3.46,3.46,0,0,1,71.45,12.54Z"/><path class="b" d="M70.83,11.88a3.44,3.44,0,0,1-1.71,1.34,3.45,3.45,0,0,1-4.77.76,3.46,3.46,0,0,1,2.23-2.06,3.41,3.41,0,0,1,1.5-.11,3.45,3.45,0,0,1,3.16-2.93A3.46,3.46,0,0,1,70.83,11.88Z"/><path class="c" d="M42.84,29.82a6.33,6.33,0,0,1-6.33,6.33h-8.7a6.33,6.33,0,0,1-6.33-6.33h0a6.33,6.33,0,0,1,6.33-6.33h8.7a6.33,6.33,0,0,1,6.33,6.33Z"/><path class="d" d="M56.36,52.61a9.14,9.14,0,0,0,18.28,0"/><path class="b" d="M63.15,91.54a2.77,2.77,0,1,0-5.54,0"/><path class="b" d="M35.94,91.54a2.77,2.77,0,1,0-5.55,0"/><path class="b" d="M33.78,91.54a2.77,2.77,0,1,0-5.55,0"/><rect class="d" x="67.7" y="55.88" width="4.62" height="31.87"/><rect class="b" x="67.7" y="87.49" width="4.62" height="4.04"/><path class="b" d="M70.94,91.54a2.77,2.77,0,1,0-5.54,0"/><polygon class="b" points="59.4 91.43 64.02 91.53 64.02 87.5 59.4 87.5 59.4 91.43"/><rect class="d" x="59.4" y="55.88" width="4.62" height="31.87"/><path class="a" d="M50,51.06A11.14,11.14,0,0,1,38.9,39.94h3.74A7.38,7.38,0,0,0,50,47.32"/><path class="e" d="M66.25,30.48a12.38,12.38,0,0,1,2.63.29v24a12.39,12.39,0,0,1-2.63.29,12.23,12.23,0,0,1-3.69-.57V31A12.23,12.23,0,0,1,66.25,30.48Z"/><path class="f" d="M75.26,34.43a12.27,12.27,0,0,1,0,16.64V61.4H68.87V30.76A12.27,12.27,0,0,1,75.26,34.43Z"/><path class="f" d="M62.55,31V61.4H56.35V46L54,46.1V42.75A12.27,12.27,0,0,1,62.55,31Z"/><polyline class="a" points="68.44 27.7 68.44 30.76 65.68 35.58 63.26 30.82 63.26 27.57"/><path class="c" d="M40.62,17.62a8.45,8.45,0,0,0-16.91,0V28.14s2,2.34,8.49,2.34,8.41-2.69,8.41-2.69Z"/><path class="a" d="M32.17,12.35a6.94,6.94,0,0,0-2.06.31l.45,0A6.35,6.35,0,0,1,36.91,19V22.6c0,3.51-2.85,5.38-6.35,5.38a6.34,6.34,0,0,1-3.84-1.3A6.86,6.86,0,0,0,39,22.52V19.21A6.86,6.86,0,0,0,32.17,12.35Z"/><path class="a" d="M36.91,22.6V19a6.35,6.35,0,0,0-6.35-6.35l-.45,0a6.87,6.87,0,0,0-4.8,6.55v3.31a6.84,6.84,0,0,0,1.42,4.16A6.34,6.34,0,0,0,30.56,28C34.07,28,36.91,26.11,36.91,22.6Z"/><path class="c" d="M32.17,13.31a7.26,7.26,0,0,1,7.2,6.47,6.9,6.9,0,0,0,0-.79,7.25,7.25,0,0,0-14.5,0,7.05,7.05,0,0,0,0,.78A7.26,7.26,0,0,1,32.17,13.31Z"/><path class="c" d="M28.12,13.06a7.19,7.19,0,0,0,7.2,7.19s4.6.35,4.6-2.86-2.78-5.12-5.2-5.81S28.12,13.06,28.12,13.06Z"/><path class="g" d="M34.33,29.59a10.71,10.71,0,0,0-12.8,10.5H25a7.69,7.69,0,0,0,6.24,7.14,7.92,7.92,0,0,0,1.43.13,7.69,7.69,0,0,0,7.67-7.27h2.62A10.7,10.7,0,0,0,34.33,29.59Z"/><path class="d" d="M41.63,57.57c-.47-4.68-1.66-13-2.93-13h-12c-1.27,0-3.09,8.48-3.55,13.16s0,5.66,0,5.66-.33,3.36,10.14,3.36h0c10.47,0,8.34-3.59,8.34-3.59S42.09,62.25,41.63,57.57Z"/><path class="a" d="M30.58,27.88v1.46a2,2,0,0,0,4,0V27.88"/><path class="f" d="M47.7,47.18l.6,5.25a20.23,20.23,0,0,0,5.48-2.5,22.4,22.4,0,0,0,3.58-4.05l-2.73-5.93s-1.08,4.38-2.87,5.93A5.83,5.83,0,0,1,47.7,47.18Z"/><path class="a" d="M21.77,40.09v5.3a5.92,5.92,0,0,0,2,4.42l5.3,5.3a1.78,1.78,0,0,0,2.51,0,1.77,1.77,0,0,0,0-2.5l-5.43-5.43a2.38,2.38,0,0,1-.82-1.79l.63-5.3"/><path class="h" d="M47.7,40.79s1.54.36,3.15,3c1.44,2.35.59,5.64.59,5.64"/><circle class="a" cx="50.43" cy="37.97" r="4.66" transform="translate(3.45 80.13) rotate(-78.88)"/><polyline class="i" points="55.23 49.38 65.64 51.06 74.63 47.36"/><path class="a" d="M55,51.62l-3-.37a2.18,2.18,0,0,1,.54-4.33l3.07.38"/><path class="a" d="M39.17,55.21,34.66,55h-8.1c0,1.58,2.53,20.37,2.53,20.37l1.24,10,.61,5h2.36v0h.89l.65-4.95L36.5,72.67s3.44-14.87,3.63-15.86S39.17,55.21,39.17,55.21Z"/><path class="a" d="M71,11.35a8,8,0,0,0-13.31,6v4.38a8,8,0,1,0,16,0V17.35A8,8,0,0,0,71,11.35Z"/><path class="b" d="M72.23,12.23a8.48,8.48,0,0,0-6.59-3.76,8.49,8.49,0,0,0-6.59,3.76A8.08,8.08,0,0,0,57.51,17v3a8.12,8.12,0,0,1,3-6.27,8.14,8.14,0,0,0,10.35,0,8.11,8.11,0,0,1,3,6.27V17A8.07,8.07,0,0,0,72.23,12.23Z"/><path class="b" d="M71.45,12.54a3.46,3.46,0,0,1-2.07.66,3.46,3.46,0,0,1-4.74-.94,3.47,3.47,0,0,1,4.25-.75,3.47,3.47,0,0,1,4-1.65A3.46,3.46,0,0,1,71.45,12.54Z"/><path class="b" d="M70.83,11.88a3.44,3.44,0,0,1-1.71,1.34,3.45,3.45,0,0,1-4.77.76,3.46,3.46,0,0,1,2.23-2.06,3.41,3.41,0,0,1,1.5-.11,3.45,3.45,0,0,1,3.16-2.93A3.46,3.46,0,0,1,70.83,11.88Z"/><path class="c" d="M42.84,29.82a6.33,6.33,0,0,1-6.33,6.33h-8.7a6.33,6.33,0,0,1-6.33-6.33h0a6.33,6.33,0,0,1,6.33-6.33h8.7a6.33,6.33,0,0,1,6.33,6.33Z"/><path class="d" d="M56.36,52.61a9.14,9.14,0,0,0,18.28,0"/><path class="b" d="M63.15,91.54a2.77,2.77,0,1,0-5.54,0"/><path class="b" d="M35.94,91.54a2.77,2.77,0,1,0-5.55,0"/><path class="b" d="M33.78,91.54a2.77,2.77,0,1,0-5.55,0"/><rect class="d" x="67.7" y="55.88" width="4.62" height="31.87"/><rect class="b" x="67.7" y="87.49" width="4.62" height="4.04"/><path class="b" d="M70.94,91.54a2.77,2.77,0,1,0-5.54,0"/><polygon class="b" points="59.4 91.43 64.02 91.53 64.02 87.5 59.4 87.5 59.4 91.43"/><rect class="d" x="59.4" y="55.88" width="4.62" height="31.87"/><path class="a" d="M50,51.06A11.14,11.14,0,0,1,38.9,39.94h3.74A7.38,7.38,0,0,0,50,47.32"/><path class="e" d="M66.25,30.48a12.38,12.38,0,0,1,2.63.29v24a12.39,12.39,0,0,1-2.63.29,12.23,12.23,0,0,1-3.69-.57V31A12.23,12.23,0,0,1,66.25,30.48Z"/><path class="f" d="M75.26,34.43a12.27,12.27,0,0,1,0,16.64V61.4H68.87V30.76A12.27,12.27,0,0,1,75.26,34.43Z"/><path class="f" d="M62.55,31V61.4H56.35V46L54,46.1V42.75A12.27,12.27,0,0,1,62.55,31Z"/><polyline class="a" points="68.44 27.7 68.44 30.76 65.68 35.58 63.26 30.82 63.26 27.57"/><path class="c" d="M40.62,17.62a8.45,8.45,0,0,0-16.91,0V28.14s2,2.34,8.49,2.34,8.41-2.69,8.41-2.69Z"/><path class="a" d="M32.17,12.35a6.94,6.94,0,0,0-2.06.31,6.87,6.87,0,0,0-4.8,6.55v3.31a6.86,6.86,0,1,0,13.72,0V19.21A6.86,6.86,0,0,0,32.17,12.35Z"/><path class="c" d="M32.17,13.31a7.26,7.26,0,0,1,7.2,6.47,6.9,6.9,0,0,0,0-.79,7.25,7.25,0,0,0-14.5,0,7.05,7.05,0,0,0,0,.78A7.26,7.26,0,0,1,32.17,13.31Z"/><path class="c" d="M28.12,13.06a7.19,7.19,0,0,0,7.2,7.19s4.6.35,4.6-2.86-2.78-5.12-5.2-5.81S28.12,13.06,28.12,13.06Z"/><path class="g" d="M34.33,29.59a10.71,10.71,0,0,0-12.8,10.5H25a7.69,7.69,0,0,0,6.24,7.14,7.92,7.92,0,0,0,1.43.13,7.69,7.69,0,0,0,7.67-7.27h2.62A10.7,10.7,0,0,0,34.33,29.59Z"/><path class="d" d="M41.63,57.57c-.47-4.68-1.66-13-2.93-13h-12c-1.27,0-3.09,8.48-3.55,13.16s0,5.66,0,5.66-.33,3.36,10.14,3.36h0c10.47,0,8.34-3.59,8.34-3.59S42.09,62.25,41.63,57.57Z"/><path class="a" d="M30.58,27.88v1.46a2,2,0,0,0,4,0V27.88"/><path class="f" d="M47.7,47.18l.6,5.25a20.23,20.23,0,0,0,5.48-2.5,22.4,22.4,0,0,0,3.58-4.05l-2.73-5.93s-1.08,4.38-2.87,5.93A5.83,5.83,0,0,1,47.7,47.18Z"/><path class="a" d="M21.77,40.09v5.3a5.92,5.92,0,0,0,2,4.42l5.3,5.3a1.78,1.78,0,0,0,2.51,0,1.77,1.77,0,0,0,0-2.5l-5.43-5.43a2.38,2.38,0,0,1-.82-1.79l.63-5.3"/><rect class="e" x="41.78" y="33.41" width="14.09" height="22.44" rx="7.04" ry="7.04" transform="translate(9.52 -8.58) rotate(11.12)"/><path class="h" d="M47.7,40.79s1.54.36,3.15,3c1.44,2.35.59,5.64.59,5.64"/><circle class="a" cx="50.43" cy="37.97" r="4.66" transform="translate(3.45 80.13) rotate(-78.88)"/><polyline class="i" points="55.23 49.38 65.64 51.06 74.63 47.36"/><path class="a" d="M55,51.62l-3-.37a2.18,2.18,0,0,1,.54-4.33l3.07.38"/></svg>