<svg width="78" height="50" viewBox="0 0 78 50" fill="none" xmlns="http://www.w3.org/2000/svg">
<path d="M7.09734 38.0487C7.09734 38.6979 7.22902 39.0619 7.49191 39.1419C8.31705 39.3155 8.72985 39.8303 8.72985 40.6859V42.62C8.72985 43.8232 7.67508 44.4239 5.56552 44.4239H3.18167C1.07211 44.4239 0.017334 43.8232 0.017334 42.62V36.4485H1.85169V42.62C1.85169 43.2097 2.29456 43.5034 3.18122 43.5034H5.56552C6.45171 43.5034 6.89504 43.2093 6.89504 42.62V40.6854C6.91327 40.2099 6.62303 39.8887 6.02388 39.7165C5.56552 39.6297 5.31173 39.0733 5.26253 38.0483H7.09734V38.0487Z" fill="#EC1B2E"/>
<path d="M11.1866 40.0576V42.6198C11.1866 43.2096 11.6304 43.5038 12.5166 43.5038H14.9009C15.7871 43.5038 16.2309 43.2091 16.2309 42.6198L16.2764 39.5031C16.2764 38.9106 15.8336 38.6146 14.9469 38.6146H14.0758C12.425 38.6146 11.5994 37.9088 11.5994 36.495H13.4333C13.4333 37.2971 13.6411 37.6982 14.0571 37.6982H14.9465C17.0556 37.6982 18.1103 38.2998 18.1103 39.5031L18.0648 42.6198C18.0648 43.8231 17.01 44.4238 14.9004 44.4238H12.5161C10.4066 44.4238 9.35181 43.8231 9.35181 42.6198V40.0576H11.1866Z" fill="#EC1B2E"/>
<path d="M19.1468 38.8016C19.1468 37.5984 20.1647 36.9986 22.2013 36.9986H23.0447C23.8826 36.9986 24.7232 37.2023 25.5671 37.6144V36.4536H27.4005V42.6251C27.4005 43.8283 26.3457 44.4299 24.2366 44.4299H21.8523C19.7428 44.4299 18.688 43.8283 18.688 42.6251L18.7796 41.0198H20.6139L20.5223 42.6251C20.5223 43.2148 20.9657 43.5094 21.8523 43.5094H24.2366C25.1228 43.5094 25.5666 43.2148 25.5666 42.6251V39.252C25.5238 38.5695 24.6827 38.1228 23.0442 37.9131H22.2187C21.394 37.9131 20.9812 38.21 20.9812 38.802L21.0727 39.696H19.2384L19.1468 38.8016Z" fill="#EC1B2E"/>
<path d="M35.0549 38.0487C35.0549 38.6979 35.1865 39.0619 35.4494 39.1419C36.2741 39.3155 36.6874 39.8303 36.6874 40.6859V42.62C36.6874 43.8232 35.6326 44.4239 33.523 44.4239H31.1392C29.0301 44.4239 27.9749 43.8232 27.9749 42.62V36.4485H29.8088V42.62C29.8088 43.2097 30.2521 43.5034 31.1387 43.5034H33.5226C34.4088 43.5034 34.8526 43.2093 34.8526 42.62V40.6854C34.8708 40.2099 34.5806 39.8887 33.9814 39.7165C33.5226 39.6297 33.2693 39.0733 33.22 38.0483H35.0549V38.0487Z" fill="#929497"/>
<path d="M41.7665 37.6782H40.565C39.6788 37.6782 39.2355 37.9738 39.2355 38.5672V42.6204C39.2355 43.2097 39.6788 43.5038 40.565 43.5038H44.7198C45.6051 43.5038 46.0489 43.2092 46.0489 42.6204V38.5672C46.0489 37.9738 45.6051 37.6782 44.7198 37.6782H43.4172V40.3272H41.7665V37.6782ZM37.4011 38.6453C37.4011 37.4425 38.4499 36.8413 40.5472 36.8413H41.7665V36.0136H43.4172V36.8413H44.7198C46.8285 36.8413 47.8837 37.4425 47.8837 38.6453V42.6204C47.8837 43.8236 46.8285 44.4238 44.7198 44.4238H40.565C38.4559 44.4238 37.4006 43.8236 37.4006 42.6204V38.6453H37.4011Z" fill="#929497"/>
<path d="M50.2008 40.0576V42.6198C50.2008 43.2096 50.6432 43.5038 51.5303 43.5038H53.9146C54.8008 43.5038 55.2446 43.2091 55.2446 42.6198L55.2901 39.5031C55.2901 38.9106 54.8468 38.6146 53.961 38.6146H53.089C51.4387 38.6146 50.6126 37.9088 50.6126 36.495H52.447C52.447 37.2971 52.6543 37.6982 53.0708 37.6982H53.9606C56.0692 37.6982 57.1245 38.2998 57.1245 39.5031L57.078 42.6198C57.078 43.8231 56.0232 44.4238 53.9141 44.4238H51.5298C49.4203 44.4238 48.3655 43.8231 48.3655 42.6198V40.0576H50.2008Z" fill="#929497"/>
<path d="M62.159 37.6782H60.9561C60.0709 37.6782 59.6271 37.9738 59.6271 38.5672V42.6204C59.6271 43.2097 60.0704 43.5038 60.9561 43.5038H65.111C65.9977 43.5038 66.441 43.2092 66.441 42.6204V38.5672C66.441 37.9738 65.9977 37.6782 65.111 37.6782H63.8093V40.3272H62.159V37.6782ZM57.7932 38.6453C57.7932 37.4425 58.8411 36.8413 60.9388 36.8413H62.159V36.0136H63.8093V36.8413H65.111C67.2206 36.8413 68.2754 37.4425 68.2754 38.6453V42.6204C68.2754 43.8236 67.2201 44.4238 65.111 44.4238H60.9561C58.8475 44.4238 57.7927 43.8236 57.7927 42.6204V38.6453H57.7932Z" fill="#929497"/>
<path d="M68.9412 44.2988L68.8496 38.2055C68.8496 37.037 69.8679 36.4532 71.9041 36.4532H74.2151C76.264 36.4532 77.2874 37.037 77.2874 38.2055L77.1958 44.2988H75.3619L75.4535 38.2055C75.4535 37.6477 75.0402 37.3686 74.2155 37.3686H71.9228C71.0963 37.3686 70.6849 37.6477 70.6849 38.2055L70.776 44.2988H68.9412Z" fill="#929497"/>
<path d="M48.8445 46.3619L49.1224 47.4167C49.1775 47.6488 49.2331 47.8648 49.2719 48.0786H49.2846C49.3325 47.8685 49.4003 47.6456 49.4682 47.4222L49.8059 46.3624H50.123L50.4433 47.4012C50.5216 47.6492 50.5822 47.8685 50.6283 48.0791H50.6406C50.6743 47.8689 50.7312 47.6492 50.7991 47.4053L51.0944 46.3624H51.4662L50.7991 48.4381H50.457L50.1403 47.4478C50.0678 47.2157 50.0086 47.0101 49.9553 46.7658H49.948C49.8965 47.0133 49.8305 47.2276 49.7594 47.4532L49.4245 48.4386H49.0832L48.4595 46.3629H48.8445V46.3619Z" fill="#EC1B2E"/>
<path d="M52.0371 46.3619L52.3164 47.4167C52.3701 47.6488 52.4266 47.8648 52.4654 48.0786H52.4763C52.5241 47.8685 52.5939 47.6456 52.6613 47.4222L52.9989 46.3624H53.316L53.6368 47.4012C53.7133 47.6492 53.773 47.8685 53.8218 48.0791H53.8322C53.8678 47.8689 53.9234 47.6492 53.9926 47.4053L54.2883 46.3624H54.6583L53.9926 48.4381H53.6491L53.3338 47.4478C53.2591 47.2157 53.2007 47.0101 53.1488 46.7658H53.1397C53.0882 47.0133 53.024 47.2276 52.9529 47.4532L52.618 48.4386H52.2763L51.6516 46.3629H52.0371V46.3619Z" fill="#EC1B2E"/>
<path d="M55.2285 46.3619L55.5064 47.4167C55.5634 47.6488 55.6185 47.8648 55.6554 48.0786H55.6695C55.716 47.8685 55.7834 47.6456 55.8531 47.4222L56.1912 46.3624H56.5083L56.8282 47.4012C56.9047 47.6492 56.9653 47.8685 57.0118 48.0791H57.0259C57.0574 47.8689 57.1148 47.6492 57.1827 47.4053L57.4784 46.3624H57.8515L57.1822 48.4381H56.8405L56.5234 47.4478C56.4523 47.2157 56.3922 47.0101 56.3402 46.7658H56.3311C56.281 47.0133 56.2154 47.2276 56.1425 47.4532L55.8094 48.4386H55.4654L54.843 46.3629H55.2285V46.3619Z" fill="#EC1B2E"/>
<path d="M57.9626 48.2144C57.9626 48.0614 58.0715 47.9454 58.221 47.9454C58.3691 47.9454 58.4716 48.0573 58.4716 48.2144C58.4716 48.3697 58.3686 48.484 58.2123 48.484C58.0661 48.484 57.9626 48.3697 57.9626 48.2144Z" fill="#EC1B2E"/>
<path d="M60.3319 47.1811C60.3319 47.1162 60.3268 47.0618 60.3104 47.013C60.2407 46.7905 60.0635 46.6114 59.7856 46.6114C59.4256 46.6114 59.1677 46.9152 59.1677 47.3948C59.1677 47.8032 59.3773 48.1431 59.7801 48.1431C60.0147 48.1431 60.2252 47.9965 60.3013 47.7557C60.3227 47.6913 60.3319 47.6182 60.3319 47.5538V47.1811ZM60.7077 48.1326C60.7077 48.6145 60.6116 48.9018 60.4139 49.0855C60.2093 49.2714 59.9177 49.3353 59.6575 49.3353C59.4078 49.3353 59.134 49.2751 58.9663 49.164L59.0611 48.8717C59.1982 48.9631 59.4115 49.0398 59.6685 49.0398C60.0525 49.0398 60.3378 48.8379 60.3378 48.3116V48.0828H60.3278C60.217 48.2756 59.9888 48.4286 59.6689 48.4286C59.1559 48.4286 58.7896 47.9937 58.7896 47.4168C58.7896 46.7156 59.2452 46.3195 59.7254 46.3195C60.0854 46.3195 60.2772 46.505 60.3706 46.6763H60.3806L60.3938 46.3625H60.7264C60.7141 46.5082 60.7087 46.6795 60.7087 46.928V48.1326H60.7077Z" fill="#EC1B2E"/>
<path d="M62.6371 47.199C62.6408 46.961 62.5373 46.5901 62.1141 46.5901C61.7295 46.5901 61.5664 46.9364 61.5377 47.199H62.6371ZM61.5322 47.4685C61.5413 47.9806 61.8612 48.1898 62.2426 48.1898C62.5127 48.1898 62.68 48.1428 62.8153 48.0825L62.8845 48.3515C62.7515 48.4123 62.52 48.4836 62.1906 48.4836C61.5536 48.4836 61.1746 48.0615 61.1746 47.4343C61.1746 46.808 61.5413 46.3192 62.1446 46.3192C62.8244 46.3192 63.0012 46.9094 63.0012 47.2927C63.0012 47.3703 62.9957 47.4251 62.9871 47.4681H61.5322V47.4685Z" fill="#EC1B2E"/>
<path d="M63.6967 47.4044C63.6967 47.8594 63.9527 48.2034 64.3213 48.2034C64.6813 48.2034 64.9501 47.8644 64.9501 47.3948C64.9501 47.0426 64.7738 46.6009 64.3286 46.6009C63.8885 46.6009 63.6967 47.013 63.6967 47.4044ZM65.3342 47.3825C65.3342 48.1504 64.8002 48.4839 64.3031 48.4839C63.7477 48.4839 63.3103 48.0732 63.3103 47.4168C63.3103 46.7261 63.7691 46.3195 64.3387 46.3195C64.9337 46.3191 65.3342 46.7507 65.3342 47.3825Z" fill="#EC1B2E"/>
<path d="M65.753 48.0574C65.8687 48.125 66.066 48.204 66.2524 48.204C66.5221 48.204 66.6497 48.0701 66.6497 47.8929C66.6497 47.7129 66.5426 47.6184 66.2688 47.5165C65.8933 47.3795 65.7165 47.178 65.7165 46.9277C65.7165 46.5938 65.9913 46.3192 66.4328 46.3192C66.6428 46.3192 66.8278 46.3763 66.9385 46.4489L66.8497 46.7226C66.7677 46.6723 66.6178 46.597 66.4241 46.597C66.2013 46.597 66.082 46.7258 66.082 46.8806C66.082 47.0524 66.2013 47.1291 66.4715 47.236C66.8278 47.3703 67.0128 47.5503 67.0128 47.8586C67.0128 48.2287 66.728 48.4831 66.2442 48.4831C66.0182 48.4831 65.8077 48.4246 65.6619 48.3383L65.753 48.0574Z" fill="#EC1B2E"/>
<path d="M67.9454 45.8636V46.3615H68.4867V46.6507H67.9454V47.7694C67.9454 48.0266 68.0201 48.1714 68.2306 48.1714C68.3336 48.1714 68.3924 48.1636 68.4471 48.1458L68.4653 48.4331C68.3928 48.4587 68.2771 48.4834 68.1313 48.4834C67.9564 48.4834 67.8142 48.4244 67.7249 48.3248C67.6215 48.2106 67.5795 48.0266 67.5795 47.7822V46.6507H67.2588V46.3615H67.5795V45.9755L67.9454 45.8636Z" fill="#EC1B2E"/>
<path d="M69.9967 47.3789C69.5875 47.3702 69.1205 47.4433 69.1205 47.8462C69.1205 48.0966 69.2827 48.2071 69.4713 48.2071C69.7456 48.2071 69.9215 48.0358 69.9807 47.859C69.9926 47.8161 69.9967 47.7736 69.9967 47.7393V47.3789ZM70.3621 47.9408C70.3621 48.1217 70.3712 48.2962 70.3926 48.4373H70.0541L70.024 48.1747H70.0112C69.8951 48.3387 69.6727 48.483 69.3775 48.483C68.9574 48.483 68.7441 48.1893 68.7441 47.8892C68.7441 47.3858 69.1893 47.1108 69.9898 47.1162V47.0733C69.9898 46.9057 69.9438 46.5937 69.5196 46.5969C69.321 46.5969 69.1209 46.654 68.9751 46.7508L68.8904 46.4991C69.0603 46.3922 69.3132 46.3187 69.5734 46.3187C70.2067 46.3187 70.3621 46.7508 70.3621 47.1624V47.9408Z" fill="#EC1B2E"/>
<path d="M71.399 45.8636V46.3615H71.9403V46.6507H71.399V47.7694C71.399 48.0266 71.4742 48.1714 71.682 48.1714C71.7854 48.1714 71.8437 48.1636 71.9011 48.1458L71.9189 48.4331C71.8437 48.4587 71.7298 48.4834 71.5844 48.4834C71.4099 48.4834 71.2669 48.4244 71.1776 48.3248C71.0746 48.2106 71.0318 48.0266 71.0318 47.7822V46.6507H70.7119V46.3615H71.0318V45.9755L71.399 45.8636Z" fill="#EC1B2E"/>
<path d="M72.2573 48.2144C72.2573 48.0614 72.3644 47.9454 72.5134 47.9454C72.6633 47.9454 72.7663 48.0573 72.7663 48.2144C72.7663 48.3697 72.6633 48.484 72.5034 48.484C72.3603 48.484 72.2573 48.3697 72.2573 48.2144Z" fill="#EC1B2E"/>
<path d="M74.6249 47.1811C74.6249 47.1162 74.6208 47.0618 74.603 47.013C74.536 46.7905 74.3542 46.6114 74.0758 46.6114C73.7168 46.6114 73.4598 46.9152 73.4598 47.3948C73.4598 47.8032 73.6699 48.1431 74.0722 48.1431C74.3073 48.1431 74.5173 47.9965 74.5957 47.7557C74.6167 47.6913 74.624 47.6182 74.624 47.5538V47.1811H74.6249ZM75.0017 48.1326C75.0017 48.6145 74.9024 48.9018 74.7064 49.0855C74.5005 49.2714 74.2084 49.3353 73.9483 49.3353C73.7009 49.3353 73.4266 49.2751 73.2589 49.164L73.3532 48.8717C73.4908 48.9631 73.7045 49.0398 73.961 49.0398C74.3469 49.0398 74.6281 48.8379 74.6281 48.3116V48.0828H74.6208C74.5091 48.2756 74.2832 48.4286 73.961 48.4286C73.448 48.4286 73.0798 47.9937 73.0798 47.4168C73.0798 46.7156 73.5391 46.3195 74.0162 46.3195C74.3761 46.3195 74.5697 46.505 74.6641 46.6763H74.6714L74.6855 46.3625H75.0181C75.0062 46.5082 75.0021 46.6795 75.0021 46.928V48.1326H75.0017Z" fill="#EC1B2E"/>
<path d="M76.929 47.199C76.934 46.961 76.8311 46.5901 76.4078 46.5901C76.021 46.5901 75.8601 46.9364 75.8287 47.199H76.929ZM75.825 47.4685C75.8341 47.9806 76.1563 48.1898 76.5349 48.1898C76.8042 48.1898 76.9714 48.1428 77.1081 48.0825L77.1778 48.3515C77.0457 48.4123 76.8147 48.4836 76.4839 48.4836C75.8465 48.4836 75.4651 48.0615 75.4651 47.4343C75.4651 46.808 75.8337 46.3192 76.4369 46.3192C77.1172 46.3192 77.2913 46.9094 77.2913 47.2927C77.2913 47.3703 77.2881 47.4251 77.2794 47.4681H75.825V47.4685Z" fill="#EC1B2E"/>
<path d="M6.96883 25.7752H0V32.7538H6.96883V25.7752Z" fill="#929497"/>
<path d="M14.7806 13.7535H7.81177V32.7539H14.7806V13.7535Z" fill="#929497"/>
<path d="M22.5919 19.8152H15.6226V32.7533H22.5919V19.8152Z" fill="#929497"/>
<path d="M30.4031 0H23.4338V32.7534H30.4031V0Z" fill="#929497"/>
<path d="M38.214 3.15796H31.2451V32.7534H38.214V3.15796Z" fill="#929497"/>
<path d="M46.0257 5.13489H39.0569V32.7538H46.0257V5.13489Z" fill="#EC1B2E"/>
<path d="M53.8365 8.85095H46.8682V32.7533H53.8365V8.85095Z" fill="#EC1B2E"/>
<path d="M61.6478 17.0735H54.6794V32.7533H61.6478V17.0735Z" fill="#EC1B2E"/>
<path d="M69.4591 4.50269H62.4902V32.7538H69.4591V4.50269Z" fill="#EC1B2E"/>
<path d="M77.2708 9.32562H70.302V32.7538H77.2708V9.32562Z" fill="#EC1B2E"/>
<path d="M77.2756 33.0979L0.00146484 33.1052V32.034L77.2756 32.0258V33.0979Z" fill="#808184"/>
</svg>
