<?xml version="1.0" encoding="utf-8"?>
<!-- Generator: Adobe Illustrator 21.1.0, SVG Export Plug-In . SVG Version: 6.00 Build 0)  -->
<svg version="1.1" id="Layer_1" xmlns="http://www.w3.org/2000/svg" xmlns:xlink="http://www.w3.org/1999/xlink" x="0px" y="0px"
	 viewBox="0 0 100 100" style="enable-background:new 0 0 100 100;" xml:space="preserve">
<style type="text/css">
	.st0{clip-path:url(#SVGID_2_);fill:#0086CD;}
	.st1{clip-path:url(#SVGID_2_);fill:none;stroke:#FFFFFF;stroke-width:2.013;stroke-miterlimit:10;}
	.st2{clip-path:url(#SVGID_2_);fill:#0089C3;}
	.st3{clip-path:url(#SVGID_4_);fill:#CE8C2A;}
	.st4{clip-path:url(#SVGID_4_);fill:none;stroke:#FFFFFF;stroke-width:2.013;stroke-miterlimit:10;}
	.st5{clip-path:url(#SVGID_4_);fill:#48773E;}
	.st6{clip-path:url(#SVGID_4_);fill:#F26D25;}
	.st7{clip-path:url(#SVGID_4_);fill:#E01483;}
	.st8{clip-path:url(#SVGID_4_);fill:#D29F29;}
	.st9{clip-path:url(#SVGID_4_);fill:#F89C26;}
	.st10{clip-path:url(#SVGID_4_);fill:#5DBA46;}
	.st11{clip-path:url(#SVGID_4_);fill:#FCB613;}
	.st12{clip-path:url(#SVGID_4_);fill:#007DBB;}
	.st13{clip-path:url(#SVGID_4_);fill:#183668;}
	.st14{clip-path:url(#SVGID_4_);fill:#8E1838;}
	.st15{clip-path:url(#SVGID_4_);fill:#C21F33;}
	.st16{clip-path:url(#SVGID_4_);fill:#279A48;}
	.st17{clip-path:url(#SVGID_4_);fill:#EE402B;}
	.st18{clip-path:url(#SVGID_4_);fill:#EA1C2D;}
	.st19{clip-path:url(#SVGID_4_);fill:#02558A;}
	.st20{clip-path:url(#SVGID_4_);fill:#00ADD8;}
	.st21{clip-path:url(#SVGID_6_);fill:#008AC4;}
	.st22{clip-path:url(#SVGID_6_);fill:none;stroke:#008AC2;stroke-width:1.476;stroke-miterlimit:10;}
	.st23{clip-path:url(#SVGID_8_);fill:#DB2129;}
	.st24{clip-path:url(#SVGID_8_);fill:none;stroke:#FFBF40;stroke-width:1.635;stroke-miterlimit:10;}
	.st25{clip-path:url(#SVGID_8_);fill:#ED1C24;}
	.st26{clip-path:url(#SVGID_8_);fill:none;stroke:#008AC2;stroke-width:1.476;stroke-miterlimit:10;}
	.st27{clip-path:url(#SVGID_10_);fill:#008AC2;}
	.st28{clip-path:url(#SVGID_10_);fill:none;stroke:#008AC2;stroke-width:1.476;stroke-miterlimit:10;}
	.st29{clip-path:url(#SVGID_12_);fill:#DB2129;}
	.st30{clip-path:url(#SVGID_12_);fill:none;stroke:#008AC2;stroke-width:1.476;stroke-miterlimit:10;}
	.st31{clip-path:url(#SVGID_12_);fill:#FFBF40;}
	.st32{clip-path:url(#SVGID_14_);fill:#008AC2;}
	.st33{clip-path:url(#SVGID_14_);fill:none;stroke:#008AC2;stroke-width:1.476;stroke-miterlimit:10;}
	.st34{clip-path:url(#SVGID_16_);fill:#DB2129;}
	.st35{clip-path:url(#SVGID_16_);fill:#FFBF40;}
	.st36{clip-path:url(#SVGID_16_);fill:none;stroke:#008AC2;stroke-width:1.476;stroke-miterlimit:10;}
	.st37{clip-path:url(#SVGID_18_);fill:#008AC2;}
	.st38{clip-path:url(#SVGID_18_);fill:none;stroke:#008AC2;stroke-width:1.476;stroke-miterlimit:10;}
	.st39{clip-path:url(#SVGID_20_);fill:#006CAE;}
	.st40{clip-path:url(#SVGID_20_);fill:#EC1C24;}
	.st41{clip-path:url(#SVGID_20_);fill:#F0822E;}
	.st42{clip-path:url(#SVGID_20_);fill:none;stroke:#0089C1;stroke-width:1.476;stroke-miterlimit:10;}
	.st43{fill:#0089C3;}
</style>
<g>
	<defs>
		<rect id="SVGID_3_" y="-0.1" width="100" height="100.1"/>
	</defs>
	<clipPath id="SVGID_2_">
		<use xlink:href="#SVGID_3_"  style="overflow:visible;"/>
	</clipPath>
	<path style="clip-path:url(#SVGID_2_);fill:#CE8C2A;" d="M23.6,58.9c0.3-0.1,0.4,0.2,0.5,0.4c0.7,2,1.7,3.9,2.9,5.7
		c0.4,0.5-0.1,0.7-0.3,0.9c-3.3,2.5-6.6,5-9.9,7.5c-2,1.6-4.1,3.1-6.1,4.7c-0.4,0.3-0.7,0.4-1-0.1C7,74,4.9,69.8,3.4,65.3
		c-0.1-0.4-0.2-0.6,0.3-0.8c6.6-1.9,13.1-3.8,19.7-5.6C23.4,58.9,23.5,58.9,23.6,58.9"/>
	<path class="st1" d="M23.6,58.9c0.3-0.1,0.4,0.2,0.5,0.4c0.7,2,1.7,3.9,2.9,5.7c0.4,0.5-0.1,0.7-0.3,0.9c-3.3,2.5-6.6,5-9.9,7.5
		c-2,1.6-4.1,3.1-6.1,4.7c-0.4,0.3-0.7,0.4-1-0.1C7,74,4.9,69.8,3.4,65.3c-0.1-0.4-0.2-0.6,0.3-0.8c6.6-1.9,13.1-3.8,19.7-5.6
		C23.4,58.9,23.5,58.9,23.6,58.9z"/>
	<path style="clip-path:url(#SVGID_2_);fill:#48773E;" d="M1,50.5c0-1,0-2,0-3.1c0-0.6,0.1-0.8,0.7-0.7c6.1,0.6,12.2,1.1,18.2,1.7
		c0.8,0.1,1.9-0.2,2.3,0.3c0.5,0.5,0.1,1.6,0.2,2.4c0.1,1.3,0.2,2.7,0.5,4c0.1,0.6,0.1,0.9-0.6,1.1C15.9,58,9.5,59.8,3.1,61.7
		c-0.6,0.2-0.7,0-0.9-0.5C1.4,57.6,0.9,54.1,1,50.5"/>
	<path class="st1" d="M1,50.5c0-1,0-2,0-3.1c0-0.6,0.1-0.8,0.7-0.7c6.1,0.6,12.2,1.1,18.2,1.7c0.8,0.1,1.9-0.2,2.3,0.3
		c0.5,0.5,0.1,1.6,0.2,2.4c0.1,1.3,0.2,2.7,0.5,4c0.1,0.6,0.1,0.9-0.6,1.1C15.9,58,9.5,59.8,3.1,61.7c-0.6,0.2-0.7,0-0.9-0.5
		C1.4,57.6,0.9,54.1,1,50.5z"/>
	<path style="clip-path:url(#SVGID_2_);fill:#F26D25;" d="M49.6,77.4c1.1-0.1,2.3,0,3.5-0.2c0.6-0.1,1,0,1.1,0.8
		c1.2,6.6,2.5,13.1,3.7,19.6c0.1,0.5,0.1,0.7-0.5,0.8c-4.7,0.7-9.4,0.7-14.2,0.1c-0.6-0.1-0.5-0.4-0.4-0.7c0.9-5,1.9-9.9,2.8-14.9
		c0.3-1.7,0.7-3.3,0.9-5c0.1-0.5,0.2-0.7,0.8-0.6C48.1,77.4,48.8,77.4,49.6,77.4"/>
	<path class="st1" d="M49.6,77.4c1.1-0.1,2.3,0,3.5-0.2c0.6-0.1,1,0,1.1,0.8c1.2,6.6,2.5,13.1,3.7,19.6c0.1,0.5,0.1,0.7-0.5,0.8
		c-4.7,0.7-9.4,0.7-14.2,0.1c-0.6-0.1-0.5-0.4-0.4-0.7c0.9-5,1.9-9.9,2.8-14.9c0.3-1.7,0.7-3.3,0.9-5c0.1-0.5,0.2-0.7,0.8-0.6
		C48.1,77.4,48.8,77.4,49.6,77.4z"/>
	<path style="clip-path:url(#SVGID_2_);fill:#E01483;" d="M39.3,97.9c-1.3-0.4-2.6-0.7-3.9-1.1c-3.2-1-6.3-2.3-9.2-3.9
		c-0.5-0.3-0.6-0.5-0.3-1c3.5-5.7,7.1-11.4,10.6-17.1c0.3-0.5,0.6-0.6,1.1-0.3c1.7,0.9,3.6,1.6,5.5,2.1c0.5,0.1,0.7,0.3,0.6,0.9
		C42.4,84,41.2,90.6,40,97.1C39.9,97.5,40,98,39.3,97.9"/>
	<path class="st1" d="M39.3,97.9c-1.3-0.4-2.6-0.7-3.9-1.1c-3.2-1-6.3-2.3-9.2-3.9c-0.5-0.3-0.6-0.5-0.3-1
		c3.5-5.7,7.1-11.4,10.6-17.1c0.3-0.5,0.6-0.6,1.1-0.3c1.7,0.9,3.6,1.6,5.5,2.1c0.5,0.1,0.7,0.3,0.6,0.9C42.4,84,41.2,90.6,40,97.1
		C39.9,97.5,40,98,39.3,97.9z"/>
	<path style="clip-path:url(#SVGID_2_);fill:#D29F29;" d="M67.4,28.6c-0.1-0.1-0.3-0.2-0.4-0.3c-1.6-1.2-3.2-2.3-5-3.1
		c-0.5-0.2-0.6-0.4-0.4-0.9C64,18,66.4,11.7,68.8,5.5c0.2-0.6,0.5-0.6,1-0.4c4.2,1.9,8.1,4.3,11.6,7.3c0.5,0.4,0.5,0.6,0.1,1
		c-4.5,4.9-9,9.8-13.6,14.8C67.8,28.3,67.7,28.6,67.4,28.6"/>
	<path class="st1" d="M67.4,28.6c-0.1-0.1-0.3-0.2-0.4-0.3c-1.6-1.2-3.2-2.3-5-3.1c-0.5-0.2-0.6-0.4-0.4-0.9
		C64,18,66.4,11.7,68.8,5.5c0.2-0.6,0.5-0.6,1-0.4c4.2,1.9,8.1,4.3,11.6,7.3c0.5,0.4,0.5,0.6,0.1,1c-4.5,4.9-9,9.8-13.6,14.8
		C67.8,28.3,67.7,28.6,67.4,28.6z"/>
	<path style="clip-path:url(#SVGID_2_);fill:#F89C26;" d="M34.3,72.8c-0.1,0.2-0.2,0.3-0.3,0.5c-3.5,5.7-7,11.3-10.5,17
		c-0.3,0.5-0.6,0.7-1.1,0.3c-3.8-2.6-7.1-5.6-10.1-9.1c-0.4-0.5-0.4-0.7,0.1-1.1c5.3-4,10.7-8.1,16-12.1c0.4-0.3,0.6-0.4,1,0.1
		c1.3,1.6,2.9,2.9,4.5,4.1C34.1,72.4,34.3,72.5,34.3,72.8"/>
	<path class="st1" d="M34.3,72.8c-0.1,0.2-0.2,0.3-0.3,0.5c-3.5,5.7-7,11.3-10.5,17c-0.3,0.5-0.6,0.7-1.1,0.3
		c-3.8-2.6-7.1-5.6-10.1-9.1c-0.4-0.5-0.4-0.7,0.1-1.1c5.3-4,10.7-8.1,16-12.1c0.4-0.3,0.6-0.4,1,0.1c1.3,1.6,2.9,2.9,4.5,4.1
		C34.1,72.4,34.3,72.5,34.3,72.8z"/>
	<path style="clip-path:url(#SVGID_2_);fill:#5DBA46;" d="M30.5,30.3c0,0.3-0.2,0.4-0.3,0.5c-1.4,1.4-2.6,3-3.6,4.7
		c-0.3,0.4-0.5,0.5-1,0.3c-6-3-12.1-6-18.1-9C7,26.5,7,26.3,7.3,25.9c2.3-4,5.1-7.6,8.3-10.8c0.4-0.4,0.6-0.5,1.1,0
		c4.5,5,9,9.9,13.5,14.8C30.3,30,30.4,30.1,30.5,30.3"/>
	<path class="st1" d="M30.5,30.3c0,0.3-0.2,0.4-0.3,0.5c-1.4,1.4-2.6,3-3.6,4.7c-0.3,0.4-0.5,0.5-1,0.3c-6-3-12.1-6-18.1-9
		C7,26.5,7,26.3,7.3,25.9c2.3-4,5.1-7.6,8.3-10.8c0.4-0.4,0.6-0.5,1.1,0c4.5,5,9,9.9,13.5,14.8C30.3,30,30.4,30.1,30.5,30.3z"/>
	<path style="clip-path:url(#SVGID_2_);fill:#FCB613;" d="M88.4,80.4c-0.1,0.2-0.2,0.3-0.4,0.5c-2.9,3.6-6.3,6.7-10.1,9.4
		c-0.4,0.3-0.7,0.3-0.9-0.2c-3.5-5.7-7.1-11.5-10.6-17.2c-0.3-0.4-0.2-0.7,0.2-1c1.6-1.2,3-2.5,4.3-4.1c0.4-0.5,0.7-0.3,1.1,0
		c3.9,2.9,7.8,5.9,11.7,8.8c1.4,1.1,2.9,2.2,4.3,3.3C88.1,80,88.4,80.1,88.4,80.4"/>
	<path class="st1" d="M88.4,80.4c-0.1,0.2-0.2,0.3-0.4,0.5c-2.9,3.6-6.3,6.7-10.1,9.4c-0.4,0.3-0.7,0.3-0.9-0.2
		c-3.5-5.7-7.1-11.5-10.6-17.2c-0.3-0.4-0.2-0.7,0.2-1c1.6-1.2,3-2.5,4.3-4.1c0.4-0.5,0.7-0.3,1.1,0c3.9,2.9,7.8,5.9,11.7,8.8
		c1.4,1.1,2.9,2.2,4.3,3.3C88.1,80,88.4,80.1,88.4,80.4z"/>
	<path style="clip-path:url(#SVGID_2_);fill:#007DBB;" d="M22.1,45.6c-5.6-0.5-11.1-1-16.5-1.5C4.4,44,3.2,43.9,2,43.8
		c-0.5,0-0.7-0.2-0.6-0.8c0.7-4.5,2-8.9,3.8-13.1c0.3-0.6,0.5-0.8,1.1-0.4c5.9,3,11.8,5.9,17.8,8.9c0.5,0.3,0.7,0.5,0.4,1.1
		c-0.8,1.8-1.3,3.6-1.6,5.5C22.8,45.6,22.6,45.8,22.1,45.6"/>
	<path class="st1" d="M22.1,45.6c-5.6-0.5-11.1-1-16.5-1.5C4.4,44,3.2,43.9,2,43.8c-0.5,0-0.7-0.2-0.6-0.8c0.7-4.5,2-8.9,3.8-13.1
		c0.3-0.6,0.5-0.8,1.1-0.4c5.9,3,11.8,5.9,17.8,8.9c0.5,0.3,0.7,0.5,0.4,1.1c-0.8,1.8-1.3,3.6-1.6,5.5
		C22.8,45.6,22.6,45.8,22.1,45.6z"/>
	<path style="clip-path:url(#SVGID_2_);fill:#183668;" d="M48.8,11.7c0,3.3,0,6.6,0,10c0,0.5,0,0.9-0.7,0.9c-1.9,0-3.8,0.4-5.6,1
		c-0.7,0.2-1,0-1.2-0.6c-2.4-6.2-4.8-12.4-7.2-18.5c-0.2-0.6-0.2-0.8,0.5-1c4.3-1.4,8.6-2.2,13.1-2.4c1.1-0.1,1.1-0.1,1.1,1.1
		C48.8,5.2,48.8,8.5,48.8,11.7"/>
	<path class="st1" d="M48.8,11.7c0,3.3,0,6.6,0,10c0,0.5,0,0.9-0.7,0.9c-1.9,0-3.8,0.4-5.6,1c-0.7,0.2-1,0-1.2-0.6
		c-2.4-6.2-4.8-12.4-7.2-18.5c-0.2-0.6-0.2-0.8,0.5-1c4.3-1.4,8.6-2.2,13.1-2.4c1.1-0.1,1.1-0.1,1.1,1.1
		C48.8,5.2,48.8,8.5,48.8,11.7z"/>
	<path style="clip-path:url(#SVGID_2_);fill:#8E1838;" d="M74.8,92.1c0,0.2-0.2,0.3-0.4,0.4c-4.1,2.4-8.4,4.1-13,5.2
		c-0.4,0.1-0.6,0-0.7-0.5c-1.2-6.7-2.5-13.4-3.8-20c-0.1-0.4,0-0.6,0.4-0.8c2-0.5,3.9-1.3,5.6-2.3c0.4-0.2,0.6-0.1,0.8,0.3
		c3.6,5.8,7.1,11.5,10.7,17.3C74.6,91.8,74.7,92,74.8,92.1"/>
	<path class="st1" d="M74.8,92.1c0,0.2-0.2,0.3-0.4,0.4c-4.1,2.4-8.4,4.1-13,5.2c-0.4,0.1-0.6,0-0.7-0.5c-1.2-6.7-2.5-13.4-3.8-20
		c-0.1-0.4,0-0.6,0.4-0.8c2-0.5,3.9-1.3,5.6-2.3c0.4-0.2,0.6-0.1,0.8,0.3c3.6,5.8,7.1,11.5,10.7,17.3C74.6,91.8,74.7,92,74.8,92.1z"
		/>
	<path style="clip-path:url(#SVGID_2_);fill:#C21F33;" d="M77.7,46c-0.4,0.1-0.5-0.2-0.5-0.5c-0.4-2-0.9-4-1.7-5.8
		c-0.3-0.6,0.2-0.7,0.5-0.8c4.9-2.4,9.8-4.9,14.7-7.3c1.1-0.6,2.2-1.1,3.3-1.7c0.4-0.2,0.6-0.2,0.9,0.3c1.9,4.3,3.1,8.7,3.8,13.4
		c0.1,0.5-0.1,0.6-0.5,0.7c-4.5,0.4-9,0.8-13.5,1.2C82.3,45.5,80,45.7,77.7,46"/>
	<path class="st1" d="M77.7,46c-0.4,0.1-0.5-0.2-0.5-0.5c-0.4-2-0.9-4-1.7-5.8c-0.3-0.6,0.2-0.7,0.5-0.8c4.9-2.4,9.8-4.9,14.7-7.3
		c1.1-0.6,2.2-1.1,3.3-1.7c0.4-0.2,0.6-0.2,0.9,0.3c1.9,4.3,3.1,8.7,3.8,13.4c0.1,0.5-0.1,0.6-0.5,0.7c-4.5,0.4-9,0.8-13.5,1.2
		C82.3,45.5,80,45.7,77.7,46z"/>
	<path style="clip-path:url(#SVGID_2_);fill:#279A48;" d="M93.1,26.6c0,0.4-0.4,0.4-0.6,0.5c-4.6,2.3-9.3,4.6-13.9,6.9
		c-1.4,0.7-2.7,1.3-4.1,2c-0.4,0.2-0.7,0.2-1-0.3c-1-1.7-2.2-3.2-3.5-4.7c-0.3-0.4-0.4-0.6,0-1c4.5-4.9,9.1-9.9,13.6-14.8
		c0.4-0.5,0.6-0.5,1.1,0c3.2,3.2,5.9,6.8,8.1,10.7C92.9,26.3,93,26.5,93.1,26.6"/>
	<path class="st1" d="M93.1,26.6c0,0.4-0.4,0.4-0.6,0.5c-4.6,2.3-9.3,4.6-13.9,6.9c-1.4,0.7-2.7,1.3-4.1,2c-0.4,0.2-0.7,0.2-1-0.3
		c-1-1.7-2.2-3.2-3.5-4.7c-0.3-0.4-0.4-0.6,0-1c4.5-4.9,9.1-9.9,13.6-14.8c0.4-0.5,0.6-0.5,1.1,0c3.2,3.2,5.9,6.8,8.1,10.7
		C92.9,26.3,93,26.5,93.1,26.6z"/>
	<path style="clip-path:url(#SVGID_2_);fill:#EE402B;" d="M99,50.3c0,3.7-0.4,7.2-1.2,10.8c-0.1,0.6-0.3,0.8-1,0.6
		c-6.4-1.9-12.8-3.7-19.2-5.5c-0.6-0.2-0.8-0.4-0.7-1.1c0.4-1.8,0.6-3.7,0.5-5.5c0-0.6,0.2-0.7,0.7-0.7c3.8-0.3,7.5-0.7,11.3-1.1
		c2.9-0.3,5.8-0.5,8.7-0.8c0.7-0.1,0.9,0.1,0.9,0.8C99,48.5,99,49.4,99,50.3"/>
	<path class="st1" d="M99,50.3c0,3.7-0.4,7.2-1.2,10.8c-0.1,0.6-0.3,0.8-1,0.6c-6.4-1.9-12.8-3.7-19.2-5.5c-0.6-0.2-0.8-0.4-0.7-1.1
		c0.4-1.8,0.6-3.7,0.5-5.5c0-0.6,0.2-0.7,0.7-0.7c3.8-0.3,7.5-0.7,11.3-1.1c2.9-0.3,5.8-0.5,8.7-0.8c0.7-0.1,0.9,0.1,0.9,0.8
		C99,48.5,99,49.4,99,50.3z"/>
	<path style="clip-path:url(#SVGID_2_);fill:#EA1C2D;" d="M52.4,0.9c4.5,0.2,9,1.1,13.3,2.5c0.6,0.2,0.7,0.4,0.5,1
		c-2.4,6.2-4.8,12.4-7.2,18.6c-0.3,0.7-0.6,0.7-1.2,0.5c-1.8-0.6-3.6-0.9-5.4-1c-0.5,0-0.7-0.2-0.7-0.7c0-6.8,0-13.5,0-20.3
		C51.6,1,51.9,0.8,52.4,0.9"/>
	<path class="st1" d="M52.4,0.9c4.5,0.2,9,1.1,13.3,2.5c0.6,0.2,0.7,0.4,0.5,1c-2.4,6.2-4.8,12.4-7.2,18.6c-0.3,0.7-0.6,0.7-1.2,0.5
		c-1.8-0.6-3.6-0.9-5.4-1c-0.5,0-0.7-0.2-0.7-0.7c0-6.8,0-13.5,0-20.3C51.6,1,51.9,0.8,52.4,0.9z"/>
	<path style="clip-path:url(#SVGID_2_);fill:#02558A;" d="M32.9,28.4c-0.2-0.1-0.3-0.3-0.5-0.4c-4.6-5-9.1-10-13.7-15
		c-0.4-0.4-0.3-0.6,0.1-0.9c3.6-2.9,7.5-5.3,11.7-7.2c0.5-0.2,0.7-0.1,0.8,0.4c2.4,6.3,4.9,12.6,7.3,18.9c0.1,0.3,0.2,0.6-0.3,0.8
		c-1.8,0.8-3.5,1.9-5.1,3.1C33.2,28.2,33,28.3,32.9,28.4"/>
	<path class="st1" d="M32.9,28.4c-0.2-0.1-0.3-0.3-0.5-0.4c-4.6-5-9.1-10-13.7-15c-0.4-0.4-0.3-0.6,0.1-0.9
		c3.6-2.9,7.5-5.3,11.7-7.2c0.5-0.2,0.7-0.1,0.8,0.4c2.4,6.3,4.9,12.6,7.3,18.9c0.1,0.3,0.2,0.6-0.3,0.8c-1.8,0.8-3.5,1.9-5.1,3.1
		C33.2,28.2,33,28.3,32.9,28.4z"/>
	<path style="clip-path:url(#SVGID_2_);fill:#00ADD8;" d="M76.3,58.8c1.4,0.4,2.8,0.8,4.1,1.2c5.1,1.5,10.3,3,15.4,4.4
		c0.8,0.2,0.8,0.5,0.6,1.2c-1.4,4.1-3.3,7.9-5.7,11.6c-0.4,0.7-0.7,0.7-1.3,0.2c-5.2-4-10.5-7.9-15.7-11.9c-0.5-0.4-0.6-0.7-0.2-1.3
		c1-1.5,1.8-3.1,2.4-4.9C76,58.8,76.1,58.8,76.3,58.8"/>
	<path class="st1" d="M76.3,58.8c1.4,0.4,2.8,0.8,4.1,1.2c5.1,1.5,10.3,3,15.4,4.4c0.8,0.2,0.8,0.5,0.6,1.2
		c-1.4,4.1-3.3,7.9-5.7,11.6c-0.4,0.7-0.7,0.7-1.3,0.2c-5.2-4-10.5-7.9-15.7-11.9c-0.5-0.4-0.6-0.7-0.2-1.3c1-1.5,1.8-3.1,2.4-4.9
		C76,58.8,76.1,58.8,76.3,58.8z"/>
</g>
<path class="st43" d="M47.3,50.1c0,1.6,0,3.1,0,4.7c0,0.4,0.1,0.5,0.5,0.5c0.4,0,0.8,0,1.2,0c0.9-0.1,1.5-0.6,1.5-1.3
	c0-2.5,0-5.1,0-7.6c0-0.7-0.4-1.2-1.2-1.3c-0.4-0.1-0.9,0-1.4-0.1c-0.4,0-0.6,0.1-0.6,0.6C47.4,47,47.3,48.6,47.3,50.1 M44.4,57.1
	v-0.6c0-4.3,0-8.5,0-12.8c0-0.5,0.1-0.6,0.6-0.6c1.7,0.1,3.4,0,5.1,0.1c2.2,0.1,3.3,1.4,3.3,3.6c0,2.1,0,4.3,0,6.4
	c0,2.5-1.1,3.7-3.6,3.9c-0.3,0-0.7,0-1,0C47.4,57.1,46,57.1,44.4,57.1"/>
<path class="st43" d="M60.8,51.4c0-0.5,0-1,0-1.5c0-0.1,0.2-0.3,0.3-0.3c1.2,0,2.3,0,3.5,0c0.1,0,0.3,0.2,0.3,0.3c0,2.3,0,4.7,0,7.1
	h-2.1v-1.3c-0.1,0-0.2,0.1-0.2,0.1c-0.7,1.5-2.6,1.7-4.2,1.2c-1.4-0.4-2.3-1.6-2.3-3.2c0-2.3,0-4.7,0-7c0-2.3,1-3.5,3.2-3.8
	c1.2-0.2,2.4-0.2,3.5,0.2c1.3,0.4,1.9,1.3,2,2.6c0,0.4,0,0.8,0,1.3c0,0.3-0.1,0.5-0.5,0.4c-0.6,0-1.2,0-1.8,0
	c-0.3,0-0.4-0.1-0.4-0.5c0-0.3,0-0.6,0-0.9c0-0.8-0.5-1.3-1.3-1.4c-0.9-0.1-1.6,0.3-1.8,1.1c0,0.2-0.1,0.4-0.1,0.6
	c0,2.4,0,4.9,0,7.3c0,1.2,0.6,1.7,1.7,1.6c0.9,0,1.4-0.5,1.4-1.4c0-0.7,0-1.4,0-2c0-0.4-0.1-0.5-0.5-0.5
	C61.4,51.5,61.1,51.4,60.8,51.4"/>
<path class="st43" d="M33.2,53.7c0-1.3,0-1.3,1.4-1.3c1.4,0,1.4,0,1.4,1.4c0,0.1,0,0.2,0,0.3c0,1.3,1.2,2,2.4,1.3
	c0.3-0.2,0.5-0.5,0.6-0.8c0.2-1-0.1-1.9-1-2.6c-1-0.7-1.9-1.5-2.9-2.3c-1.1-0.9-1.9-1.9-1.8-3.5c0.1-1.5,0.7-2.5,2.2-2.9
	c1.4-0.4,2.8-0.4,4.2,0c1.5,0.4,2.4,2,2,3.6c0,0.1-0.2,0.3-0.4,0.3c-0.6,0-1.2,0-1.9,0c-0.1,0-0.3-0.2-0.4-0.4c-0.1-0.2,0-0.4,0-0.5
	c0-0.8-0.2-1.2-0.8-1.3c-0.7-0.2-1.6-0.1-1.9,0.4c-0.3,0.4-0.4,1.3,0,1.8c0.4,0.5,0.9,1,1.5,1.4c0.9,0.7,1.8,1.5,2.7,2.2
	c1.4,1.1,1.6,2.6,1.3,4.2c-0.2,1.3-1.2,2-2.4,2.3c-1.1,0.3-2.2,0.3-3.3,0.1C34,56.8,33.2,55.8,33.2,53.7"/>
</svg>
